SplineFontDB: 3.2
FontName: Croatica
FullName: Croatica
FamilyName: Croatica
Weight: Book
Copyright: Copyright (c) 2009 by Nenad Hancic-Matejic, Duesseldorf Germany. All rights reserved.
Version: 001.001
ItalicAngle: 0
UnderlinePosition: -102.4
UnderlineWidth: 46.08
Ascent: 819
Descent: 205
InvalidEm: 0
sfntRevision: 0x00010000
LayerCount: 2
Layer: 0 1 "Back" 1
Layer: 1 1 "Fore" 0
XUID: [1021 504 -692183368 7018365]
StyleMap: 0x0040
FSType: 0
OS2Version: 3
OS2_WeightWidthSlopeOnly: 0
OS2_UseTypoMetrics: 0
CreationTime: 1236711900
ModificationTime: 1723808316
PfmFamily: 17
TTFWeight: 400
TTFWidth: 5
LineGap: 34
VLineGap: 0
Panose: 2 0 5 6 0 0 0 2 0 4
OS2TypoAscent: 666
OS2TypoAOffset: 0
OS2TypoDescent: -307
OS2TypoDOffset: 0
OS2TypoLinegap: 34
OS2WinAscent: 666
OS2WinAOffset: 0
OS2WinDescent: 307
OS2WinDOffset: 0
HheadAscent: 666
HheadAOffset: 0
HheadDescent: -307
HheadDOffset: 0
OS2SubXSize: 717
OS2SubYSize: 666
OS2SubXOff: 0
OS2SubYOff: 143
OS2SupXSize: 717
OS2SupYSize: 666
OS2SupXOff: 0
OS2SupYOff: 488
OS2StrikeYSize: 51
OS2StrikeYPos: 256
OS2CapHeight: 614
OS2XHeight: 287
OS2Vendor: 'glag'
OS2CodePages: 8000008f.04000000
OS2UnicodeRanges: 0000020f.00000000.00000000.00000000
Lookup: 258 0 0 "'kern' Horizontal Kerning in Latin lookup 0" { "'kern' Horizontal Kerning in Latin lookup 0 per glyph data 0"  "'kern' Horizontal Kerning in Latin lookup 0 per glyph data 1"  "'kern' Horizontal Kerning in Latin lookup 0 per glyph data 2"  "'kern' Horizontal Kerning in Latin lookup 0 kerning class 3"  } ['kern' ('latn' <'dflt' > ) ]
MarkAttachClasses: 1
DEI: 91125
KernClass2: 37+ 38 "'kern' Horizontal Kerning in Latin lookup 0 kerning class 3"
 134 quoteleft quoteright quotedblleft quotedblright degree twosuperior threesuperior onesuperior tilde quotedbl asterisk breve quotesingle
 50 greater guilsinglright guillemotright greaterequal
 42 less guilsinglleft guillemotleft lessequal
 49 zero one two three four five six seven eight nine

StartChar: plus
Encoding: 43 43 4
Width: 409
Flags: W
LayerCount: 2
Fore
SplineSet
190 249 m 1,0,-1
 190 389 l 1,1,-1
 219 389 l 1,2,-1
 219 249 l 1,3,-1
 358 249 l 1,4,-1
 358 220 l 1,5,-1
 219 220 l 1,6,-1
 219 82 l 1,7,-1
 190 82 l 1,8,-1
 190 220 l 1,9,-1
 51 220 l 1,10,-1
 51 249 l 1,11,-1
 190 249 l 1,0,-1
EndSplineSet
EndChar

StartChar: comma
Encoding: 44 44 5
Width: 184
Flags: W
LayerCount: 2
Fore
SplineSet
51 -68 m 1,0,1
 74 -63 74 -63 86 -51 c 128,-1,2
 98 -39 98 -39 103.5 -26 c 128,-1,3
 109 -13 109 -13 109 -2.5 c 128,-1,4
 109 8 109 8 106 12 c 1,5,6
 99 0 99 0 82 0 c 0,7,8
 69 0 69 0 60 8.5 c 128,-1,9
 51 17 51 17 51 31 c 256,10,11
 51 44 51 44 61 52.5 c 128,-1,12
 71 61 71 61 87 61 c 0,13,14
 107 61 107 61 120 47.5 c 128,-1,15
 133 34 133 34 133 10 c 0,16,17
 133 -28 133 -28 108 -52.5 c 128,-1,18
 83 -77 83 -77 51 -82 c 1,19,-1
 51 -68 l 1,0,1
EndSplineSet
EndChar

StartChar: hyphen
Encoding: 45 45 6
Width: 307
Flags: W
LayerCount: 2
Fore
SplineSet
256 225 m 1,0,-1
 256 184 l 1,1,-1
 51 184 l 1,2,-1
 51 225 l 1,3,-1
 256 225 l 1,0,-1
EndSplineSet
EndChar

StartChar: period
Encoding: 46 46 7
Width: 163
Flags: W
LayerCount: 2
Fore
SplineSet
82 61 m 256,0,1
 95 61 95 61 104 52.5 c 128,-1,2
 113 44 113 44 113 31 c 256,3,4
 113 18 113 18 104 9 c 128,-1,5
 95 0 95 0 82 0 c 256,6,7
 69 0 69 0 60 8.5 c 128,-1,8
 51 17 51 17 51 31 c 256,9,10
 51 44 51 44 60 52.5 c 128,-1,11
 69 61 69 61 82 61 c 256,0,1
EndSplineSet
EndChar

StartChar: slash
Encoding: 47 47 8
Width: 335
Flags: W
LayerCount: 2
Fore
SplineSet
305 614 m 1,0,-1
 59 0 l 1,1,-1
 31 0 l 1,2,-1
 276 614 l 1,3,-1
 305 614 l 1,0,-1
EndSplineSet
EndChar

StartChar: zero
Encoding: 48 48 9
Width: 374
Flags: W
LayerCount: 2
Fore
SplineSet
187 471 m 256,0,1
 255 471 255 471 293 407.5 c 128,-1,2
 331 344 331 344 331 234 c 256,3,4
 331 124 331 124 293 62 c 128,-1,5
 255 0 255 0 187 0 c 256,6,7
 119 0 119 0 81.5 62.5 c 128,-1,8
 44 125 44 125 44 234 c 256,9,10
 44 344 44 344 81.5 407.5 c 128,-1,11
 119 471 119 471 187 471 c 256,0,1
187 451 m 256,12,13
 143 451 143 451 124 400.5 c 128,-1,14
 105 350 105 350 105 234 c 256,15,16
 105 118 105 118 124 69 c 128,-1,17
 143 20 143 20 187 20 c 256,18,19
 231 20 231 20 250 69.5 c 128,-1,20
 269 119 269 119 269 234 c 256,21,22
 269 350 269 350 250 400.5 c 128,-1,23
 231 451 231 451 187 451 c 256,12,13
EndSplineSet
EndChar

StartChar: one
Encoding: 49 49 10
Width: 374
Flags: W
LayerCount: 2
Fore
SplineSet
230 78 m 2,0,1
 230 61 230 61 231.5 49.5 c 128,-1,2
 233 38 233 38 238.5 31.5 c 128,-1,3
 244 25 244 25 253 21 c 128,-1,4
 262 17 262 17 278 14 c 1,5,-1
 278 0 l 1,6,-1
 122 0 l 1,7,-1
 122 14 l 1,8,9
 137 17 137 17 146.5 21 c 128,-1,10
 156 25 156 25 161 31.5 c 128,-1,11
 166 38 166 38 167.5 49 c 128,-1,12
 169 60 169 60 169 78 c 2,13,-1
 169 373 l 2,14,15
 169 386 169 386 166.5 393.5 c 128,-1,16
 164 401 164 401 156 405 c 128,-1,17
 148 409 148 409 134 409.5 c 128,-1,18
 120 410 120 410 97 410 c 1,19,-1
 97 424 l 1,20,-1
 230 471 l 1,21,-1
 230 78 l 2,0,1
EndSplineSet
EndChar

StartChar: two
Encoding: 50 50 11
Width: 374
Flags: W
LayerCount: 2
Fore
SplineSet
304 0 m 1,0,-1
 32 0 l 1,1,-1
 32 20 l 1,2,3
 81 75 81 75 119 117.5 c 128,-1,4
 157 160 157 160 183 195.5 c 128,-1,5
 209 231 209 231 223 264 c 128,-1,6
 237 297 237 297 237 334 c 0,7,8
 237 366 237 366 227 385 c 128,-1,9
 217 404 217 404 204 414.5 c 128,-1,10
 191 425 191 425 177 428.5 c 128,-1,11
 163 432 163 432 154 432 c 0,12,13
 116 432 116 432 90.5 406.5 c 128,-1,14
 65 381 65 381 52 339 c 1,15,-1
 32 339 l 1,16,17
 36 364 36 364 44.5 387.5 c 128,-1,18
 53 411 53 411 69.5 429 c 128,-1,19
 86 447 86 447 111 459 c 128,-1,20
 136 471 136 471 174 471 c 0,21,22
 193 471 193 471 215.5 464.5 c 128,-1,23
 238 458 238 458 256 443 c 128,-1,24
 274 428 274 428 286 404.5 c 128,-1,25
 298 381 298 381 298 347 c 0,26,27
 298 315 298 315 284 284.5 c 128,-1,28
 270 254 270 254 243.5 220 c 128,-1,29
 217 186 217 186 179 147.5 c 128,-1,30
 141 109 141 109 93 61 c 1,31,-1
 214 61 l 2,32,33
 245 61 245 61 264 63 c 128,-1,34
 283 65 283 65 294.5 69.5 c 128,-1,35
 306 74 306 74 314 82 c 128,-1,36
 322 90 322 90 330 103 c 1,37,-1
 344 103 l 1,38,-1
 304 0 l 1,0,-1
EndSplineSet
EndChar

StartChar: three
Encoding: 51 51 12
Width: 374
Flags: W
LayerCount: 2
Fore
SplineSet
49 339 m 1,0,1
 53 364 53 364 62 387.5 c 128,-1,2
 71 411 71 411 87 429 c 128,-1,3
 103 447 103 447 128.5 459 c 128,-1,4
 154 471 154 471 191 471 c 0,5,6
 218 471 218 471 237.5 463 c 128,-1,7
 257 455 257 455 270.5 441 c 128,-1,8
 284 427 284 427 290 410 c 128,-1,9
 296 393 296 393 296 377 c 0,10,11
 296 349 296 349 283.5 323 c 128,-1,12
 271 297 271 297 238 276 c 1,13,14
 254 268 254 268 270 257.5 c 128,-1,15
 286 247 286 247 298 231 c 128,-1,16
 310 215 310 215 318 194 c 128,-1,17
 326 173 326 173 326 146 c 0,18,19
 326 109 326 109 312 82 c 128,-1,20
 298 55 298 55 274.5 36.5 c 128,-1,21
 251 18 251 18 219 9 c 128,-1,22
 187 0 187 0 152 0 c 0,23,24
 99 0 99 0 74 17.5 c 128,-1,25
 49 35 49 35 49 51 c 0,26,27
 49 69 49 69 66 75 c 128,-1,28
 83 81 83 81 102 60 c 0,29,30
 120 42 120 42 141 35 c 128,-1,31
 162 28 162 28 180 28 c 0,32,33
 217 28 217 28 245.5 50 c 128,-1,34
 274 72 274 72 274 124 c 0,35,36
 274 156 274 156 261.5 176.5 c 128,-1,37
 249 197 249 197 228 208 c 128,-1,38
 207 219 207 219 180.5 221.5 c 128,-1,39
 154 224 154 224 127 221 c 1,40,-1
 127 242 l 1,41,42
 143 246 143 246 164 253 c 128,-1,43
 185 260 185 260 202.5 273 c 128,-1,44
 220 286 220 286 232.5 305.5 c 128,-1,45
 245 325 245 325 245 354 c 0,46,47
 245 377 245 377 237.5 392.5 c 128,-1,48
 230 408 230 408 219.5 416.5 c 128,-1,49
 209 425 209 425 196 428.5 c 128,-1,50
 183 432 183 432 171 432 c 0,51,52
 133 432 133 432 107.5 406.5 c 128,-1,53
 82 381 82 381 70 339 c 1,54,-1
 49 339 l 1,0,1
EndSplineSet
EndChar

StartChar: four
Encoding: 52 52 13
Width: 374
Flags: W
LayerCount: 2
Fore
SplineSet
34 123 m 1,0,-1
 34 164 l 1,1,-1
 259 471 l 1,2,-1
 280 471 l 1,3,-1
 280 164 l 1,4,-1
 341 164 l 1,5,-1
 341 123 l 1,6,-1
 280 123 l 1,7,-1
 280 0 l 1,8,-1
 218 0 l 1,9,-1
 218 123 l 1,10,-1
 34 123 l 1,0,-1
218 380 m 1,11,-1
 60 164 l 1,12,-1
 218 164 l 1,13,-1
 218 380 l 1,11,-1
EndSplineSet
EndChar

StartChar: five
Encoding: 53 53 14
Width: 374
Flags: W
LayerCount: 2
Fore
SplineSet
305 410 m 1,0,-1
 154 410 l 1,1,-1
 115 317 l 1,2,3
 154 314 154 314 190.5 303 c 128,-1,4
 227 292 227 292 256.5 271 c 128,-1,5
 286 250 286 250 303.5 219 c 128,-1,6
 321 188 321 188 321 146 c 0,7,8
 321 109 321 109 307 82 c 128,-1,9
 293 55 293 55 269.5 36.5 c 128,-1,10
 246 18 246 18 214 9 c 128,-1,11
 182 0 182 0 146 0 c 0,12,13
 93 0 93 0 68.5 17.5 c 128,-1,14
 44 35 44 35 44 51 c 0,15,16
 44 69 44 69 61 75 c 128,-1,17
 78 81 78 81 97 60 c 0,18,19
 115 42 115 42 136 35 c 128,-1,20
 157 28 157 28 175 28 c 0,21,22
 212 28 212 28 240.5 50 c 128,-1,23
 269 72 269 72 269 124 c 0,24,25
 269 180 269 180 217.5 218 c 128,-1,26
 166 256 166 256 65 256 c 1,27,-1
 157 471 l 1,28,-1
 331 471 l 1,29,-1
 305 410 l 1,0,-1
EndSplineSet
EndChar

StartChar: six
Encoding: 54 54 15
Width: 374
Flags: W
LayerCount: 2
Fore
SplineSet
317 455 m 1,0,1
 274 447 274 447 241.5 429.5 c 128,-1,2
 209 412 209 412 185.5 388.5 c 128,-1,3
 162 365 162 365 146 335 c 128,-1,4
 130 305 130 305 121 272 c 1,5,6
 132 282 132 282 152.5 290.5 c 128,-1,7
 173 299 173 299 196 301.5 c 128,-1,8
 219 304 219 304 243 299 c 128,-1,9
 267 294 267 294 286.5 278.5 c 128,-1,10
 306 263 306 263 318.5 235 c 128,-1,11
 331 207 331 207 331 164 c 0,12,13
 331 137 331 137 323 108.5 c 128,-1,14
 315 80 315 80 298.5 56 c 128,-1,15
 282 32 282 32 254.5 16 c 128,-1,16
 227 0 227 0 187 0 c 0,17,18
 164 0 164 0 139.5 9.5 c 128,-1,19
 115 19 115 19 93.5 40 c 128,-1,20
 72 61 72 61 58 95 c 128,-1,21
 44 129 44 129 44 178 c 0,22,23
 44 229 44 229 60 279 c 128,-1,24
 76 329 76 329 108.5 370 c 128,-1,25
 141 411 141 411 193 438 c 128,-1,26
 245 465 245 465 317 471 c 1,27,-1
 317 455 l 1,0,1
190 20 m 0,28,29
 209 20 209 20 224.5 31 c 128,-1,30
 240 42 240 42 249.5 59.5 c 128,-1,31
 259 77 259 77 264 99.5 c 128,-1,32
 269 122 269 122 269 145 c 0,33,34
 269 211 269 211 250.5 240 c 128,-1,35
 232 269 232 269 207 275 c 128,-1,36
 182 281 182 281 156 269.5 c 128,-1,37
 130 258 130 258 115 243 c 1,38,39
 107 201 107 201 106.5 161.5 c 128,-1,40
 106 122 106 122 115.5 90 c 128,-1,41
 125 58 125 58 143.5 39 c 128,-1,42
 162 20 162 20 190 20 c 0,28,29
EndSplineSet
EndChar

StartChar: seven
Encoding: 55 55 16
Width: 374
Flags: W
LayerCount: 2
Fore
SplineSet
72 471 m 1,0,-1
 344 471 l 1,1,-1
 344 451 l 1,2,3
 317 418 317 418 290.5 373.5 c 128,-1,4
 264 329 264 329 241 272.5 c 128,-1,5
 218 216 218 216 200.5 148 c 128,-1,6
 183 80 183 80 175 0 c 1,7,-1
 114 0 l 1,8,9
 123 80 123 80 143 144 c 128,-1,10
 163 208 163 208 188 257.5 c 128,-1,11
 213 307 213 307 239.5 344.5 c 128,-1,12
 266 382 266 382 288 410 c 1,13,-1
 162 410 l 2,14,15
 131 410 131 410 112 408.5 c 128,-1,16
 93 407 93 407 81.5 402 c 128,-1,17
 70 397 70 397 62 389 c 128,-1,18
 54 381 54 381 46 368 c 1,19,-1
 32 368 l 1,20,-1
 72 471 l 1,0,-1
EndSplineSet
EndChar

StartChar: eight
Encoding: 56 56 17
Width: 374
Flags: W
LayerCount: 2
Fore
SplineSet
66 369 m 0,0,1
 66 395 66 395 76 414 c 128,-1,2
 86 433 86 433 103.5 446 c 128,-1,3
 121 459 121 459 142.5 465 c 128,-1,4
 164 471 164 471 187 471 c 0,5,6
 210 471 210 471 232 465 c 128,-1,7
 254 459 254 459 271.5 446 c 128,-1,8
 289 433 289 433 299 413.5 c 128,-1,9
 309 394 309 394 309 369 c 0,10,11
 309 332 309 332 284.5 305.5 c 128,-1,12
 260 279 260 279 227 256 c 1,13,14
 245 243 245 243 262.5 228.5 c 128,-1,15
 280 214 280 214 293 197 c 128,-1,16
 306 180 306 180 314.5 159 c 128,-1,17
 323 138 323 138 323 113 c 0,18,19
 323 84 323 84 311 63 c 128,-1,20
 299 42 299 42 280 28 c 128,-1,21
 261 14 261 14 237 7 c 128,-1,22
 213 0 213 0 187 0 c 256,23,24
 161 0 161 0 137.5 7 c 128,-1,25
 114 14 114 14 95 28 c 128,-1,26
 76 42 76 42 64 63 c 128,-1,27
 52 84 52 84 52 113 c 0,28,29
 52 135 52 135 60.5 152.5 c 128,-1,30
 69 170 69 170 82 185.5 c 128,-1,31
 95 201 95 201 112.5 213.5 c 128,-1,32
 130 226 130 226 148 239 c 1,33,34
 115 264 115 264 90.5 294 c 128,-1,35
 66 324 66 324 66 369 c 0,0,1
173 220 m 1,36,37
 140 197 140 197 116.5 172 c 128,-1,38
 93 147 93 147 93 113 c 0,39,40
 93 86 93 86 102.5 68.5 c 128,-1,41
 112 51 112 51 125.5 40.5 c 128,-1,42
 139 30 139 30 156 25 c 128,-1,43
 173 20 173 20 187 20 c 256,44,45
 201 20 201 20 216 24.5 c 128,-1,46
 231 29 231 29 243 38 c 128,-1,47
 255 47 255 47 262 60.5 c 128,-1,48
 269 74 269 74 269 92 c 0,49,50
 269 114 269 114 261 132 c 128,-1,51
 253 150 253 150 239.5 165 c 128,-1,52
 226 180 226 180 208.5 193.5 c 128,-1,53
 191 207 191 207 173 220 c 1,36,37
203 274 m 1,54,55
 230 293 230 293 248.5 316 c 128,-1,56
 267 339 267 339 267 369 c 0,57,58
 267 389 267 389 260 404.5 c 128,-1,59
 253 420 253 420 241.5 430 c 128,-1,60
 230 440 230 440 216 445.5 c 128,-1,61
 202 451 202 451 187 451 c 0,62,63
 160 451 160 451 140 435.5 c 128,-1,64
 120 420 120 420 120 389 c 0,65,66
 120 350 120 350 145 324 c 128,-1,67
 170 298 170 298 203 274 c 1,54,55
EndSplineSet
EndChar

StartChar: nine
Encoding: 57 57 18
Width: 374
Flags: W
LayerCount: 2
Fore
SplineSet
57 16 m 1,0,1
 100 24 100 24 133 41.5 c 128,-1,2
 166 59 166 59 189.5 82.5 c 128,-1,3
 213 106 213 106 229 136 c 128,-1,4
 245 166 245 166 254 199 c 1,5,6
 243 189 243 189 222.5 180.5 c 128,-1,7
 202 172 202 172 179 169.5 c 128,-1,8
 156 167 156 167 132 172 c 128,-1,9
 108 177 108 177 88.5 192.5 c 128,-1,10
 69 208 69 208 56.5 236 c 128,-1,11
 44 264 44 264 44 307 c 0,12,13
 44 333 44 333 51.5 362 c 128,-1,14
 59 391 59 391 76 415 c 128,-1,15
 93 439 93 439 120 455 c 128,-1,16
 147 471 147 471 187 471 c 0,17,18
 210 471 210 471 235 461.5 c 128,-1,19
 260 452 260 452 281.5 431 c 128,-1,20
 303 410 303 410 317 376 c 128,-1,21
 331 342 331 342 331 293 c 0,22,23
 331 242 331 242 315 191.5 c 128,-1,24
 299 141 299 141 266 100.5 c 128,-1,25
 233 60 233 60 181 33 c 128,-1,26
 129 6 129 6 57 0 c 1,27,-1
 57 16 l 1,0,1
184 451 m 0,28,29
 165 451 165 451 150 440 c 128,-1,30
 135 429 135 429 125.5 411.5 c 128,-1,31
 116 394 116 394 110.5 371.5 c 128,-1,32
 105 349 105 349 105 326 c 0,33,34
 105 260 105 260 123.5 231 c 128,-1,35
 142 202 142 202 167.5 196 c 128,-1,36
 193 190 193 190 219 201.5 c 128,-1,37
 245 213 245 213 260 228 c 1,38,39
 268 269 268 269 268 309 c 128,-1,40
 268 349 268 349 259 381 c 128,-1,41
 250 413 250 413 231 432 c 128,-1,42
 212 451 212 451 184 451 c 0,28,29
EndSplineSet
EndChar

StartChar: colon
Encoding: 58 58 19
Width: 163
Flags: W
LayerCount: 2
Fore
SplineSet
82 61 m 256,0,1
 95 61 95 61 104 52.5 c 128,-1,2
 113 44 113 44 113 31 c 256,3,4
 113 18 113 18 104 9 c 128,-1,5
 95 0 95 0 82 0 c 256,6,7
 69 0 69 0 60 8.5 c 128,-1,8
 51 17 51 17 51 31 c 256,9,10
 51 44 51 44 60 52.5 c 128,-1,11
 69 61 69 61 82 61 c 256,0,1
82 287 m 256,12,13
 95 287 95 287 104 278 c 128,-1,14
 113 269 113 269 113 256 c 256,15,16
 113 243 113 243 104 234 c 128,-1,17
 95 225 95 225 82 225 c 256,18,19
 69 225 69 225 60 234 c 128,-1,20
 51 243 51 243 51 256 c 256,21,22
 51 269 51 269 60 278 c 128,-1,23
 69 287 69 287 82 287 c 256,12,13
EndSplineSet
EndChar

StartChar: semicolon
Encoding: 59 59 20
Width: 184
Flags: W
LayerCount: 2
Fore
SplineSet
92 225 m 256,0,1
 79 225 79 225 70 234 c 128,-1,2
 61 243 61 243 61 256 c 256,3,4
 61 269 61 269 70 278 c 128,-1,5
 79 287 79 287 92 287 c 256,6,7
 105 287 105 287 114 278 c 128,-1,8
 123 269 123 269 123 256 c 256,9,10
 123 243 123 243 114 234 c 128,-1,11
 105 225 105 225 92 225 c 256,0,1
51 -68 m 1,12,13
 74 -63 74 -63 86 -51 c 128,-1,14
 98 -39 98 -39 103.5 -26 c 128,-1,15
 109 -13 109 -13 109 -2.5 c 128,-1,16
 109 8 109 8 106 12 c 1,17,18
 99 0 99 0 82 0 c 0,19,20
 69 0 69 0 60 8.5 c 128,-1,21
 51 17 51 17 51 31 c 256,22,23
 51 44 51 44 61 52.5 c 128,-1,24
 71 61 71 61 87 61 c 0,25,26
 107 61 107 61 120 47.5 c 128,-1,27
 133 34 133 34 133 10 c 0,28,29
 133 -28 133 -28 108 -52.5 c 128,-1,30
 83 -77 83 -77 51 -82 c 1,31,-1
 51 -68 l 1,12,13
EndSplineSet
EndChar

StartChar: less
Encoding: 60 60 21
Width: 409
Flags: W
LayerCount: 2
Fore
SplineSet
358 344 m 1,0,-1
 87 236 l 1,1,-1
 358 127 l 1,2,-1
 358 98 l 1,3,-1
 51 221 l 1,4,-1
 51 250 l 1,5,-1
 358 373 l 1,6,-1
 358 344 l 1,0,-1
EndSplineSet
EndChar

StartChar: equal
Encoding: 61 61 22
Width: 409
Flags: W
LayerCount: 2
Fore
SplineSet
358 193 m 1,0,-1
 358 164 l 1,1,-1
 51 164 l 1,2,-1
 51 193 l 1,3,-1
 358 193 l 1,0,-1
358 307 m 1,4,-1
 358 279 l 1,5,-1
 51 279 l 1,6,-1
 51 307 l 1,7,-1
 358 307 l 1,4,-1
EndSplineSet
EndChar

StartChar: greater
Encoding: 62 62 23
Width: 409
Flags: W
LayerCount: 2
Fore
SplineSet
358 250 m 1,0,-1
 358 221 l 1,1,-1
 51 98 l 1,2,-1
 51 127 l 1,3,-1
 323 236 l 1,4,-1
 51 344 l 1,5,-1
 51 373 l 1,6,-1
 358 250 l 1,0,-1
EndSplineSet
EndChar

StartChar: question
Encoding: 63 63 24
Width: 307
Flags: W
LayerCount: 2
Fore
SplineSet
154 61 m 256,0,1
 167 61 167 61 175.5 52.5 c 128,-1,2
 184 44 184 44 184 31 c 256,3,4
 184 18 184 18 175.5 9 c 128,-1,5
 167 0 167 0 154 0 c 256,6,7
 141 0 141 0 132 8.5 c 128,-1,8
 123 17 123 17 123 31 c 256,9,10
 123 44 123 44 132 52.5 c 128,-1,11
 141 61 141 61 154 61 c 256,0,1
147 102 m 1,12,13
 147 159 147 159 158 192.5 c 128,-1,14
 169 226 169 226 181.5 250.5 c 128,-1,15
 194 275 194 275 204.5 301 c 128,-1,16
 215 327 215 327 215 369 c 0,17,18
 215 412 215 412 190.5 431.5 c 128,-1,19
 166 451 166 451 137 451 c 0,20,21
 111 451 111 451 90.5 438.5 c 128,-1,22
 70 426 70 426 70 402 c 0,23,24
 70 391 70 391 73.5 384.5 c 128,-1,25
 77 378 77 378 81 373 c 128,-1,26
 85 368 85 368 88.5 363 c 128,-1,27
 92 358 92 358 92 351 c 0,28,29
 92 340 92 340 85.5 334 c 128,-1,30
 79 328 79 328 68 328 c 0,31,32
 56 328 56 328 43.5 340 c 128,-1,33
 31 352 31 352 31 379 c 0,34,35
 31 402 31 402 41 419 c 128,-1,36
 51 436 51 436 68 447.5 c 128,-1,37
 85 459 85 459 107.5 465 c 128,-1,38
 130 471 130 471 154 471 c 0,39,40
 187 471 187 471 210 462.5 c 128,-1,41
 233 454 233 454 248 439.5 c 128,-1,42
 263 425 263 425 269.5 406.5 c 128,-1,43
 276 388 276 388 276 369 c 0,44,45
 276 330 276 330 258 302 c 128,-1,46
 240 274 240 274 218.5 246.5 c 128,-1,47
 197 219 197 219 178.5 185.5 c 128,-1,48
 160 152 160 152 160 102 c 1,49,-1
 147 102 l 1,12,13
EndSplineSet
EndChar

StartChar: at
Encoding: 64 64 25
Width: 686
Flags: W
LayerCount: 2
Fore
SplineSet
492 276 m 1,0,-1
 461 127 l 2,1,2
 450 69 450 69 460 44.5 c 128,-1,3
 470 20 470 20 506 20 c 0,4,5
 533 20 533 20 555.5 34 c 128,-1,6
 578 48 578 48 594 71.5 c 128,-1,7
 610 95 610 95 619.5 126.5 c 128,-1,8
 629 158 629 158 629 191 c 0,9,10
 629 235 629 235 612.5 280.5 c 128,-1,11
 596 326 596 326 562.5 362 c 128,-1,12
 529 398 529 398 478 421 c 128,-1,13
 427 444 427 444 358 444 c 0,14,15
 296 444 296 444 241 420.5 c 128,-1,16
 186 397 186 397 145 356 c 128,-1,17
 104 315 104 315 80.5 260.5 c 128,-1,18
 57 206 57 206 57 143 c 256,19,20
 57 81 57 81 80.5 26 c 128,-1,21
 104 -29 104 -29 145 -70 c 128,-1,22
 186 -111 186 -111 241 -134.5 c 128,-1,23
 296 -158 296 -158 358 -158 c 0,24,25
 432 -158 432 -158 493.5 -127 c 128,-1,26
 555 -96 555 -96 597 -41 c 1,27,-1
 631 -41 l 1,28,29
 586 -107 586 -107 514.5 -145.5 c 128,-1,30
 443 -184 443 -184 358 -184 c 0,31,32
 290 -184 290 -184 230.5 -158.5 c 128,-1,33
 171 -133 171 -133 126.5 -88.5 c 128,-1,34
 82 -44 82 -44 56.5 16 c 128,-1,35
 31 76 31 76 31 143 c 256,36,37
 31 211 31 211 56.5 271 c 128,-1,38
 82 331 82 331 126.5 375.5 c 128,-1,39
 171 420 171 420 231 445.5 c 128,-1,40
 291 471 291 471 358 471 c 0,41,42
 435 471 435 471 491 445.5 c 128,-1,43
 547 420 547 420 584 379.5 c 128,-1,44
 621 339 621 339 638 289.5 c 128,-1,45
 655 240 655 240 655 191 c 0,46,47
 655 153 655 153 645 118.5 c 128,-1,48
 635 84 635 84 615.5 58 c 128,-1,49
 596 32 596 32 568.5 16 c 128,-1,50
 541 0 541 0 506 0 c 0,51,52
 444 0 444 0 415 50 c 1,53,54
 392 26 392 26 363.5 13 c 128,-1,55
 335 0 335 0 303 0 c 0,56,57
 274 0 274 0 251.5 11 c 128,-1,58
 229 22 229 22 215.5 40.5 c 128,-1,59
 202 59 202 59 197.5 86 c 128,-1,60
 193 113 193 113 199 143 c 256,61,62
 205 174 205 174 220.5 200.5 c 128,-1,63
 236 227 236 227 257.5 246 c 128,-1,64
 279 265 279 265 305.5 276 c 128,-1,65
 332 287 332 287 360 287 c 0,66,67
 399 287 399 287 428 266 c 1,68,-1
 453 276 l 1,69,-1
 492 276 l 1,0,-1
307 20 m 256,70,71
 346 20 346 20 367.5 48.5 c 128,-1,72
 389 77 389 77 403 143 c 0,73,74
 416 210 416 210 405.5 238 c 128,-1,75
 395 266 395 266 356 266 c 256,76,77
 317 266 317 266 295 238 c 128,-1,78
 273 210 273 210 260 143 c 0,79,80
 246 76 246 76 257 48 c 128,-1,81
 268 20 268 20 307 20 c 256,70,71
EndSplineSet
EndChar

StartChar: A
Encoding: 65 65 26
Width: 616
Flags: W
LayerCount: 2
Fore
SplineSet
482 614 m 1,0,-1
 482 594 l 1,1,-1
 400 594 l 2,2,3
 381 594 381 594 369 591.5 c 128,-1,4
 357 589 357 589 350.5 582 c 128,-1,5
 344 575 344 575 341.5 563.5 c 128,-1,6
 339 552 339 552 339 532 c 2,7,-1
 339 410 l 1,8,-1
 591 410 l 1,9,-1
 591 395 l 1,10,11
 576 392 576 392 566.5 388.5 c 128,-1,12
 557 385 557 385 552 378.5 c 128,-1,13
 547 372 547 372 545.5 360.5 c 128,-1,14
 544 349 544 349 544 332 c 2,15,-1
 544 78 l 2,16,17
 544 61 544 61 545.5 49.5 c 128,-1,18
 547 38 547 38 552 31.5 c 128,-1,19
 557 25 557 25 566 21 c 128,-1,20
 575 17 575 17 591 14 c 1,21,-1
 591 0 l 1,22,-1
 482 0 l 1,23,-1
 482 389 l 1,24,-1
 339 389 l 1,25,-1
 339 78 l 2,26,27
 339 61 339 61 340.5 49.5 c 128,-1,28
 342 38 342 38 347 31.5 c 128,-1,29
 352 25 352 25 361.5 21 c 128,-1,30
 371 17 371 17 386 14 c 1,31,-1
 386 0 l 1,32,-1
 278 0 l 1,33,-1
 278 389 l 1,34,-1
 134 389 l 1,35,-1
 134 78 l 2,36,37
 134 61 134 61 135.5 49.5 c 128,-1,38
 137 38 137 38 142 31.5 c 128,-1,39
 147 25 147 25 156.5 21 c 128,-1,40
 166 17 166 17 181 14 c 1,41,-1
 181 0 l 1,42,-1
 26 0 l 1,43,-1
 26 14 l 1,44,45
 41 17 41 17 50 21 c 128,-1,46
 59 25 59 25 64.5 31.5 c 128,-1,47
 70 38 70 38 71.5 49 c 128,-1,48
 73 60 73 60 73 78 c 2,49,-1
 73 332 l 2,50,51
 73 349 73 349 71.5 360.5 c 128,-1,52
 70 372 70 372 64.5 378.5 c 128,-1,53
 59 385 59 385 50 388.5 c 128,-1,54
 41 392 41 392 26 395 c 1,55,-1
 26 410 l 1,56,-1
 278 410 l 1,57,-1
 278 532 l 2,58,59
 278 570 278 570 266 582 c 128,-1,60
 254 594 254 594 216 594 c 2,61,-1
 134 594 l 1,62,-1
 134 614 l 1,63,-1
 482 614 l 1,0,-1
EndSplineSet
EndChar

StartChar: B
Encoding: 66 66 27
Width: 616
Flags: W
LayerCount: 2
Fore
SplineSet
278 244 m 1,0,-1
 278 614 l 1,1,-1
 386 614 l 1,2,-1
 386 600 l 1,3,4
 371 597 371 597 361.5 593.5 c 128,-1,5
 352 590 352 590 347 583.5 c 128,-1,6
 342 577 342 577 340.5 565.5 c 128,-1,7
 339 554 339 554 339 537 c 2,8,-1
 339 252 l 1,9,-1
 482 270 l 1,10,-1
 482 614 l 1,11,-1
 591 614 l 1,12,-1
 591 600 l 1,13,14
 576 597 576 597 566.5 593.5 c 128,-1,15
 557 590 557 590 552 583.5 c 128,-1,16
 547 577 547 577 545.5 565.5 c 128,-1,17
 544 554 544 554 544 537 c 2,18,-1
 544 342 l 2,19,20
 544 325 544 325 545.5 313.5 c 128,-1,21
 547 302 547 302 552 295.5 c 128,-1,22
 557 289 557 289 566 285.5 c 128,-1,23
 575 282 575 282 591 279 c 1,24,-1
 591 264 l 1,25,-1
 134 205 l 1,26,27
 134 170 134 170 125.5 136 c 128,-1,28
 117 102 117 102 102 82 c 1,29,30
 137 105 137 105 168.5 114 c 128,-1,31
 200 123 200 123 230 123 c 0,32,33
 276 123 276 123 313.5 107 c 128,-1,34
 351 91 351 91 384.5 72.5 c 128,-1,35
 418 54 418 54 448 38.5 c 128,-1,36
 478 23 478 23 511 23 c 0,37,38
 539 23 539 23 556.5 38.5 c 128,-1,39
 574 54 574 54 568 79 c 1,40,41
 557 62 557 62 538 61 c 0,42,43
 524 61 524 61 514.5 70 c 128,-1,44
 505 79 505 79 505 92 c 256,45,46
 505 105 505 105 514 114 c 128,-1,47
 523 123 523 123 540 123 c 0,48,49
 563 123 563 123 577 110 c 128,-1,50
 591 97 591 97 591 71 c 0,51,52
 591 58 591 58 586.5 45 c 128,-1,53
 582 32 582 32 569.5 22 c 128,-1,54
 557 12 557 12 535 6 c 128,-1,55
 513 0 513 0 478 0 c 0,56,57
 431 0 431 0 396 13 c 128,-1,58
 361 26 361 26 330 41 c 128,-1,59
 299 56 299 56 267.5 69 c 128,-1,60
 236 82 236 82 196 82 c 0,61,62
 162 82 162 82 123 62.5 c 128,-1,63
 84 43 84 43 44 0 c 1,64,-1
 26 18 l 1,65,66
 33 25 33 25 41 35.5 c 128,-1,67
 49 46 49 46 56 62.5 c 128,-1,68
 63 79 63 79 68 102 c 128,-1,69
 73 125 73 125 73 159 c 2,70,-1
 73 537 l 2,71,72
 73 554 73 554 71.5 565.5 c 128,-1,73
 70 577 70 577 64.5 583.5 c 128,-1,74
 59 590 59 590 50 593.5 c 128,-1,75
 41 597 41 597 26 600 c 1,76,-1
 26 614 l 1,77,-1
 181 614 l 1,78,-1
 181 600 l 1,79,80
 166 597 166 597 156.5 593.5 c 128,-1,81
 147 590 147 590 142 583.5 c 128,-1,82
 137 577 137 577 135.5 565.5 c 128,-1,83
 134 554 134 554 134 537 c 2,84,-1
 134 225 l 1,85,-1
 278 244 l 1,0,-1
EndSplineSet
EndChar

StartChar: C
Encoding: 67 67 28
Width: 647
Flags: W
LayerCount: 2
Fore
SplineSet
129 594 m 1,0,-1
 129 471 l 2,1,2
 129 404 129 404 145.5 376 c 128,-1,3
 162 348 162 348 201 348 c 256,4,5
 240 348 240 348 256 376 c 128,-1,6
 272 404 272 404 272 471 c 2,7,-1
 272 594 l 1,8,-1
 129 594 l 1,0,-1
334 297 m 2,9,10
 334 226 334 226 337.5 179 c 128,-1,11
 341 132 341 132 350 101.5 c 128,-1,12
 359 71 359 71 375 52.5 c 128,-1,13
 391 34 391 34 416 20 c 1,14,15
 463 46 463 46 489.5 92 c 128,-1,16
 516 138 516 138 528.5 193 c 128,-1,17
 541 248 541 248 541.5 305 c 128,-1,18
 542 362 542 362 537 410.5 c 128,-1,19
 532 459 532 459 526 492 c 128,-1,20
 520 525 520 525 518 532 c 0,21,22
 507 567 507 567 492 582.5 c 128,-1,23
 477 598 477 598 451 600 c 1,24,-1
 451 614 l 1,25,-1
 627 614 l 1,26,-1
 627 600 l 1,27,28
 610 597 610 597 600.5 593 c 128,-1,29
 591 589 591 589 587 581.5 c 128,-1,30
 583 574 583 574 582 562.5 c 128,-1,31
 581 551 581 551 580 532 c 0,32,33
 577 488 577 488 577 437 c 128,-1,34
 577 386 577 386 573.5 333.5 c 128,-1,35
 570 281 570 281 562 229.5 c 128,-1,36
 554 178 554 178 536.5 133.5 c 128,-1,37
 519 89 519 89 490 54 c 128,-1,38
 461 19 461 19 416 0 c 1,39,40
 368 22 368 22 340 54 c 128,-1,41
 312 86 312 86 297.5 125.5 c 128,-1,42
 283 165 283 165 278 208.5 c 128,-1,43
 273 252 273 252 272 297 c 2,44,-1
 272 348 l 1,45,46
 242 328 242 328 201 328 c 0,47,48
 172 328 172 328 147.5 338.5 c 128,-1,49
 123 349 123 349 105.5 368 c 128,-1,50
 88 387 88 387 78 413.5 c 128,-1,51
 68 440 68 440 68 471 c 2,52,-1
 68 537 l 2,53,54
 68 554 68 554 66.5 565.5 c 128,-1,55
 65 577 65 577 59.5 583.5 c 128,-1,56
 54 590 54 590 45 593.5 c 128,-1,57
 36 597 36 597 20 600 c 1,58,-1
 20 614 l 1,59,-1
 334 614 l 1,60,-1
 334 297 l 2,9,10
EndSplineSet
EndChar

StartChar: D
Encoding: 68 68 29
Width: 686
Flags: W
LayerCount: 2
Fore
SplineSet
292 0 m 1,0,-1
 271 0 l 1,1,-1
 230 30 l 1,2,3
 198 0 198 0 159 0 c 0,4,5
 130 0 130 0 105.5 15.5 c 128,-1,6
 81 31 81 31 63.5 58 c 128,-1,7
 46 85 46 85 36 122.5 c 128,-1,8
 26 160 26 160 26 205 c 256,9,10
 26 250 26 250 36 287.5 c 128,-1,11
 46 325 46 325 63.5 352 c 128,-1,12
 81 379 81 379 105.5 394.5 c 128,-1,13
 130 410 130 410 159 410 c 2,14,-1
 230 410 l 1,15,-1
 230 537 l 2,16,17
 230 554 230 554 228.5 565.5 c 128,-1,18
 227 577 227 577 222 583.5 c 128,-1,19
 217 590 217 590 208 593.5 c 128,-1,20
 199 597 199 597 183 600 c 1,21,-1
 183 614 l 1,22,-1
 503 614 l 1,23,-1
 503 600 l 1,24,25
 488 597 488 597 478.5 593.5 c 128,-1,26
 469 590 469 590 464 583.5 c 128,-1,27
 459 577 459 577 457.5 565.5 c 128,-1,28
 456 554 456 554 456 537 c 2,29,-1
 456 410 l 1,30,-1
 527 410 l 2,31,32
 556 410 556 410 580.5 394.5 c 128,-1,33
 605 379 605 379 622.5 352 c 128,-1,34
 640 325 640 325 650 287.5 c 128,-1,35
 660 250 660 250 660 205 c 256,36,37
 660 160 660 160 650 122.5 c 128,-1,38
 640 85 640 85 622.5 58 c 128,-1,39
 605 31 605 31 580.5 15.5 c 128,-1,40
 556 0 556 0 527 0 c 0,41,42
 487 0 487 0 456 30 c 1,43,-1
 415 0 l 1,44,-1
 394 0 l 1,45,-1
 394 594 l 1,46,-1
 292 594 l 1,47,-1
 292 0 l 1,0,-1
159 389 m 2,48,49
 120 389 120 389 103.5 347 c 128,-1,50
 87 305 87 305 87 205 c 0,51,52
 87 106 87 106 103.5 63 c 128,-1,53
 120 20 120 20 159 20 c 256,54,55
 198 20 198 20 214 62.5 c 128,-1,56
 230 105 230 105 230 205 c 2,57,-1
 230 389 l 1,58,-1
 159 389 l 2,48,49
456 205 m 2,59,60
 456 106 456 106 472 63 c 128,-1,61
 488 20 488 20 527 20 c 256,62,63
 566 20 566 20 582.5 62.5 c 128,-1,64
 599 105 599 105 599 205 c 0,65,66
 599 305 599 305 582.5 347 c 128,-1,67
 566 389 566 389 527 389 c 2,68,-1
 456 389 l 1,69,-1
 456 205 l 2,59,60
EndSplineSet
EndChar

StartChar: E
Encoding: 69 69 30
Width: 512
Flags: W
LayerCount: 2
Fore
SplineSet
200 307 m 1,0,-1
 425 307 l 1,1,2
 425 370 425 370 408.5 423 c 128,-1,3
 392 476 392 476 363.5 514 c 128,-1,4
 335 552 335 552 295.5 573 c 128,-1,5
 256 594 256 594 210 594 c 0,6,7
 178 594 178 594 151.5 582 c 128,-1,8
 125 570 125 570 104.5 552 c 128,-1,9
 84 534 84 534 70 509.5 c 128,-1,10
 56 485 56 485 50 461 c 1,11,-1
 36 461 l 1,12,-1
 36 614 l 1,13,-1
 50 614 l 1,14,15
 59 592 59 592 67 583.5 c 128,-1,16
 75 575 75 575 83 575 c 0,17,18
 92 575 92 575 103.5 581.5 c 128,-1,19
 115 588 115 588 131.5 595 c 128,-1,20
 148 602 148 602 172.5 608 c 128,-1,21
 197 614 197 614 230 614 c 0,22,23
 285 614 285 614 332.5 591 c 128,-1,24
 380 568 380 568 414.5 527 c 128,-1,25
 449 486 449 486 467.5 430 c 128,-1,26
 486 374 486 374 486 307 c 256,27,28
 486 240 486 240 467.5 184 c 128,-1,29
 449 128 449 128 414.5 87 c 128,-1,30
 380 46 380 46 333 23 c 128,-1,31
 286 0 286 0 230 0 c 0,32,33
 188 0 188 0 156.5 11.5 c 128,-1,34
 125 23 125 23 103 36.5 c 128,-1,35
 81 50 81 50 69 62 c 128,-1,36
 57 74 57 74 56 76 c 2,37,-1
 71 88 l 1,38,39
 110 51 110 51 145.5 35.5 c 128,-1,40
 181 20 181 20 218 20 c 0,41,42
 270 20 270 20 309 48.5 c 128,-1,43
 348 77 348 77 373.5 118.5 c 128,-1,44
 399 160 399 160 412 205.5 c 128,-1,45
 425 251 425 251 425 287 c 1,46,-1
 200 287 l 1,47,-1
 200 307 l 1,0,-1
EndSplineSet
EndChar

StartChar: F
Encoding: 70 70 31
Width: 655
Flags: W
LayerCount: 2
Fore
SplineSet
487 614 m 1,0,-1
 487 600 l 1,1,2
 472 597 472 597 463 593.5 c 128,-1,3
 454 590 454 590 448.5 583.5 c 128,-1,4
 443 577 443 577 441.5 565.5 c 128,-1,5
 440 554 440 554 440 537 c 2,6,-1
 440 461 l 1,7,8
 469 461 469 461 501.5 453.5 c 128,-1,9
 534 446 534 446 561.5 429 c 128,-1,10
 589 412 589 412 607 382 c 128,-1,11
 625 352 625 352 625 307 c 256,12,13
 625 262 625 262 607 233 c 128,-1,14
 589 204 589 204 561.5 186 c 128,-1,15
 534 168 534 168 501.5 161 c 128,-1,16
 469 154 469 154 440 154 c 1,17,-1
 440 78 l 2,18,19
 440 61 440 61 441.5 49.5 c 128,-1,20
 443 38 443 38 448.5 31.5 c 128,-1,21
 454 25 454 25 463 21 c 128,-1,22
 472 17 472 17 487 14 c 1,23,-1
 487 0 l 1,24,-1
 168 0 l 1,25,-1
 168 14 l 1,26,27
 183 17 183 17 192.5 21 c 128,-1,28
 202 25 202 25 207 31.5 c 128,-1,29
 212 38 212 38 213.5 49 c 128,-1,30
 215 60 215 60 215 78 c 2,31,-1
 215 154 l 1,32,33
 186 154 186 154 154 161 c 128,-1,34
 122 168 122 168 94.5 186 c 128,-1,35
 67 204 67 204 49 233 c 128,-1,36
 31 262 31 262 31 307 c 256,37,38
 31 352 31 352 49 382 c 128,-1,39
 67 412 67 412 94.5 429 c 128,-1,40
 122 446 122 446 154 453.5 c 128,-1,41
 186 461 186 461 215 461 c 1,42,-1
 215 537 l 2,43,44
 215 554 215 554 213.5 565.5 c 128,-1,45
 212 577 212 577 207 583.5 c 128,-1,46
 202 590 202 590 192.5 593.5 c 128,-1,47
 183 597 183 597 168 600 c 1,48,-1
 168 614 l 1,49,-1
 487 614 l 1,0,-1
276 20 m 1,50,-1
 379 20 l 1,51,-1
 379 594 l 1,52,-1
 276 594 l 1,53,-1
 276 20 l 1,50,-1
92 307 m 0,54,55
 92 258 92 258 104 231 c 128,-1,56
 116 204 116 204 134.5 191 c 128,-1,57
 153 178 153 178 174.5 176 c 128,-1,58
 196 174 196 174 215 174 c 1,59,-1
 215 440 l 1,60,61
 196 440 196 440 174.5 438 c 128,-1,62
 153 436 153 436 134.5 424 c 128,-1,63
 116 412 116 412 104 384.5 c 128,-1,64
 92 357 92 357 92 307 c 0,54,55
563 307 m 0,65,66
 563 357 563 357 551.5 384.5 c 128,-1,67
 540 412 540 412 521.5 424 c 128,-1,68
 503 436 503 436 481.5 438 c 128,-1,69
 460 440 460 440 440 440 c 1,70,-1
 440 174 l 1,71,72
 459 174 459 174 481 176 c 128,-1,73
 503 178 503 178 521.5 191 c 128,-1,74
 540 204 540 204 551.5 231 c 128,-1,75
 563 258 563 258 563 307 c 0,65,66
EndSplineSet
EndChar

StartChar: G
Encoding: 71 71 32
Width: 742
Flags: W
LayerCount: 2
Fore
SplineSet
195 614 m 256,0,1
 231 614 231 614 261 595.5 c 128,-1,2
 291 577 291 577 312.5 542.5 c 128,-1,3
 334 508 334 508 346 461 c 128,-1,4
 358 414 358 414 358 358 c 0,5,6
 358 275 358 275 340.5 195 c 128,-1,7
 323 115 323 115 284 47 c 1,8,-1
 476 234 l 2,9,10
 500 257 500 257 525 272 c 128,-1,11
 550 287 550 287 584 287 c 0,12,13
 613 287 613 287 637.5 276 c 128,-1,14
 662 265 662 265 679 246 c 128,-1,15
 696 227 696 227 706.5 200.5 c 128,-1,16
 717 174 717 174 717 143 c 256,17,18
 717 112 717 112 706.5 85.5 c 128,-1,19
 696 59 696 59 679 40.5 c 128,-1,20
 662 22 662 22 637 11 c 128,-1,21
 612 0 612 0 584 0 c 256,22,23
 555 0 555 0 530.5 11 c 128,-1,24
 506 22 506 22 488.5 40.5 c 128,-1,25
 471 59 471 59 461 86 c 128,-1,26
 451 113 451 113 451 143 c 0,27,28
 451 159 451 159 452.5 169.5 c 128,-1,29
 454 180 454 180 456 185 c 1,30,-1
 106 -154 l 1,31,-1
 92 -138 l 1,32,33
 116 -115 116 -115 139.5 -92.5 c 128,-1,34
 163 -70 163 -70 186 -39.5 c 128,-1,35
 209 -9 209 -9 229.5 31 c 128,-1,36
 250 71 250 71 267 127 c 1,37,38
 234 102 234 102 195 102 c 0,39,40
 159 102 159 102 128.5 121 c 128,-1,41
 98 140 98 140 76.5 174.5 c 128,-1,42
 55 209 55 209 43 256 c 128,-1,43
 31 303 31 303 31 358 c 256,44,45
 31 413 31 413 43 460.5 c 128,-1,46
 55 508 55 508 76.5 542.5 c 128,-1,47
 98 577 98 577 128.5 595.5 c 128,-1,48
 159 614 159 614 195 614 c 256,0,1
195 594 m 0,49,50
 141 594 141 594 116.5 539.5 c 128,-1,51
 92 485 92 485 92 358 c 0,52,53
 92 232 92 232 116 177.5 c 128,-1,54
 140 123 140 123 195 123 c 0,55,56
 250 123 250 123 273.5 177.5 c 128,-1,57
 297 232 297 232 297 358 c 0,58,59
 297 485 297 485 273.5 539.5 c 128,-1,60
 250 594 250 594 195 594 c 0,49,50
584 20 m 256,61,62
 623 20 623 20 639 48.5 c 128,-1,63
 655 77 655 77 655 143 c 256,64,65
 655 210 655 210 639 238 c 128,-1,66
 623 266 623 266 584 266 c 256,67,68
 545 266 545 266 528.5 238 c 128,-1,69
 512 210 512 210 512 143 c 256,70,71
 512 76 512 76 528.5 48 c 128,-1,72
 545 20 545 20 584 20 c 256,61,62
EndSplineSet
EndChar

StartChar: H
Encoding: 72 72 33
Width: 668
Flags: W
LayerCount: 2
Fore
SplineSet
285 614 m 1,0,1
 285 470 285 470 259.5 370 c 128,-1,2
 234 270 234 270 201 205.5 c 128,-1,3
 168 141 168 141 134.5 107 c 128,-1,4
 101 73 101 73 84 60 c 1,5,-1
 356 223 l 2,6,7
 405 253 405 253 440 270 c 128,-1,8
 475 287 475 287 510 287 c 0,9,10
 539 287 539 287 563.5 276 c 128,-1,11
 588 265 588 265 605.5 246 c 128,-1,12
 623 227 623 227 633 200.5 c 128,-1,13
 643 174 643 174 643 143 c 256,14,15
 643 112 643 112 633 85.5 c 128,-1,16
 623 59 623 59 605.5 40.5 c 128,-1,17
 588 22 588 22 563.5 11 c 128,-1,18
 539 0 539 0 510 0 c 256,19,20
 481 0 481 0 456.5 11 c 128,-1,21
 432 22 432 22 414.5 40.5 c 128,-1,22
 397 59 397 59 387 86 c 128,-1,23
 377 113 377 113 377 143 c 0,24,25
 377 173 377 173 384.5 194.5 c 128,-1,26
 392 216 392 216 400 227 c 1,27,-1
 20 0 l 1,28,-1
 10 16 l 1,29,30
 58 47 58 47 97.5 101 c 128,-1,31
 137 155 137 155 165 228.5 c 128,-1,32
 193 302 193 302 208 394 c 128,-1,33
 223 486 223 486 223 594 c 1,34,-1
 59 594 l 1,35,-1
 59 614 l 1,36,-1
 285 614 l 1,0,1
510 20 m 256,37,38
 549 20 549 20 565.5 48.5 c 128,-1,39
 582 77 582 77 582 143 c 256,40,41
 582 210 582 210 565.5 238 c 128,-1,42
 549 266 549 266 510 266 c 256,43,44
 471 266 471 266 454.5 238 c 128,-1,45
 438 210 438 210 438 143 c 256,46,47
 438 76 438 76 454.5 48 c 128,-1,48
 471 20 471 20 510 20 c 256,37,38
EndSplineSet
EndChar

StartChar: I
Encoding: 73 73 34
Width: 432
Flags: W
LayerCount: 2
Fore
SplineSet
26 0 m 1,0,-1
 26 14 l 1,1,2
 41 17 41 17 50 21 c 128,-1,3
 59 25 59 25 64.5 31.5 c 128,-1,4
 70 38 70 38 71.5 49 c 128,-1,5
 73 60 73 60 73 78 c 2,6,-1
 73 102 l 2,7,8
 73 155 73 155 75 185.5 c 128,-1,9
 77 216 77 216 89 235.5 c 128,-1,10
 101 255 101 255 128.5 269.5 c 128,-1,11
 156 284 156 284 206 307 c 1,12,13
 156 330 156 330 128.5 344.5 c 128,-1,14
 101 359 101 359 89 378.5 c 128,-1,15
 77 398 77 398 75 428 c 128,-1,16
 73 458 73 458 73 512 c 2,17,-1
 73 537 l 2,18,19
 73 554 73 554 71.5 565.5 c 128,-1,20
 70 577 70 577 64.5 583.5 c 128,-1,21
 59 590 59 590 50 593.5 c 128,-1,22
 41 597 41 597 26 600 c 1,23,-1
 26 614 l 1,24,-1
 407 614 l 1,25,-1
 407 600 l 1,26,27
 392 597 392 597 382.5 593.5 c 128,-1,28
 373 590 373 590 367.5 583.5 c 128,-1,29
 362 577 362 577 360.5 565.5 c 128,-1,30
 359 554 359 554 359 537 c 2,31,-1
 359 512 l 2,32,33
 359 458 359 458 357 428 c 128,-1,34
 355 398 355 398 343 378.5 c 128,-1,35
 331 359 331 359 303.5 344.5 c 128,-1,36
 276 330 276 330 226 307 c 1,37,38
 276 283 276 283 303.5 269 c 128,-1,39
 331 255 331 255 343 235.5 c 128,-1,40
 355 216 355 216 357 186 c 128,-1,41
 359 156 359 156 359 102 c 2,42,-1
 359 78 l 2,43,44
 359 61 359 61 360.5 49.5 c 128,-1,45
 362 38 362 38 367.5 31.5 c 128,-1,46
 373 25 373 25 382 21 c 128,-1,47
 391 17 391 17 407 14 c 1,48,-1
 407 0 l 1,49,-1
 26 0 l 1,0,-1
134 512 m 2,50,51
 134 458 134 458 135 428 c 128,-1,52
 136 398 136 398 144 379.5 c 128,-1,53
 152 361 152 361 168.5 348.5 c 128,-1,54
 185 336 185 336 216 317 c 1,55,56
 247 336 247 336 263.5 348.5 c 128,-1,57
 280 361 280 361 287.5 379.5 c 128,-1,58
 295 398 295 398 296.5 428 c 128,-1,59
 298 458 298 458 298 512 c 2,60,-1
 298 594 l 1,61,-1
 134 594 l 1,62,-1
 134 512 l 2,50,51
298 20 m 1,63,-1
 298 102 l 2,64,65
 298 155 298 155 296.5 185.5 c 128,-1,66
 295 216 295 216 287.5 234.5 c 128,-1,67
 280 253 280 253 263.5 265.5 c 128,-1,68
 247 278 247 278 216 297 c 1,69,70
 185 278 185 278 168.5 265.5 c 128,-1,71
 152 253 152 253 144 234.5 c 128,-1,72
 136 216 136 216 135 186 c 128,-1,73
 134 156 134 156 134 102 c 2,74,-1
 134 20 l 1,75,-1
 298 20 l 1,63,-1
EndSplineSet
EndChar

StartChar: J
Encoding: 74 74 35
Width: 794
Flags: W
LayerCount: 2
Fore
SplineSet
134 614 m 1,0,-1
 134 328 l 1,1,-1
 278 328 l 1,2,-1
 278 537 l 2,3,4
 278 554 278 554 276 565.5 c 128,-1,5
 274 577 274 577 269 583.5 c 128,-1,6
 264 590 264 590 255 593.5 c 128,-1,7
 246 597 246 597 230 600 c 1,8,-1
 230 614 l 1,9,-1
 339 614 l 1,10,-1
 339 328 l 1,11,-1
 482 328 l 1,12,-1
 482 537 l 2,13,14
 482 554 482 554 480.5 565.5 c 128,-1,15
 479 577 479 577 474 583.5 c 128,-1,16
 469 590 469 590 460 593.5 c 128,-1,17
 451 597 451 597 435 600 c 1,18,-1
 435 614 l 1,19,-1
 759 614 l 1,20,-1
 759 492 l 2,21,22
 759 452 759 452 746.5 418.5 c 128,-1,23
 734 385 734 385 711 360.5 c 128,-1,24
 688 336 688 336 653 321.5 c 128,-1,25
 618 307 618 307 574 307 c 2,26,-1
 544 307 l 1,27,-1
 544 78 l 2,28,29
 544 61 544 61 545.5 49.5 c 128,-1,30
 547 38 547 38 552 31.5 c 128,-1,31
 557 25 557 25 566 21 c 128,-1,32
 575 17 575 17 591 14 c 1,33,-1
 591 0 l 1,34,-1
 482 0 l 1,35,-1
 482 307 l 1,36,-1
 339 307 l 1,37,-1
 339 78 l 2,38,39
 339 61 339 61 340.5 49.5 c 128,-1,40
 342 38 342 38 347 31.5 c 128,-1,41
 352 25 352 25 361.5 21 c 128,-1,42
 371 17 371 17 386 14 c 1,43,-1
 386 0 l 1,44,-1
 278 0 l 1,45,-1
 278 307 l 1,46,-1
 134 307 l 1,47,-1
 134 78 l 2,48,49
 134 61 134 61 135.5 49.5 c 128,-1,50
 137 38 137 38 142 31.5 c 128,-1,51
 147 25 147 25 156.5 21 c 128,-1,52
 166 17 166 17 181 14 c 1,53,-1
 181 0 l 1,54,-1
 26 0 l 1,55,-1
 26 14 l 1,56,57
 41 17 41 17 50 21 c 128,-1,58
 59 25 59 25 64.5 31.5 c 128,-1,59
 70 38 70 38 71.5 49 c 128,-1,60
 73 60 73 60 73 78 c 2,61,-1
 73 537 l 2,62,63
 73 554 73 554 71.5 565.5 c 128,-1,64
 70 577 70 577 64.5 583.5 c 128,-1,65
 59 590 59 590 50 593.5 c 128,-1,66
 41 597 41 597 26 600 c 1,67,-1
 26 614 l 1,68,-1
 134 614 l 1,0,-1
544 328 m 1,69,-1
 574 328 l 2,70,71
 614 328 614 328 638.5 344.5 c 128,-1,72
 663 361 663 361 675.5 386.5 c 128,-1,73
 688 412 688 412 692.5 440 c 128,-1,74
 697 468 697 468 697 492 c 2,75,-1
 697 594 l 1,76,-1
 544 594 l 1,77,-1
 544 328 l 1,69,-1
EndSplineSet
EndChar

StartChar: K
Encoding: 75 75 36
Width: 507
Flags: W
LayerCount: 2
Fore
SplineSet
379 614 m 1,0,-1
 379 594 l 1,1,-1
 276 594 l 1,2,-1
 276 573 l 2,3,4
 276 507 276 507 257.5 449.5 c 128,-1,5
 239 392 239 392 209 346 c 128,-1,6
 179 300 179 300 142.5 269 c 128,-1,7
 106 238 106 238 72 225 c 1,8,-1
 440 225 l 1,9,-1
 440 78 l 2,10,11
 440 61 440 61 441.5 49.5 c 128,-1,12
 443 38 443 38 448.5 31.5 c 128,-1,13
 454 25 454 25 463 21 c 128,-1,14
 472 17 472 17 487 14 c 1,15,-1
 487 0 l 1,16,-1
 332 0 l 1,17,-1
 332 14 l 1,18,19
 347 17 347 17 356.5 21 c 128,-1,20
 366 25 366 25 371 31.5 c 128,-1,21
 376 38 376 38 377.5 49 c 128,-1,22
 379 60 379 60 379 78 c 2,23,-1
 379 205 l 1,24,-1
 10 205 l 1,25,-1
 10 225 l 1,26,27
 47 225 47 225 84 250.5 c 128,-1,28
 121 276 121 276 150 322.5 c 128,-1,29
 179 369 179 369 197 433 c 128,-1,30
 215 497 215 497 215 573 c 2,31,-1
 215 594 l 1,32,-1
 113 594 l 1,33,-1
 113 614 l 1,34,-1
 379 614 l 1,0,-1
EndSplineSet
EndChar

StartChar: L
Encoding: 76 76 37
Width: 696
Flags: W
LayerCount: 2
Fore
SplineSet
297 492 m 1,0,-1
 399 492 l 1,1,-1
 399 645 l 1,2,-1
 297 645 l 1,3,-1
 297 492 l 1,0,-1
508 666 m 1,4,-1
 508 651 l 1,5,6
 493 648 493 648 483.5 644.5 c 128,-1,7
 474 641 474 641 469 634.5 c 128,-1,8
 464 628 464 628 462.5 616.5 c 128,-1,9
 461 605 461 605 461 588 c 2,10,-1
 461 492 l 1,11,-1
 666 492 l 1,12,-1
 666 471 l 1,13,-1
 655 471 l 2,14,15
 635 471 635 471 622.5 462.5 c 128,-1,16
 610 454 610 454 618 442 c 0,17,18
 640 411 640 411 653 362.5 c 128,-1,19
 666 314 666 314 666 246 c 0,20,21
 666 191 666 191 656.5 145 c 128,-1,22
 647 99 647 99 629.5 67 c 128,-1,23
 612 35 612 35 587.5 17.5 c 128,-1,24
 563 0 563 0 532 0 c 256,25,26
 501 0 501 0 477 17.5 c 128,-1,27
 453 35 453 35 435.5 67 c 128,-1,28
 418 99 418 99 408.5 144.5 c 128,-1,29
 399 190 399 190 399 246 c 2,30,-1
 399 471 l 1,31,-1
 297 471 l 1,32,-1
 297 246 l 2,33,34
 297 191 297 191 288 145 c 128,-1,35
 279 99 279 99 261.5 67 c 128,-1,36
 244 35 244 35 219.5 17.5 c 128,-1,37
 195 0 195 0 164 0 c 256,38,39
 133 0 133 0 108.5 17.5 c 128,-1,40
 84 35 84 35 66.5 67 c 128,-1,41
 49 99 49 99 40 144.5 c 128,-1,42
 31 190 31 190 31 246 c 0,43,44
 31 315 31 315 43.5 363.5 c 128,-1,45
 56 412 56 412 78 442 c 0,46,47
 86 453 86 453 73.5 462 c 128,-1,48
 61 471 61 471 41 471 c 2,49,-1
 31 471 l 1,50,-1
 31 492 l 1,51,-1
 236 492 l 1,52,-1
 236 588 l 2,53,54
 236 605 236 605 234 616.5 c 128,-1,55
 232 628 232 628 227 634.5 c 128,-1,56
 222 641 222 641 213 644.5 c 128,-1,57
 204 648 204 648 188 651 c 1,58,-1
 188 666 l 1,59,-1
 508 666 l 1,4,-1
164 20 m 256,60,61
 184 20 184 20 198 32 c 128,-1,62
 212 44 212 44 220 70 c 128,-1,63
 228 96 228 96 232 139 c 128,-1,64
 236 182 236 182 236 246 c 2,65,-1
 236 471 l 1,66,-1
 164 471 l 2,67,68
 144 471 144 471 130.5 460 c 128,-1,69
 117 449 117 449 108 422 c 128,-1,70
 99 395 99 395 95.5 352 c 128,-1,71
 92 309 92 309 92 246 c 256,72,73
 92 183 92 183 95.5 139.5 c 128,-1,74
 99 96 99 96 108 70 c 128,-1,75
 117 44 117 44 130.5 32 c 128,-1,76
 144 20 144 20 164 20 c 256,60,61
532 20 m 0,77,78
 551 20 551 20 565.5 32 c 128,-1,79
 580 44 580 44 588.5 70 c 128,-1,80
 597 96 597 96 600.5 139 c 128,-1,81
 604 182 604 182 604 246 c 256,82,83
 604 309 604 309 600.5 352 c 128,-1,84
 597 395 597 395 588.5 422 c 128,-1,85
 580 449 580 449 566 460 c 128,-1,86
 552 471 552 471 532 471 c 2,87,-1
 461 471 l 1,88,-1
 461 246 l 2,89,90
 461 183 461 183 464.5 139.5 c 128,-1,91
 468 96 468 96 476 70 c 128,-1,92
 484 44 484 44 498 32 c 128,-1,93
 512 20 512 20 532 20 c 0,77,78
EndSplineSet
EndChar

StartChar: M
Encoding: 77 77 38
Width: 672
Flags: W
LayerCount: 2
Fore
SplineSet
492 0 m 1,0,-1
 492 14 l 1,1,2
 507 17 507 17 516 21 c 128,-1,3
 525 25 525 25 530.5 31.5 c 128,-1,4
 536 38 536 38 537.5 49 c 128,-1,5
 539 60 539 60 539 78 c 2,6,-1
 539 535 l 1,7,-1
 365 362 l 1,8,-1
 365 78 l 2,9,10
 365 61 365 61 366.5 49.5 c 128,-1,11
 368 38 368 38 373 31.5 c 128,-1,12
 378 25 378 25 387 21 c 128,-1,13
 396 17 396 17 412 14 c 1,14,-1
 412 0 l 1,15,-1
 256 0 l 1,16,-1
 256 14 l 1,17,18
 271 17 271 17 280.5 21 c 128,-1,19
 290 25 290 25 295 31.5 c 128,-1,20
 300 38 300 38 301.5 49 c 128,-1,21
 303 60 303 60 303 78 c 2,22,-1
 303 534 l 1,23,24
 255 500 255 500 221.5 465.5 c 128,-1,25
 188 431 188 431 167.5 389 c 128,-1,26
 147 347 147 347 138 294 c 128,-1,27
 129 241 129 241 129 169 c 2,28,-1
 129 78 l 2,29,30
 129 61 129 61 130.5 49.5 c 128,-1,31
 132 38 132 38 137 31.5 c 128,-1,32
 142 25 142 25 151.5 21 c 128,-1,33
 161 17 161 17 176 14 c 1,34,-1
 176 0 l 1,35,-1
 20 0 l 1,36,-1
 20 14 l 1,37,38
 35 17 35 17 44.5 21 c 128,-1,39
 54 25 54 25 59.5 31.5 c 128,-1,40
 65 38 65 38 66.5 49 c 128,-1,41
 68 60 68 60 68 78 c 0,42,43
 68 152 68 152 70.5 212.5 c 128,-1,44
 73 273 73 273 94 329 c 128,-1,45
 115 385 115 385 163 441.5 c 128,-1,46
 211 498 211 498 302 562 c 1,47,48
 300 581 300 581 290 588 c 128,-1,49
 280 595 280 595 256 600 c 1,50,-1
 256 614 l 1,51,-1
 365 614 l 1,52,-1
 365 391 l 1,53,-1
 538 562 l 1,54,55
 536 581 536 581 525.5 588 c 128,-1,56
 515 595 515 595 492 600 c 1,57,-1
 492 614 l 1,58,-1
 647 614 l 1,59,-1
 647 600 l 1,60,61
 632 597 632 597 622.5 593.5 c 128,-1,62
 613 590 613 590 608 583.5 c 128,-1,63
 603 577 603 577 601.5 565.5 c 128,-1,64
 600 554 600 554 600 537 c 2,65,-1
 600 78 l 2,66,67
 600 61 600 61 601.5 49.5 c 128,-1,68
 603 38 603 38 608 31.5 c 128,-1,69
 613 25 613 25 622.5 21 c 128,-1,70
 632 17 632 17 647 14 c 1,71,-1
 647 0 l 1,72,-1
 492 0 l 1,0,-1
EndSplineSet
EndChar

StartChar: N
Encoding: 78 78 39
Width: 415
Flags: W
LayerCount: 2
Fore
SplineSet
134 594 m 1,0,-1
 134 287 l 1,1,-1
 169 287 l 2,2,3
 204 287 204 287 231.5 293 c 128,-1,4
 259 299 259 299 278.5 320.5 c 128,-1,5
 298 342 298 342 308 382.5 c 128,-1,6
 318 423 318 423 318 492 c 2,7,-1
 318 594 l 1,8,-1
 134 594 l 1,0,-1
380 614 m 1,9,-1
 380 492 l 2,10,11
 380 370 380 370 330.5 318 c 128,-1,12
 281 266 281 266 169 266 c 2,13,-1
 134 266 l 1,14,-1
 134 256 l 2,15,16
 134 168 134 168 113 111 c 128,-1,17
 92 54 92 54 56 20 c 1,18,-1
 224 20 l 2,19,20
 259 20 259 20 280.5 23 c 128,-1,21
 302 26 302 26 317 35.5 c 128,-1,22
 332 45 332 45 342 65.5 c 128,-1,23
 352 86 352 86 366 123 c 1,24,-1
 380 123 l 1,25,-1
 359 0 l 1,26,-1
 26 0 l 1,27,-1
 26 20 l 1,28,29
 37 31 37 31 45.5 43 c 128,-1,30
 54 55 54 55 60.5 74 c 128,-1,31
 67 93 67 93 70 124 c 128,-1,32
 73 155 73 155 73 205 c 2,33,-1
 73 537 l 2,34,35
 73 554 73 554 71.5 565.5 c 128,-1,36
 70 577 70 577 64.5 583.5 c 128,-1,37
 59 590 59 590 50 593.5 c 128,-1,38
 41 597 41 597 26 600 c 1,39,-1
 26 614 l 1,40,-1
 380 614 l 1,9,-1
EndSplineSet
EndChar

StartChar: O
Encoding: 79 79 40
Width: 431
Flags: W
LayerCount: 2
Fore
SplineSet
380 0 m 1,0,-1
 26 0 l 1,1,-1
 26 14 l 1,2,3
 41 17 41 17 50 21 c 128,-1,4
 59 25 59 25 64.5 31.5 c 128,-1,5
 70 38 70 38 71.5 49 c 128,-1,6
 73 60 73 60 73 78 c 2,7,-1
 73 102 l 2,8,9
 73 147 73 147 84.5 178 c 128,-1,10
 96 209 96 209 114.5 229.5 c 128,-1,11
 133 250 133 250 157.5 261.5 c 128,-1,12
 182 273 182 273 206.5 279 c 128,-1,13
 231 285 231 285 255.5 286 c 128,-1,14
 280 287 280 287 298 287 c 2,15,-1
 318 287 l 1,16,-1
 318 328 l 1,17,-1
 298 328 l 2,18,19
 280 328 280 328 255.5 329 c 128,-1,20
 231 330 231 330 206.5 335.5 c 128,-1,21
 182 341 182 341 157.5 353 c 128,-1,22
 133 365 133 365 114.5 385.5 c 128,-1,23
 96 406 96 406 84.5 436.5 c 128,-1,24
 73 467 73 467 73 512 c 2,25,-1
 73 537 l 2,26,27
 73 554 73 554 71.5 565.5 c 128,-1,28
 70 577 70 577 64.5 583.5 c 128,-1,29
 59 590 59 590 50 593.5 c 128,-1,30
 41 597 41 597 26 600 c 1,31,-1
 26 614 l 1,32,-1
 380 614 l 1,33,-1
 380 0 l 1,0,-1
134 492 m 2,34,35
 134 451 134 451 143 424 c 128,-1,36
 152 397 152 397 171.5 381 c 128,-1,37
 191 365 191 365 222 357 c 128,-1,38
 253 349 253 349 298 348 c 2,39,-1
 318 348 l 1,40,-1
 318 594 l 1,41,-1
 134 594 l 1,42,-1
 134 492 l 2,34,35
318 20 m 1,43,-1
 318 266 l 1,44,-1
 298 266 l 2,45,46
 253 264 253 264 222 257 c 128,-1,47
 191 250 191 250 171.5 233.5 c 128,-1,48
 152 217 152 217 143 190.5 c 128,-1,49
 134 164 134 164 134 123 c 2,50,-1
 134 20 l 1,51,-1
 318 20 l 1,43,-1
EndSplineSet
EndChar

StartChar: P
Encoding: 80 80 41
Width: 620
Flags: W
LayerCount: 2
Fore
SplineSet
334 205 m 2,0,1
 334 106 334 106 355 63 c 128,-1,2
 376 20 376 20 426 20 c 256,3,4
 476 20 476 20 497 62.5 c 128,-1,5
 518 105 518 105 518 205 c 2,6,-1
 518 594 l 1,7,-1
 334 594 l 1,8,-1
 334 205 l 2,0,1
580 205 m 2,9,10
 580 111 580 111 538.5 55.5 c 128,-1,11
 497 0 497 0 426 0 c 256,12,13
 355 0 355 0 313.5 55.5 c 128,-1,14
 272 111 272 111 272 205 c 2,15,-1
 272 594 l 1,16,-1
 129 594 l 1,17,-1
 129 -229 l 2,18,19
 129 -246 129 -246 130.5 -257.5 c 128,-1,20
 132 -269 132 -269 137 -276 c 128,-1,21
 142 -283 142 -283 151.5 -286.5 c 128,-1,22
 161 -290 161 -290 176 -293 c 1,23,-1
 176 -307 l 1,24,-1
 20 -307 l 1,25,-1
 20 -293 l 1,26,27
 35 -290 35 -290 44.5 -286.5 c 128,-1,28
 54 -283 54 -283 59.5 -276 c 128,-1,29
 65 -269 65 -269 66.5 -258 c 128,-1,30
 68 -247 68 -247 68 -229 c 2,31,-1
 68 537 l 2,32,33
 68 554 68 554 66.5 565.5 c 128,-1,34
 65 577 65 577 59.5 583.5 c 128,-1,35
 54 590 54 590 45 593.5 c 128,-1,36
 36 597 36 597 20 600 c 1,37,-1
 20 614 l 1,38,-1
 580 614 l 1,39,-1
 580 205 l 2,9,10
EndSplineSet
EndChar

StartChar: Q
Encoding: 81 81 42
Width: 727
Flags: W
LayerCount: 2
Fore
SplineSet
215 594 m 1,0,-1
 215 27 l 1,1,-1
 389 102 l 1,2,-1
 389 594 l 1,3,-1
 215 594 l 1,0,-1
686 209 m 1,4,-1
 182 -11 l 2,5,6
 160 -20 160 -20 139.5 -32 c 128,-1,7
 119 -44 119 -44 102 -61 c 128,-1,8
 85 -78 85 -78 75 -103 c 128,-1,9
 65 -128 65 -128 65 -163 c 0,10,11
 65 -196 65 -196 73 -219.5 c 128,-1,12
 81 -243 81 -243 94.5 -257.5 c 128,-1,13
 108 -272 108 -272 124.5 -279.5 c 128,-1,14
 141 -287 141 -287 159 -287 c 0,15,16
 190 -287 190 -287 207 -278.5 c 128,-1,17
 224 -270 224 -270 233 -259.5 c 128,-1,18
 242 -249 242 -249 243.5 -239.5 c 128,-1,19
 245 -230 245 -230 244 -228 c 1,20,21
 233 -245 233 -245 213 -246 c 0,22,23
 199 -246 199 -246 189.5 -237 c 128,-1,24
 180 -228 180 -228 180 -215 c 256,25,26
 180 -202 180 -202 189.5 -193 c 128,-1,27
 199 -184 199 -184 215 -184 c 0,28,29
 238 -184 238 -184 252 -197 c 128,-1,30
 266 -210 266 -210 266 -237 c 0,31,32
 266 -246 266 -246 261 -258 c 128,-1,33
 256 -270 256 -270 243.5 -281 c 128,-1,34
 231 -292 231 -292 210.5 -299.5 c 128,-1,35
 190 -307 190 -307 159 -307 c 0,36,37
 112 -307 112 -307 82.5 -291.5 c 128,-1,38
 53 -276 53 -276 37.5 -254 c 128,-1,39
 22 -232 22 -232 16 -209 c 128,-1,40
 10 -186 10 -186 10 -171 c 0,41,42
 10 -130 10 -130 25 -101.5 c 128,-1,43
 40 -73 40 -73 62 -53.5 c 128,-1,44
 84 -34 84 -34 109 -21.5 c 128,-1,45
 134 -9 134 -9 154 0 c 1,46,-1
 154 537 l 2,47,48
 154 554 154 554 152.5 565.5 c 128,-1,49
 151 577 151 577 145.5 583.5 c 128,-1,50
 140 590 140 590 131 593.5 c 128,-1,51
 122 597 122 597 106 600 c 1,52,-1
 106 614 l 1,53,-1
 686 614 l 1,54,-1
 686 209 l 1,4,-1
451 130 m 1,55,-1
 625 206 l 1,56,-1
 625 594 l 1,57,-1
 451 594 l 1,58,-1
 451 130 l 1,55,-1
EndSplineSet
EndChar

StartChar: R
Encoding: 82 82 43
Width: 415
Flags: W
LayerCount: 2
Fore
SplineSet
26 0 m 1,0,-1
 26 14 l 1,1,2
 41 17 41 17 50 21 c 128,-1,3
 59 25 59 25 64.5 31.5 c 128,-1,4
 70 38 70 38 71.5 49 c 128,-1,5
 73 60 73 60 73 78 c 2,6,-1
 73 537 l 2,7,8
 73 554 73 554 71.5 565.5 c 128,-1,9
 70 577 70 577 64.5 583.5 c 128,-1,10
 59 590 59 590 50 593.5 c 128,-1,11
 41 597 41 597 26 600 c 1,12,-1
 26 614 l 1,13,-1
 333 614 l 1,14,-1
 353 492 l 1,15,-1
 339 492 l 1,16,17
 326 529 326 529 315.5 549 c 128,-1,18
 305 569 305 569 290 579 c 128,-1,19
 275 589 275 589 253.5 591.5 c 128,-1,20
 232 594 232 594 198 594 c 2,21,-1
 134 594 l 1,22,-1
 134 358 l 1,23,-1
 155 358 l 2,24,25
 233 358 233 358 278 341.5 c 128,-1,26
 323 325 323 325 345.5 293 c 128,-1,27
 368 261 368 261 374 215.5 c 128,-1,28
 380 170 380 170 380 113 c 2,29,-1
 380 0 l 1,30,-1
 26 0 l 1,0,-1
318 20 m 1,31,-1
 318 113 l 2,32,33
 318 168 318 168 314.5 210 c 128,-1,34
 311 252 311 252 295.5 280.5 c 128,-1,35
 280 309 280 309 246.5 323.5 c 128,-1,36
 213 338 213 338 155 338 c 2,37,-1
 134 338 l 1,38,-1
 134 20 l 1,39,-1
 318 20 l 1,31,-1
EndSplineSet
EndChar

StartChar: S
Encoding: 83 83 44
Width: 614
Flags: W
LayerCount: 2
Fore
SplineSet
307 410 m 256,0,1
 335 410 335 410 359 399.5 c 128,-1,2
 383 389 383 389 401.5 370.5 c 128,-1,3
 420 352 420 352 430 328 c 128,-1,4
 440 304 440 304 440 276 c 2,5,-1
 440 225 l 1,6,7
 484 245 484 245 503 289.5 c 128,-1,8
 522 334 522 334 522 399 c 0,9,10
 522 451 522 451 507.5 488 c 128,-1,11
 493 525 493 525 465 548.5 c 128,-1,12
 437 572 437 572 397 583 c 128,-1,13
 357 594 357 594 307 594 c 0,14,15
 207 594 207 594 149.5 549 c 128,-1,16
 92 504 92 504 92 399 c 0,17,18
 92 332 92 332 111.5 289 c 128,-1,19
 131 246 131 246 174 225 c 1,20,-1
 174 276 l 2,21,22
 174 304 174 304 184.5 328 c 128,-1,23
 195 352 195 352 213 370.5 c 128,-1,24
 231 389 231 389 255 399.5 c 128,-1,25
 279 410 279 410 307 410 c 256,0,1
379 20 m 1,26,-1
 379 276 l 2,27,28
 379 337 379 337 362.5 363 c 128,-1,29
 346 389 346 389 307 389 c 256,30,31
 268 389 268 389 252 363.5 c 128,-1,32
 236 338 236 338 236 276 c 2,33,-1
 236 20 l 1,34,-1
 379 20 l 1,26,-1
127 14 m 1,35,36
 142 17 142 17 151.5 21 c 128,-1,37
 161 25 161 25 166 31.5 c 128,-1,38
 171 38 171 38 172.5 49 c 128,-1,39
 174 60 174 60 174 78 c 2,40,-1
 174 205 l 1,41,42
 106 229 106 229 68.5 280 c 128,-1,43
 31 331 31 331 31 399 c 0,44,45
 31 448 31 448 50.5 488 c 128,-1,46
 70 528 70 528 106 556 c 128,-1,47
 142 584 142 584 193 599 c 128,-1,48
 244 614 244 614 307 614 c 0,49,50
 369 614 369 614 420.5 599 c 128,-1,51
 472 584 472 584 508.5 556 c 128,-1,52
 545 528 545 528 564.5 488.5 c 128,-1,53
 584 449 584 449 584 399 c 0,54,55
 584 329 584 329 546 278.5 c 128,-1,56
 508 228 508 228 440 205 c 1,57,-1
 440 78 l 2,58,59
 440 61 440 61 441.5 49.5 c 128,-1,60
 443 38 443 38 448.5 31.5 c 128,-1,61
 454 25 454 25 463 21 c 128,-1,62
 472 17 472 17 487 14 c 1,63,-1
 487 0 l 1,64,-1
 127 0 l 1,65,-1
 127 14 l 1,35,36
EndSplineSet
EndChar

StartChar: T
Encoding: 84 84 45
Width: 696
Flags: W
LayerCount: 2
Fore
SplineSet
164 0 m 256,0,1
 31 0 31 0 31 307 c 0,2,3
 31 496 31 496 82 569 c 0,4,5
 91 582 91 582 78 588 c 128,-1,6
 65 594 65 594 41 594 c 2,7,-1
 31 594 l 1,8,-1
 31 614 l 1,9,-1
 666 614 l 1,10,-1
 666 594 l 1,11,-1
 655 594 l 2,12,13
 631 594 631 594 618 588.5 c 128,-1,14
 605 583 605 583 614 569 c 0,15,16
 665 496 665 496 666 307 c 0,17,18
 666 0 666 0 532 0 c 256,19,20
 399 0 399 0 399 307 c 0,21,22
 399 532 399 532 472 594 c 1,23,-1
 224 594 l 1,24,25
 297 533 297 533 297 307 c 0,26,27
 297 0 297 0 164 0 c 256,0,1
164 20 m 256,28,29
 183 20 183 20 197 36 c 128,-1,30
 211 52 211 52 219 86.5 c 128,-1,31
 227 121 227 121 231.5 175.5 c 128,-1,32
 236 230 236 230 236 307 c 256,33,34
 236 384 236 384 231.5 439 c 128,-1,35
 227 494 227 494 219 528 c 128,-1,36
 211 562 211 562 197 578 c 128,-1,37
 183 594 183 594 164 594 c 256,38,39
 145 594 145 594 131.5 578 c 128,-1,40
 118 562 118 562 109 528 c 128,-1,41
 100 494 100 494 96 439 c 128,-1,42
 92 384 92 384 92 307 c 256,43,44
 92 230 92 230 96 175.5 c 128,-1,45
 100 121 100 121 109 86.5 c 128,-1,46
 118 52 118 52 131.5 36 c 128,-1,47
 145 20 145 20 164 20 c 256,28,29
532 20 m 256,48,49
 551 20 551 20 565 36 c 128,-1,50
 579 52 579 52 587.5 86.5 c 128,-1,51
 596 121 596 121 600 175.5 c 128,-1,52
 604 230 604 230 604 307 c 256,53,54
 604 384 604 384 600 439 c 128,-1,55
 596 494 596 494 587.5 528 c 128,-1,56
 579 562 579 562 565.5 578 c 128,-1,57
 552 594 552 594 532 594 c 256,58,59
 513 594 513 594 499 578 c 128,-1,60
 485 562 485 562 477 528 c 128,-1,61
 469 494 469 494 465 439 c 128,-1,62
 461 384 461 384 461 307 c 256,63,64
 461 230 461 230 465 175.5 c 128,-1,65
 469 121 469 121 477 86.5 c 128,-1,66
 485 52 485 52 499 36 c 128,-1,67
 513 20 513 20 532 20 c 256,48,49
EndSplineSet
EndChar

StartChar: U
Encoding: 85 85 46
Width: 579
Flags: W
LayerCount: 2
Fore
SplineSet
26 14 m 1,0,1
 41 17 41 17 50 21 c 128,-1,2
 59 25 59 25 64.5 31.5 c 128,-1,3
 70 38 70 38 71.5 49 c 128,-1,4
 73 60 73 60 73 78 c 2,5,-1
 73 102 l 2,6,7
 73 158 73 158 91 193.5 c 128,-1,8
 109 229 109 229 136 249 c 128,-1,9
 163 269 163 269 195 277 c 128,-1,10
 227 285 227 285 257 287 c 1,11,-1
 257 328 l 1,12,13
 228 330 228 330 196 338 c 128,-1,14
 164 346 164 346 136.5 366 c 128,-1,15
 109 386 109 386 91 421 c 128,-1,16
 73 456 73 456 73 512 c 2,17,-1
 73 537 l 2,18,19
 73 554 73 554 71.5 565.5 c 128,-1,20
 70 577 70 577 64.5 583.5 c 128,-1,21
 59 590 59 590 50 593.5 c 128,-1,22
 41 597 41 597 26 600 c 1,23,-1
 26 614 l 1,24,-1
 318 614 l 2,25,26
 360 614 360 614 402 599.5 c 128,-1,27
 444 585 444 585 478 549.5 c 128,-1,28
 512 514 512 514 533 454.5 c 128,-1,29
 554 395 554 395 554 307 c 256,30,31
 554 219 554 219 533 159.5 c 128,-1,32
 512 100 512 100 478 65 c 128,-1,33
 444 30 444 30 402 15 c 128,-1,34
 360 0 360 0 318 0 c 2,35,-1
 26 0 l 1,36,-1
 26 14 l 1,0,1
134 594 m 1,37,-1
 134 492 l 2,38,39
 134 456 134 456 140.5 431 c 128,-1,40
 147 406 147 406 162 389.5 c 128,-1,41
 177 373 177 373 200.5 363.5 c 128,-1,42
 224 354 224 354 257 350 c 1,43,-1
 257 594 l 1,44,-1
 134 594 l 1,37,-1
257 264 m 1,45,46
 223 260 223 260 200 251 c 128,-1,47
 177 242 177 242 162 225.5 c 128,-1,48
 147 209 147 209 140.5 184 c 128,-1,49
 134 159 134 159 134 123 c 2,50,-1
 134 20 l 1,51,-1
 257 20 l 1,52,-1
 257 264 l 1,45,46
318 20 m 1,53,54
 349 20 349 20 380.5 32 c 128,-1,55
 412 44 412 44 436.5 76 c 128,-1,56
 461 108 461 108 477 163.5 c 128,-1,57
 493 219 493 219 493 307 c 2,58,-1
 493 328 l 1,59,-1
 318 328 l 1,60,-1
 318 20 l 1,53,54
492 348 m 1,61,62
 489 423 489 423 472 471 c 128,-1,63
 455 519 455 519 430.5 546 c 128,-1,64
 406 573 406 573 376.5 583.5 c 128,-1,65
 347 594 347 594 318 594 c 1,66,-1
 318 348 l 1,67,-1
 492 348 l 1,61,62
EndSplineSet
EndChar

StartChar: V
Encoding: 86 86 47
Width: 696
Flags: W
LayerCount: 2
Fore
SplineSet
399 20 m 1,0,-1
 399 584 l 1,1,2
 417 584 417 584 429 584.5 c 128,-1,3
 441 585 441 585 450 586.5 c 128,-1,4
 459 588 459 588 466 591 c 128,-1,5
 473 594 473 594 481 599 c 0,6,7
 484 601 484 601 498 607.5 c 128,-1,8
 512 614 512 614 532 614 c 0,9,10
 561 614 561 614 585.5 597 c 128,-1,11
 610 580 610 580 627.5 549 c 128,-1,12
 645 518 645 518 655.5 476 c 128,-1,13
 666 434 666 434 666 384 c 256,14,15
 666 334 666 334 655.5 292 c 128,-1,16
 645 250 645 250 627.5 219 c 128,-1,17
 610 188 610 188 585.5 171 c 128,-1,18
 561 154 561 154 532 154 c 0,19,20
 491 154 491 154 461 186 c 1,21,-1
 461 78 l 2,22,23
 461 61 461 61 462.5 49.5 c 128,-1,24
 464 38 464 38 469 31.5 c 128,-1,25
 474 25 474 25 483.5 21 c 128,-1,26
 493 17 493 17 508 14 c 1,27,-1
 508 0 l 1,28,-1
 188 0 l 1,29,-1
 188 14 l 1,30,31
 203 17 203 17 212.5 21 c 128,-1,32
 222 25 222 25 227 31.5 c 128,-1,33
 232 38 232 38 234 49 c 128,-1,34
 236 60 236 60 236 78 c 2,35,-1
 236 186 l 1,36,37
 205 153 205 153 164 154 c 0,38,39
 135 154 135 154 110.5 171 c 128,-1,40
 86 188 86 188 68.5 219 c 128,-1,41
 51 250 51 250 41 292 c 128,-1,42
 31 334 31 334 31 384 c 256,43,44
 31 434 31 434 41 476 c 128,-1,45
 51 518 51 518 68.5 549 c 128,-1,46
 86 580 86 580 110.5 597 c 128,-1,47
 135 614 135 614 164 614 c 0,48,49
 184 614 184 614 198 607.5 c 128,-1,50
 212 601 212 601 215 599 c 0,51,52
 223 594 223 594 230.5 591 c 128,-1,53
 238 588 238 588 246.5 586.5 c 128,-1,54
 255 585 255 585 267 584.5 c 128,-1,55
 279 584 279 584 297 584 c 1,56,-1
 297 20 l 1,57,-1
 399 20 l 1,0,-1
92 384 m 256,58,59
 92 271 92 271 110.5 222.5 c 128,-1,60
 129 174 129 174 173 174 c 0,61,62
 216 174 216 174 236 222 c 1,63,-1
 236 522 l 2,64,65
 236 545 236 545 229 559 c 128,-1,66
 222 573 222 573 212.5 581 c 128,-1,67
 203 589 203 589 192 591.5 c 128,-1,68
 181 594 181 594 173 594 c 0,69,70
 129 594 129 594 110.5 545.5 c 128,-1,71
 92 497 92 497 92 384 c 256,58,59
604 384 m 256,72,73
 604 497 604 497 585.5 545.5 c 128,-1,74
 567 594 567 594 523 594 c 0,75,76
 515 594 515 594 504.5 591.5 c 128,-1,77
 494 589 494 589 484 581 c 128,-1,78
 474 573 474 573 467.5 559 c 128,-1,79
 461 545 461 545 461 522 c 2,80,-1
 461 222 l 1,81,82
 480 174 480 174 523 174 c 0,83,84
 567 174 567 174 585.5 222.5 c 128,-1,85
 604 271 604 271 604 384 c 256,72,73
EndSplineSet
EndChar

StartChar: W
Encoding: 87 87 48
Width: 701
Flags: W
LayerCount: 2
Fore
SplineSet
389 594 m 1,0,-1
 266 594 l 1,1,-1
 266 307 l 1,2,-1
 389 307 l 1,3,-1
 389 594 l 1,0,-1
498 614 m 1,4,-1
 498 600 l 1,5,6
 483 597 483 597 473.5 593.5 c 128,-1,7
 464 590 464 590 459 583.5 c 128,-1,8
 454 577 454 577 452.5 565.5 c 128,-1,9
 451 554 451 554 451 537 c 2,10,-1
 451 307 l 1,11,-1
 532 307 l 2,12,13
 563 307 563 307 589.5 296 c 128,-1,14
 616 285 616 285 635 264.5 c 128,-1,15
 654 244 654 244 665 215.5 c 128,-1,16
 676 187 676 187 676 154 c 256,17,18
 676 120 676 120 665 91.5 c 128,-1,19
 654 63 654 63 635 43 c 128,-1,20
 616 23 616 23 589.5 11.5 c 128,-1,21
 563 0 563 0 532 0 c 2,22,-1
 96 0 l 2,23,24
 69 0 69 0 52.5 7 c 128,-1,25
 36 14 36 14 26.5 24.5 c 128,-1,26
 17 35 17 35 13.5 47 c 128,-1,27
 10 59 10 59 10 69 c 0,28,29
 10 96 10 96 25 109.5 c 128,-1,30
 40 123 40 123 61 123 c 0,31,32
 77 123 77 123 86.5 114 c 128,-1,33
 96 105 96 105 96 92 c 256,34,35
 96 79 96 79 87 70 c 128,-1,36
 78 61 78 61 63 61 c 0,37,38
 44 61 44 61 33 79 c 1,39,40
 27 52 27 52 43.5 36 c 128,-1,41
 60 20 60 20 81 20 c 0,42,43
 112 20 112 20 141.5 46.5 c 128,-1,44
 171 73 171 73 194 123 c 128,-1,45
 217 173 217 173 231.5 245 c 128,-1,46
 246 317 246 317 246 410 c 2,47,-1
 246 537 l 2,48,49
 246 554 246 554 244.5 565.5 c 128,-1,50
 243 577 243 577 237.5 583.5 c 128,-1,51
 232 590 232 590 223 593.5 c 128,-1,52
 214 597 214 597 199 600 c 1,53,-1
 199 614 l 1,54,-1
 498 614 l 1,4,-1
451 20 m 1,55,-1
 532 20 l 2,56,57
 576 20 576 20 595 51 c 128,-1,58
 614 82 614 82 614 154 c 256,59,60
 614 226 614 226 595.5 256.5 c 128,-1,61
 577 287 577 287 532 287 c 2,62,-1
 451 287 l 1,63,-1
 451 20 l 1,55,-1
266 287 m 1,64,65
 258 187 258 187 237.5 121 c 128,-1,66
 217 55 217 55 184 20 c 1,67,-1
 389 20 l 1,68,-1
 389 287 l 1,69,-1
 266 287 l 1,64,65
EndSplineSet
EndChar

StartChar: X
Encoding: 88 88 49
Width: 794
Flags: W
LayerCount: 2
Fore
SplineSet
759 502 m 2,0,1
 759 455 759 455 745 423 c 128,-1,2
 731 391 731 391 706.5 369.5 c 128,-1,3
 682 348 682 348 648 333.5 c 128,-1,4
 614 319 614 319 574 308 c 2,5,-1
 544 299 l 1,6,-1
 544 78 l 2,7,8
 544 61 544 61 545.5 49.5 c 128,-1,9
 547 38 547 38 552 31.5 c 128,-1,10
 557 25 557 25 566 21 c 128,-1,11
 575 17 575 17 591 14 c 1,12,-1
 591 0 l 1,13,-1
 482 0 l 1,14,-1
 482 281 l 1,15,-1
 339 239 l 1,16,-1
 339 78 l 2,17,18
 339 61 339 61 340.5 49.5 c 128,-1,19
 342 38 342 38 347 31.5 c 128,-1,20
 352 25 352 25 361.5 21 c 128,-1,21
 371 17 371 17 386 14 c 1,22,-1
 386 0 l 1,23,-1
 278 0 l 1,24,-1
 278 221 l 1,25,-1
 134 179 l 1,26,-1
 134 78 l 2,27,28
 134 61 134 61 135.5 49.5 c 128,-1,29
 137 38 137 38 142 31.5 c 128,-1,30
 147 25 147 25 156.5 21 c 128,-1,31
 166 17 166 17 181 14 c 1,32,-1
 181 0 l 1,33,-1
 26 0 l 1,34,-1
 26 14 l 1,35,36
 41 17 41 17 50 21 c 128,-1,37
 59 25 59 25 64.5 31.5 c 128,-1,38
 70 38 70 38 71.5 49 c 128,-1,39
 73 60 73 60 73 78 c 2,40,-1
 73 537 l 2,41,42
 73 554 73 554 71.5 565.5 c 128,-1,43
 70 577 70 577 64.5 583.5 c 128,-1,44
 59 590 59 590 50 593.5 c 128,-1,45
 41 597 41 597 26 600 c 1,46,-1
 26 614 l 1,47,-1
 759 614 l 1,48,-1
 759 502 l 2,0,1
134 204 m 1,49,-1
 278 246 l 1,50,-1
 278 594 l 1,51,-1
 134 594 l 1,52,-1
 134 204 l 1,49,-1
339 263 m 1,53,-1
 482 305 l 1,54,-1
 482 594 l 1,55,-1
 339 594 l 1,56,-1
 339 263 l 1,53,-1
544 324 m 1,57,-1
 574 333 l 2,58,59
 610 343 610 343 634 359 c 128,-1,60
 658 375 658 375 672 396 c 128,-1,61
 686 417 686 417 691.5 443 c 128,-1,62
 697 469 697 469 697 502 c 2,63,-1
 697 594 l 1,64,-1
 544 594 l 1,65,-1
 544 324 l 1,57,-1
EndSplineSet
EndChar

StartChar: Y
Encoding: 89 89 50
Width: 696
Flags: W
LayerCount: 2
Fore
SplineSet
282 492 m 1,0,-1
 252 537 l 2,1,2
 241 554 241 554 232 565.5 c 128,-1,3
 223 577 223 577 214 583.5 c 128,-1,4
 205 590 205 590 193 593.5 c 128,-1,5
 181 597 181 597 164 600 c 1,6,-1
 164 614 l 1,7,-1
 262 614 l 1,8,-1
 343 492 l 1,9,-1
 353 492 l 1,10,-1
 434 614 l 1,11,-1
 532 614 l 1,12,-1
 532 600 l 1,13,14
 515 597 515 597 503.5 593.5 c 128,-1,15
 492 590 492 590 482.5 583.5 c 128,-1,16
 473 577 473 577 464.5 565.5 c 128,-1,17
 456 554 456 554 444 537 c 2,18,-1
 415 492 l 1,19,-1
 666 492 l 1,20,-1
 666 471 l 1,21,-1
 655 471 l 2,22,23
 647 471 647 471 639 469 c 128,-1,24
 631 467 631 467 624.5 463.5 c 128,-1,25
 618 460 618 460 615.5 455 c 128,-1,26
 613 450 613 450 618 442 c 0,27,28
 641 409 641 409 653.5 359.5 c 128,-1,29
 666 310 666 310 666 246 c 0,30,31
 666 191 666 191 656.5 145 c 128,-1,32
 647 99 647 99 629.5 67 c 128,-1,33
 612 35 612 35 587.5 17.5 c 128,-1,34
 563 0 563 0 532 0 c 256,35,36
 501 0 501 0 477 17.5 c 128,-1,37
 453 35 453 35 435.5 67 c 128,-1,38
 418 99 418 99 408.5 144.5 c 128,-1,39
 399 190 399 190 399 246 c 0,40,41
 399 283 399 283 404 317 c 128,-1,42
 409 351 409 351 418 381.5 c 128,-1,43
 427 412 427 412 441 435 c 128,-1,44
 455 458 455 458 474 471 c 1,45,-1
 222 471 l 1,46,47
 241 458 241 458 255 435 c 128,-1,48
 269 412 269 412 278.5 381.5 c 128,-1,49
 288 351 288 351 292.5 317 c 128,-1,50
 297 283 297 283 297 246 c 0,51,52
 297 191 297 191 288 145 c 128,-1,53
 279 99 279 99 261.5 67 c 128,-1,54
 244 35 244 35 219.5 17.5 c 128,-1,55
 195 0 195 0 164 0 c 256,56,57
 133 0 133 0 108.5 17.5 c 128,-1,58
 84 35 84 35 66.5 67 c 128,-1,59
 49 99 49 99 40 144.5 c 128,-1,60
 31 190 31 190 31 246 c 0,61,62
 31 311 31 311 43 360.5 c 128,-1,63
 55 410 55 410 78 442 c 0,64,65
 82 449 82 449 80 454.5 c 128,-1,66
 78 460 78 460 72 463.5 c 128,-1,67
 66 467 66 467 57 469 c 128,-1,68
 48 471 48 471 41 471 c 2,69,-1
 31 471 l 1,70,-1
 31 492 l 1,71,-1
 282 492 l 1,0,-1
164 20 m 256,72,73
 184 20 184 20 198 32 c 128,-1,74
 212 44 212 44 220 70 c 128,-1,75
 228 96 228 96 232 139 c 128,-1,76
 236 182 236 182 236 246 c 256,77,78
 236 309 236 309 232 352 c 128,-1,79
 228 395 228 395 220 422 c 128,-1,80
 212 449 212 449 198 460 c 128,-1,81
 184 471 184 471 164 471 c 256,82,83
 144 471 144 471 130.5 460 c 128,-1,84
 117 449 117 449 108 422 c 128,-1,85
 99 395 99 395 95.5 352 c 128,-1,86
 92 309 92 309 92 246 c 256,87,88
 92 183 92 183 95.5 139.5 c 128,-1,89
 99 96 99 96 108 70 c 128,-1,90
 117 44 117 44 130.5 32 c 128,-1,91
 144 20 144 20 164 20 c 256,72,73
532 20 m 0,92,93
 551 20 551 20 565.5 32 c 128,-1,94
 580 44 580 44 588.5 70 c 128,-1,95
 597 96 597 96 600.5 139 c 128,-1,96
 604 182 604 182 604 246 c 256,97,98
 604 309 604 309 600.5 352 c 128,-1,99
 597 395 597 395 588.5 422 c 128,-1,100
 580 449 580 449 566 460 c 128,-1,101
 552 471 552 471 532 471 c 0,102,103
 512 471 512 471 498 460 c 128,-1,104
 484 449 484 449 476 422 c 128,-1,105
 468 395 468 395 464.5 352 c 128,-1,106
 461 309 461 309 461 246 c 256,107,108
 461 183 461 183 464.5 139.5 c 128,-1,109
 468 96 468 96 476 70 c 128,-1,110
 484 44 484 44 498 32 c 128,-1,111
 512 20 512 20 532 20 c 0,92,93
EndSplineSet
EndChar

StartChar: Z
Encoding: 90 90 51
Width: 721
Flags: W
LayerCount: 2
Fore
SplineSet
20 -307 m 1,0,-1
 20 -293 l 1,1,2
 35 -290 35 -290 44.5 -286.5 c 128,-1,3
 54 -283 54 -283 59.5 -276 c 128,-1,4
 65 -269 65 -269 66.5 -258 c 128,-1,5
 68 -247 68 -247 68 -229 c 2,6,-1
 68 537 l 2,7,8
 68 554 68 554 66.5 565.5 c 128,-1,9
 65 577 65 577 59.5 583.5 c 128,-1,10
 54 590 54 590 45 593.5 c 128,-1,11
 36 597 36 597 20 600 c 1,12,-1
 20 614 l 1,13,-1
 139 614 l 2,14,15
 385 614 385 614 385 307 c 2,16,-1
 385 287 l 1,17,-1
 563 287 l 2,18,19
 592 287 592 287 616.5 276 c 128,-1,20
 641 265 641 265 658.5 246 c 128,-1,21
 676 227 676 227 686 200.5 c 128,-1,22
 696 174 696 174 696 143 c 256,23,24
 696 112 696 112 686 85.5 c 128,-1,25
 676 59 676 59 658.5 40.5 c 128,-1,26
 641 22 641 22 616.5 11 c 128,-1,27
 592 0 592 0 563 0 c 256,28,29
 534 0 534 0 509.5 11 c 128,-1,30
 485 22 485 22 468 40.5 c 128,-1,31
 451 59 451 59 440.5 86 c 128,-1,32
 430 113 430 113 430 143 c 0,33,34
 430 184 430 184 446.5 216 c 128,-1,35
 463 248 463 248 492 266 c 1,36,-1
 384 266 l 1,37,38
 367 0 367 0 139 0 c 2,39,-1
 129 0 l 1,40,-1
 129 -229 l 2,41,42
 129 -246 129 -246 130.5 -257.5 c 128,-1,43
 132 -269 132 -269 137 -276 c 128,-1,44
 142 -283 142 -283 151.5 -286.5 c 128,-1,45
 161 -290 161 -290 176 -293 c 1,46,-1
 176 -307 l 1,47,-1
 20 -307 l 1,0,-1
129 287 m 1,48,-1
 324 287 l 1,49,-1
 324 307 l 2,50,51
 324 387 324 387 314.5 442 c 128,-1,52
 305 497 305 497 283.5 530.5 c 128,-1,53
 262 564 262 564 226.5 579 c 128,-1,54
 191 594 191 594 139 594 c 2,55,-1
 129 594 l 1,56,-1
 129 287 l 1,48,-1
129 266 m 1,57,-1
 129 20 l 1,58,-1
 139 20 l 2,59,60
 187 20 187 20 221.5 32.5 c 128,-1,61
 256 45 256 45 277.5 74 c 128,-1,62
 299 103 299 103 310.5 150 c 128,-1,63
 322 197 322 197 324 266 c 1,64,-1
 129 266 l 1,57,-1
563 20 m 256,65,66
 602 20 602 20 618.5 48.5 c 128,-1,67
 635 77 635 77 635 143 c 256,68,69
 635 210 635 210 618.5 238 c 128,-1,70
 602 266 602 266 563 266 c 256,71,72
 524 266 524 266 508 238 c 128,-1,73
 492 210 492 210 492 143 c 256,74,75
 492 76 492 76 508 48 c 128,-1,76
 524 20 524 20 563 20 c 256,65,66
EndSplineSet
EndChar

StartChar: bracketleft
Encoding: 91 91 52
Width: 624
Flags: W
LayerCount: 2
Fore
SplineSet
20 -307 m 1,0,-1
 20 -293 l 1,1,2
 35 -290 35 -290 44.5 -286.5 c 128,-1,3
 54 -283 54 -283 59.5 -276 c 128,-1,4
 65 -269 65 -269 66.5 -258 c 128,-1,5
 68 -247 68 -247 68 -229 c 2,6,-1
 68 537 l 2,7,8
 68 554 68 554 66.5 565.5 c 128,-1,9
 65 577 65 577 59.5 583.5 c 128,-1,10
 54 590 54 590 45 593.5 c 128,-1,11
 36 597 36 597 20 600 c 1,12,-1
 20 614 l 1,13,-1
 139 614 l 2,14,15
 385 614 385 614 385 307 c 2,16,-1
 385 287 l 1,17,-1
 563 287 l 1,18,-1
 563 276 l 1,19,20
 555 276 555 276 535.5 275 c 128,-1,21
 516 274 516 274 498 266 c 1,22,-1
 384 266 l 1,23,24
 367 0 367 0 139 0 c 2,25,-1
 129 0 l 1,26,-1
 129 -229 l 2,27,28
 129 -246 129 -246 130.5 -257.5 c 128,-1,29
 132 -269 132 -269 137 -276 c 128,-1,30
 142 -283 142 -283 151.5 -286.5 c 128,-1,31
 161 -290 161 -290 176 -293 c 1,32,-1
 176 -307 l 1,33,-1
 20 -307 l 1,0,-1
129 287 m 1,34,-1
 324 287 l 1,35,-1
 324 307 l 2,36,37
 324 387 324 387 314.5 442 c 128,-1,38
 305 497 305 497 283.5 530.5 c 128,-1,39
 262 564 262 564 226.5 579 c 128,-1,40
 191 594 191 594 139 594 c 2,41,-1
 129 594 l 1,42,-1
 129 287 l 1,34,-1
129 266 m 1,43,-1
 129 20 l 1,44,-1
 139 20 l 2,45,46
 187 20 187 20 221.5 32.5 c 128,-1,47
 256 45 256 45 277.5 74 c 128,-1,48
 299 103 299 103 310.5 150 c 128,-1,49
 322 197 322 197 324 266 c 1,50,-1
 129 266 l 1,43,-1
EndSplineSet
EndChar

StartChar: backslash
Encoding: 92 92 53
Width: 335
Flags: W
LayerCount: 2
Fore
SplineSet
305 0 m 1,0,-1
 276 0 l 1,1,-1
 31 614 l 1,2,-1
 59 614 l 1,3,-1
 305 0 l 1,0,-1
EndSplineSet
EndChar

StartChar: asciicircum
Encoding: 94 94 54
Width: 570
Flags: W
LayerCount: 2
Fore
SplineSet
129 20 m 2,0,1
 164 20 164 20 190.5 49.5 c 128,-1,2
 217 79 217 79 217 143 c 0,3,4
 217 210 217 210 200.5 238 c 128,-1,5
 184 266 184 266 145 266 c 0,6,7
 126 266 126 266 115 261.5 c 128,-1,8
 104 257 104 257 98.5 249.5 c 128,-1,9
 93 242 93 242 91 232.5 c 128,-1,10
 89 223 89 223 88 215 c 0,11,12
 86 202 86 202 82 193 c 128,-1,13
 78 184 78 184 61 184 c 0,14,15
 48 184 48 184 42 191 c 128,-1,16
 36 198 36 198 36 209 c 0,17,18
 36 223 36 223 45.5 239 c 128,-1,19
 55 255 55 255 75 267 c 1,20,-1
 75 274 l 2,21,22
 75 345 75 345 90 404 c 128,-1,23
 105 463 105 463 135 505 c 128,-1,24
 165 547 165 547 209 570.5 c 128,-1,25
 253 594 253 594 310 594 c 0,26,27
 361 594 361 594 404 572 c 128,-1,28
 447 550 447 550 478.5 510 c 128,-1,29
 510 470 510 470 527.5 415.5 c 128,-1,30
 545 361 545 361 545 297 c 256,31,32
 545 232 545 232 527.5 178 c 128,-1,33
 510 124 510 124 478.5 84 c 128,-1,34
 447 44 447 44 404 22 c 128,-1,35
 361 0 361 0 310 0 c 0,36,37
 274 0 274 0 252 6.5 c 128,-1,38
 230 13 230 13 217 20 c 1,39,40
 185 0 185 0 145 0 c 2,41,-1
 115 0 l 1,42,43
 134 -4 134 -4 153 -15 c 128,-1,44
 172 -26 172 -26 186 -45.5 c 128,-1,45
 200 -65 200 -65 208.5 -94 c 128,-1,46
 217 -123 217 -123 217 -164 c 0,47,48
 217 -201 217 -201 223 -224.5 c 128,-1,49
 229 -248 229 -248 240 -261.5 c 128,-1,50
 251 -275 251 -275 266 -281 c 128,-1,51
 281 -287 281 -287 299 -287 c 0,52,53
 338 -287 338 -287 354.5 -267 c 128,-1,54
 371 -247 371 -247 365 -228 c 1,55,56
 354 -245 354 -245 334 -246 c 0,57,58
 320 -246 320 -246 310.5 -237 c 128,-1,59
 301 -228 301 -228 301 -215 c 256,60,61
 301 -202 301 -202 310 -193 c 128,-1,62
 319 -184 319 -184 336 -184 c 0,63,64
 359 -184 359 -184 373 -197 c 128,-1,65
 387 -210 387 -210 387 -237 c 0,66,67
 387 -257 387 -257 378 -270.5 c 128,-1,68
 369 -284 369 -284 355.5 -292 c 128,-1,69
 342 -300 342 -300 326.5 -303.5 c 128,-1,70
 311 -307 311 -307 299 -307 c 0,71,72
 275 -307 275 -307 250 -300.5 c 128,-1,73
 225 -294 225 -294 204 -277 c 128,-1,74
 183 -260 183 -260 169.5 -233 c 128,-1,75
 156 -206 156 -206 156 -164 c 0,76,77
 156 -109 156 -109 143.5 -76.5 c 128,-1,78
 131 -44 131 -44 114 -27 c 128,-1,79
 97 -10 97 -10 79.5 -5 c 128,-1,80
 62 0 62 0 53 0 c 1,81,-1
 53 20 l 1,82,-1
 129 20 l 2,0,1
145 287 m 2,83,84
 174 287 174 287 198.5 276 c 128,-1,85
 223 265 223 265 240.5 246 c 128,-1,86
 258 227 258 227 268.5 200.5 c 128,-1,87
 279 174 279 174 279 143 c 0,88,89
 279 109 279 109 267 80.5 c 128,-1,90
 255 52 255 52 234 35 c 1,91,92
 250 28 250 28 268 24 c 128,-1,93
 286 20 286 20 310 20 c 0,94,95
 357 20 357 20 390 35.5 c 128,-1,96
 423 51 423 51 444 84.5 c 128,-1,97
 465 118 465 118 474.5 170 c 128,-1,98
 484 222 484 222 484 297 c 256,99,100
 484 372 484 372 474.5 424 c 128,-1,101
 465 476 465 476 444 509.5 c 128,-1,102
 423 543 423 543 390 558 c 128,-1,103
 357 573 357 573 310 573 c 256,104,105
 263 573 263 573 230.5 558 c 128,-1,106
 198 543 198 543 177 509.5 c 128,-1,107
 156 476 156 476 146 424 c 128,-1,108
 136 372 136 372 136 297 c 2,109,-1
 136 287 l 1,110,-1
 145 287 l 2,83,84
EndSplineSet
EndChar

StartChar: underscore
Encoding: 95 95 55
Width: 409
Flags: W
LayerCount: 2
Fore
SplineSet
358 -84 m 1,0,-1
 358 -113 l 1,1,-1
 51 -113 l 1,2,-1
 51 -84 l 1,3,-1
 358 -84 l 1,0,-1
EndSplineSet
EndChar

StartChar: grave
Encoding: 96 96 56
Width: 815
Flags: W
LayerCount: 2
Fore
SplineSet
400 287 m 1,0,-1
 400 414 l 2,1,2
 400 431 400 431 398.5 442.5 c 128,-1,3
 397 454 397 454 392 460.5 c 128,-1,4
 387 467 387 467 378 470.5 c 128,-1,5
 369 474 369 474 353 477 c 1,6,-1
 353 492 l 1,7,-1
 632 492 l 1,8,-1
 632 477 l 1,9,10
 617 474 617 474 607.5 470.5 c 128,-1,11
 598 467 598 467 593 460.5 c 128,-1,12
 588 454 588 454 586.5 442.5 c 128,-1,13
 585 431 585 431 585 414 c 2,14,-1
 585 287 l 1,15,-1
 656 287 l 2,16,17
 685 287 685 287 709.5 276 c 128,-1,18
 734 265 734 265 751.5 246 c 128,-1,19
 769 227 769 227 779.5 200.5 c 128,-1,20
 790 174 790 174 790 143 c 256,21,22
 790 112 790 112 779.5 85.5 c 128,-1,23
 769 59 769 59 751.5 40.5 c 128,-1,24
 734 22 734 22 709.5 11 c 128,-1,25
 685 0 685 0 656 0 c 256,26,27
 627 0 627 0 603 11 c 128,-1,28
 579 22 579 22 561.5 40.5 c 128,-1,29
 544 59 544 59 533.5 86 c 128,-1,30
 523 113 523 113 523 143 c 2,31,-1
 523 266 l 1,32,-1
 462 266 l 1,33,-1
 462 0 l 1,34,-1
 134 0 l 1,35,36
 160 -20 160 -20 180.5 -48 c 128,-1,37
 201 -76 201 -76 217.5 -105 c 128,-1,38
 234 -134 234 -134 249.5 -162.5 c 128,-1,39
 265 -191 265 -191 281 -215 c 0,40,41
 309 -257 309 -257 341.5 -272 c 128,-1,42
 374 -287 374 -287 401 -287 c 0,43,44
 433 -287 433 -287 450.5 -279.5 c 128,-1,45
 468 -272 468 -272 476.5 -262.5 c 128,-1,46
 485 -253 485 -253 486 -243 c 128,-1,47
 487 -233 487 -233 486 -228 c 1,48,49
 475 -245 475 -245 456 -246 c 0,50,51
 442 -246 442 -246 432.5 -237 c 128,-1,52
 423 -228 423 -228 423 -215 c 256,53,54
 423 -202 423 -202 432 -193 c 128,-1,55
 441 -184 441 -184 458 -184 c 0,56,57
 481 -184 481 -184 495 -197 c 128,-1,58
 509 -210 509 -210 509 -237 c 0,59,60
 509 -245 509 -245 505.5 -257 c 128,-1,61
 502 -269 502 -269 490.5 -280.5 c 128,-1,62
 479 -292 479 -292 457.5 -299.5 c 128,-1,63
 436 -307 436 -307 401 -307 c 0,64,65
 364 -307 364 -307 333 -294 c 128,-1,66
 302 -281 302 -281 270.5 -253 c 128,-1,67
 239 -225 239 -225 203 -183 c 128,-1,68
 167 -141 167 -141 122 -84 c 0,69,70
 105 -62 105 -62 93.5 -47.5 c 128,-1,71
 82 -33 82 -33 72 -22.5 c 128,-1,72
 62 -12 62 -12 51.5 -7 c 128,-1,73
 41 -2 41 -2 26 0 c 1,74,-1
 26 14 l 1,75,76
 41 17 41 17 50 21 c 128,-1,77
 59 25 59 25 64.5 31.5 c 128,-1,78
 70 38 70 38 71.5 49 c 128,-1,79
 73 60 73 60 73 78 c 2,80,-1
 73 209 l 2,81,82
 73 226 73 226 71.5 237.5 c 128,-1,83
 70 249 70 249 64.5 255.5 c 128,-1,84
 59 262 59 262 50 265.5 c 128,-1,85
 41 269 41 269 26 272 c 1,86,-1
 26 287 l 1,87,-1
 181 287 l 1,88,-1
 181 272 l 1,89,90
 166 269 166 269 156.5 265.5 c 128,-1,91
 147 262 147 262 142 255.5 c 128,-1,92
 137 249 137 249 135.5 237.5 c 128,-1,93
 134 226 134 226 134 209 c 2,94,-1
 134 20 l 1,95,-1
 237 20 l 1,96,-1
 237 287 l 1,97,-1
 400 287 l 1,0,-1
462 287 m 1,98,-1
 523 287 l 1,99,-1
 523 471 l 1,100,-1
 462 471 l 1,101,-1
 462 287 l 1,98,-1
400 20 m 1,102,-1
 400 266 l 1,103,-1
 298 266 l 1,104,-1
 298 20 l 1,105,-1
 400 20 l 1,102,-1
656 266 m 256,106,107
 617 266 617 266 601 238 c 128,-1,108
 585 210 585 210 585 143 c 256,109,110
 585 76 585 76 601 48 c 128,-1,111
 617 20 617 20 656 20 c 256,112,113
 695 20 695 20 711.5 48.5 c 128,-1,114
 728 77 728 77 728 143 c 256,115,116
 728 210 728 210 711.5 238 c 128,-1,117
 695 266 695 266 656 266 c 256,106,107
EndSplineSet
EndChar

StartChar: a
Encoding: 97 97 57
Width: 534
Flags: W
LayerCount: 2
Fore
SplineSet
237 414 m 2,0,1
 237 431 237 431 235 442.5 c 128,-1,2
 233 454 233 454 228 460.5 c 128,-1,3
 223 467 223 467 214 470.5 c 128,-1,4
 205 474 205 474 189 477 c 1,5,-1
 189 492 l 1,6,-1
 298 512 l 1,7,-1
 298 287 l 1,8,-1
 509 287 l 1,9,-1
 509 272 l 1,10,11
 494 269 494 269 484.5 265.5 c 128,-1,12
 475 262 475 262 470 255.5 c 128,-1,13
 465 249 465 249 463.5 237.5 c 128,-1,14
 462 226 462 226 462 209 c 2,15,-1
 462 78 l 2,16,17
 462 61 462 61 463.5 49.5 c 128,-1,18
 465 38 465 38 470 31.5 c 128,-1,19
 475 25 475 25 484.5 21 c 128,-1,20
 494 17 494 17 509 14 c 1,21,-1
 509 0 l 1,22,-1
 400 0 l 1,23,-1
 400 266 l 1,24,-1
 298 266 l 1,25,-1
 298 78 l 2,26,27
 298 61 298 61 299.5 49.5 c 128,-1,28
 301 38 301 38 306 31.5 c 128,-1,29
 311 25 311 25 320.5 21 c 128,-1,30
 330 17 330 17 345 14 c 1,31,-1
 345 0 l 1,32,-1
 237 0 l 1,33,-1
 237 266 l 1,34,-1
 134 266 l 1,35,-1
 134 78 l 2,36,37
 134 61 134 61 135.5 49.5 c 128,-1,38
 137 38 137 38 142 31.5 c 128,-1,39
 147 25 147 25 156.5 21 c 128,-1,40
 166 17 166 17 181 14 c 1,41,-1
 181 0 l 1,42,-1
 26 0 l 1,43,-1
 26 14 l 1,44,45
 41 17 41 17 50 21 c 128,-1,46
 59 25 59 25 64.5 31.5 c 128,-1,47
 70 38 70 38 71.5 49 c 128,-1,48
 73 60 73 60 73 78 c 2,49,-1
 73 209 l 2,50,51
 73 226 73 226 71.5 237.5 c 128,-1,52
 70 249 70 249 64.5 255.5 c 128,-1,53
 59 262 59 262 50 265.5 c 128,-1,54
 41 269 41 269 26 272 c 1,55,-1
 26 287 l 1,56,-1
 237 287 l 1,57,-1
 237 414 l 2,0,1
EndSplineSet
EndChar

StartChar: b
Encoding: 98 98 58
Width: 534
Flags: W
LayerCount: 2
Fore
SplineSet
237 287 m 1,0,-1
 345 287 l 1,1,-1
 345 272 l 1,2,3
 330 269 330 269 320.5 265.5 c 128,-1,4
 311 262 311 262 306 255.5 c 128,-1,5
 301 249 301 249 299.5 237.5 c 128,-1,6
 298 226 298 226 298 209 c 2,7,-1
 298 20 l 1,8,-1
 400 20 l 1,9,-1
 400 287 l 1,10,-1
 509 287 l 1,11,-1
 509 272 l 1,12,13
 494 269 494 269 484.5 265.5 c 128,-1,14
 475 262 475 262 470 255.5 c 128,-1,15
 465 249 465 249 463.5 237.5 c 128,-1,16
 462 226 462 226 462 209 c 2,17,-1
 462 78 l 2,18,19
 462 61 462 61 463.5 49.5 c 128,-1,20
 465 38 465 38 470 31.5 c 128,-1,21
 475 25 475 25 484.5 21 c 128,-1,22
 494 17 494 17 509 14 c 1,23,-1
 509 0 l 1,24,-1
 134 0 l 1,25,26
 160 -20 160 -20 180.5 -48 c 128,-1,27
 201 -76 201 -76 217.5 -105 c 128,-1,28
 234 -134 234 -134 249.5 -162.5 c 128,-1,29
 265 -191 265 -191 281 -215 c 0,30,31
 309 -257 309 -257 341.5 -272 c 128,-1,32
 374 -287 374 -287 401 -287 c 0,33,34
 433 -287 433 -287 450.5 -279.5 c 128,-1,35
 468 -272 468 -272 476.5 -262.5 c 128,-1,36
 485 -253 485 -253 486 -243 c 128,-1,37
 487 -233 487 -233 486 -228 c 1,38,39
 475 -245 475 -245 456 -246 c 0,40,41
 442 -246 442 -246 432.5 -237 c 128,-1,42
 423 -228 423 -228 423 -215 c 256,43,44
 423 -202 423 -202 432 -193 c 128,-1,45
 441 -184 441 -184 458 -184 c 0,46,47
 481 -184 481 -184 495 -197 c 128,-1,48
 509 -210 509 -210 509 -237 c 0,49,50
 509 -245 509 -245 505.5 -257 c 128,-1,51
 502 -269 502 -269 490.5 -280.5 c 128,-1,52
 479 -292 479 -292 457.5 -299.5 c 128,-1,53
 436 -307 436 -307 401 -307 c 0,54,55
 364 -307 364 -307 333 -294 c 128,-1,56
 302 -281 302 -281 270.5 -253 c 128,-1,57
 239 -225 239 -225 203 -183 c 128,-1,58
 167 -141 167 -141 122 -84 c 0,59,60
 105 -62 105 -62 93.5 -47.5 c 128,-1,61
 82 -33 82 -33 72 -22.5 c 128,-1,62
 62 -12 62 -12 51.5 -7 c 128,-1,63
 41 -2 41 -2 26 0 c 1,64,-1
 26 14 l 1,65,66
 41 17 41 17 50 21 c 128,-1,67
 59 25 59 25 64.5 31.5 c 128,-1,68
 70 38 70 38 71.5 49 c 128,-1,69
 73 60 73 60 73 78 c 2,70,-1
 73 209 l 2,71,72
 73 226 73 226 71.5 237.5 c 128,-1,73
 70 249 70 249 64.5 255.5 c 128,-1,74
 59 262 59 262 50 265.5 c 128,-1,75
 41 269 41 269 26 272 c 1,76,-1
 26 287 l 1,77,-1
 181 287 l 1,78,-1
 181 272 l 1,79,80
 166 269 166 269 156.5 265.5 c 128,-1,81
 147 262 147 262 142 255.5 c 128,-1,82
 137 249 137 249 135.5 237.5 c 128,-1,83
 134 226 134 226 134 209 c 2,84,-1
 134 20 l 1,85,-1
 237 20 l 1,86,-1
 237 287 l 1,0,-1
EndSplineSet
EndChar

StartChar: c
Encoding: 99 99 59
Width: 465
Flags: W
LayerCount: 2
Fore
SplineSet
230 -307 m 1,0,-1
 230 20 l 1,1,2
 198 0 198 0 159 0 c 0,3,4
 130 0 130 0 105.5 11 c 128,-1,5
 81 22 81 22 63.5 40.5 c 128,-1,6
 46 59 46 59 36 86 c 128,-1,7
 26 113 26 113 26 143 c 256,8,9
 26 174 26 174 36 200.5 c 128,-1,10
 46 227 46 227 63.5 246 c 128,-1,11
 81 265 81 265 105.5 276 c 128,-1,12
 130 287 130 287 159 287 c 256,13,14
 188 287 188 287 212.5 276 c 128,-1,15
 237 265 237 265 254 246 c 128,-1,16
 271 227 271 227 281.5 200.5 c 128,-1,17
 292 174 292 174 292 143 c 2,18,-1
 292 -205 l 1,19,20
 335 -205 335 -205 355 -171 c 128,-1,21
 375 -137 375 -137 375 -82 c 0,22,23
 375 -11 375 -11 370 52.5 c 128,-1,24
 365 116 365 116 358 170.5 c 128,-1,25
 351 225 351 225 346 270 c 128,-1,26
 341 315 341 315 341 348 c 0,27,28
 341 398 341 398 349.5 430 c 128,-1,29
 358 462 358 462 372 480.5 c 128,-1,30
 386 499 386 499 402.5 505.5 c 128,-1,31
 419 512 419 512 435 512 c 0,32,33
 455 512 455 512 467.5 507 c 128,-1,34
 480 502 480 502 486.5 494 c 128,-1,35
 493 486 493 486 495 477 c 128,-1,36
 497 468 497 468 497 461 c 0,37,38
 497 445 497 445 488 435.5 c 128,-1,39
 479 426 479 426 466 426 c 256,40,41
 453 426 453 426 444 435 c 128,-1,42
 435 444 435 444 435 459 c 0,43,44
 435 478 435 478 453 489 c 1,45,46
 447 491 447 491 435 492 c 0,47,48
 426 492 426 492 414 486.5 c 128,-1,49
 402 481 402 481 392.5 466 c 128,-1,50
 383 451 383 451 376.5 422.5 c 128,-1,51
 370 394 370 394 370 348 c 0,52,53
 370 308 370 308 380 257 c 128,-1,54
 390 206 390 206 402.5 150.5 c 128,-1,55
 415 95 415 95 425 39 c 128,-1,56
 435 -17 435 -17 435 -68 c 0,57,58
 435 -100 435 -100 430 -128.5 c 128,-1,59
 425 -157 425 -157 412 -179 c 128,-1,60
 399 -201 399 -201 378 -214 c 128,-1,61
 357 -227 357 -227 326 -227 c 0,62,63
 320 -227 320 -227 308 -228.5 c 128,-1,64
 296 -230 296 -230 283 -238 c 128,-1,65
 270 -246 270 -246 259.5 -262.5 c 128,-1,66
 249 -279 249 -279 245 -307 c 1,67,-1
 230 -307 l 1,0,-1
159 266 m 256,68,69
 120 266 120 266 103.5 238 c 128,-1,70
 87 210 87 210 87 143 c 256,71,72
 87 76 87 76 103.5 48 c 128,-1,73
 120 20 120 20 159 20 c 256,74,75
 198 20 198 20 214 48.5 c 128,-1,76
 230 77 230 77 230 143 c 256,77,78
 230 210 230 210 214 238 c 128,-1,79
 198 266 198 266 159 266 c 256,68,69
EndSplineSet
EndChar

StartChar: d
Encoding: 100 100 60
Width: 645
Flags: W
LayerCount: 2
Fore
SplineSet
230 287 m 1,0,-1
 230 502 l 2,1,2
 230 519 230 519 228.5 530.5 c 128,-1,3
 227 542 227 542 222 548.5 c 128,-1,4
 217 555 217 555 208 558.5 c 128,-1,5
 199 562 199 562 183 565 c 1,6,-1
 183 580 l 1,7,-1
 415 614 l 1,8,-1
 415 266 l 1,9,10
 447 286 447 286 486 287 c 0,11,12
 515 287 515 287 539.5 276 c 128,-1,13
 564 265 564 265 581.5 246 c 128,-1,14
 599 227 599 227 609.5 200.5 c 128,-1,15
 620 174 620 174 620 143 c 256,16,17
 620 112 620 112 609.5 85.5 c 128,-1,18
 599 59 599 59 581.5 40.5 c 128,-1,19
 564 22 564 22 539.5 11 c 128,-1,20
 515 0 515 0 486 0 c 256,21,22
 457 0 457 0 433 11 c 128,-1,23
 409 22 409 22 391.5 40.5 c 128,-1,24
 374 59 374 59 363.5 86 c 128,-1,25
 353 113 353 113 353 143 c 2,26,-1
 353 580 l 1,27,28
 322 580 322 580 307 567.5 c 128,-1,29
 292 555 292 555 292 516 c 2,30,-1
 292 143 l 2,31,32
 292 112 292 112 281.5 85.5 c 128,-1,33
 271 59 271 59 254 40.5 c 128,-1,34
 237 22 237 22 212 11 c 128,-1,35
 187 0 187 0 159 0 c 256,36,37
 130 0 130 0 105.5 11 c 128,-1,38
 81 22 81 22 63.5 40.5 c 128,-1,39
 46 59 46 59 36 86 c 128,-1,40
 26 113 26 113 26 143 c 0,41,42
 26 173 26 173 34 196.5 c 128,-1,43
 42 220 42 220 56 238 c 0,44,45
 63 246 63 246 63 253 c 256,46,47
 63 260 63 260 52.5 264.5 c 128,-1,48
 42 269 42 269 26 272 c 1,49,-1
 26 287 l 1,50,-1
 230 287 l 1,0,-1
159 266 m 256,51,52
 120 266 120 266 103.5 238 c 128,-1,53
 87 210 87 210 87 143 c 256,54,55
 87 76 87 76 103.5 48 c 128,-1,56
 120 20 120 20 159 20 c 256,57,58
 198 20 198 20 214 48.5 c 128,-1,59
 230 77 230 77 230 143 c 256,60,61
 230 210 230 210 214 238 c 128,-1,62
 198 266 198 266 159 266 c 256,51,52
486 20 m 256,63,64
 525 20 525 20 541.5 48.5 c 128,-1,65
 558 77 558 77 558 143 c 256,66,67
 558 210 558 210 541.5 238 c 128,-1,68
 525 266 525 266 486 266 c 256,69,70
 447 266 447 266 431 238 c 128,-1,71
 415 210 415 210 415 143 c 256,72,73
 415 76 415 76 431 48 c 128,-1,74
 447 20 447 20 486 20 c 256,63,64
EndSplineSet
EndChar

StartChar: e
Encoding: 101 101 61
Width: 307
Flags: W
LayerCount: 2
Fore
SplineSet
48 70 m 1,0,1
 64 46 64 46 86.5 33 c 128,-1,2
 109 20 109 20 132 20 c 0,3,4
 167 20 167 20 193.5 49.5 c 128,-1,5
 220 79 220 79 220 143 c 0,6,7
 220 210 220 210 203.5 238 c 128,-1,8
 187 266 187 266 148 266 c 0,9,10
 129 266 129 266 118.5 261.5 c 128,-1,11
 108 257 108 257 102 249.5 c 128,-1,12
 96 242 96 242 94 232.5 c 128,-1,13
 92 223 92 223 91 215 c 0,14,15
 89 202 89 202 85 193 c 128,-1,16
 81 184 81 184 65 184 c 0,17,18
 52 184 52 184 45.5 191 c 128,-1,19
 39 198 39 198 39 209 c 256,20,21
 39 220 39 220 46 234 c 128,-1,22
 53 248 53 248 67 259.5 c 128,-1,23
 81 271 81 271 101.5 279 c 128,-1,24
 122 287 122 287 148 287 c 0,25,26
 177 287 177 287 201.5 276 c 128,-1,27
 226 265 226 265 243.5 246 c 128,-1,28
 261 227 261 227 271.5 200.5 c 128,-1,29
 282 174 282 174 282 143 c 256,30,31
 282 112 282 112 271.5 85.5 c 128,-1,32
 261 59 261 59 243.5 40.5 c 128,-1,33
 226 22 226 22 201.5 11 c 128,-1,34
 177 0 177 0 148 0 c 0,35,36
 109 0 109 0 81.5 17.5 c 128,-1,37
 54 35 54 35 36 61 c 1,38,-1
 48 70 l 1,0,1
EndSplineSet
EndChar

StartChar: f
Encoding: 102 102 62
Width: 522
Flags: W
LayerCount: 2
Fore
SplineSet
292 266 m 1,0,1
 325 286 325 286 364 287 c 0,2,3
 393 287 393 287 417 276 c 128,-1,4
 441 265 441 265 458.5 246 c 128,-1,5
 476 227 476 227 486.5 200.5 c 128,-1,6
 497 174 497 174 497 143 c 256,7,8
 497 112 497 112 486.5 85.5 c 128,-1,9
 476 59 476 59 458.5 40.5 c 128,-1,10
 441 22 441 22 416.5 11 c 128,-1,11
 392 0 392 0 364 0 c 0,12,13
 324 0 324 0 292 20 c 1,14,-1
 292 -229 l 2,15,16
 292 -246 292 -246 293.5 -257.5 c 128,-1,17
 295 -269 295 -269 300 -276 c 128,-1,18
 305 -283 305 -283 314.5 -286.5 c 128,-1,19
 324 -290 324 -290 339 -293 c 1,20,-1
 339 -307 l 1,21,-1
 183 -307 l 1,22,-1
 183 -293 l 1,23,24
 198 -290 198 -290 207.5 -286.5 c 128,-1,25
 217 -283 217 -283 222 -276 c 128,-1,26
 227 -269 227 -269 228.5 -258 c 128,-1,27
 230 -247 230 -247 230 -229 c 2,28,-1
 230 20 l 1,29,30
 198 0 198 0 159 0 c 0,31,32
 130 0 130 0 105.5 11 c 128,-1,33
 81 22 81 22 63.5 40.5 c 128,-1,34
 46 59 46 59 36 86 c 128,-1,35
 26 113 26 113 26 143 c 256,36,37
 26 174 26 174 36 200.5 c 128,-1,38
 46 227 46 227 63.5 246 c 128,-1,39
 81 265 81 265 105.5 276 c 128,-1,40
 130 287 130 287 159 287 c 0,41,42
 199 287 199 287 230 266 c 1,43,-1
 230 516 l 2,44,45
 230 533 230 533 228.5 544.5 c 128,-1,46
 227 556 227 556 222 562.5 c 128,-1,47
 217 569 217 569 208 573 c 128,-1,48
 199 577 199 577 183 580 c 1,49,-1
 183 594 l 1,50,-1
 292 614 l 1,51,-1
 292 266 l 1,0,1
159 266 m 256,52,53
 120 266 120 266 103.5 238 c 128,-1,54
 87 210 87 210 87 143 c 256,55,56
 87 76 87 76 103.5 48 c 128,-1,57
 120 20 120 20 159 20 c 256,58,59
 198 20 198 20 214 48.5 c 128,-1,60
 230 77 230 77 230 143 c 256,61,62
 230 210 230 210 214 238 c 128,-1,63
 198 266 198 266 159 266 c 256,52,53
364 266 m 256,64,65
 325 266 325 266 308.5 238 c 128,-1,66
 292 210 292 210 292 143 c 256,67,68
 292 76 292 76 308.5 48 c 128,-1,69
 325 20 325 20 364 20 c 256,70,71
 403 20 403 20 419 48.5 c 128,-1,72
 435 77 435 77 435 143 c 256,73,74
 435 210 435 210 419 238 c 128,-1,75
 403 266 403 266 364 266 c 256,64,65
EndSplineSet
EndChar

StartChar: g
Encoding: 103 103 63
Width: 645
Flags: W
LayerCount: 2
Fore
SplineSet
292 143 m 1,0,-1
 292 -205 l 1,1,2
 302 -205 302 -205 313 -202.5 c 128,-1,3
 324 -200 324 -200 333 -193 c 128,-1,4
 342 -186 342 -186 347.5 -174.5 c 128,-1,5
 353 -163 353 -163 353 -143 c 2,6,-1
 353 143 l 2,7,8
 353 174 353 174 363.5 200.5 c 128,-1,9
 374 227 374 227 391.5 246 c 128,-1,10
 409 265 409 265 433.5 276 c 128,-1,11
 458 287 458 287 486 287 c 256,12,13
 515 287 515 287 539.5 276 c 128,-1,14
 564 265 564 265 581.5 246 c 128,-1,15
 599 227 599 227 609.5 200.5 c 128,-1,16
 620 174 620 174 620 143 c 256,17,18
 620 112 620 112 609.5 85.5 c 128,-1,19
 599 59 599 59 581.5 40.5 c 128,-1,20
 564 22 564 22 539.5 11 c 128,-1,21
 515 0 515 0 486 0 c 0,22,23
 446 0 446 0 415 20 c 1,24,-1
 415 -127 l 2,25,26
 415 -144 415 -144 416.5 -155.5 c 128,-1,27
 418 -167 418 -167 423 -173.5 c 128,-1,28
 428 -180 428 -180 437 -183.5 c 128,-1,29
 446 -187 446 -187 462 -190 c 1,30,-1
 462 -205 l 1,31,-1
 404 -205 l 2,32,33
 343 -205 343 -205 301.5 -233 c 128,-1,34
 260 -261 260 -261 245 -307 c 1,35,-1
 230 -307 l 1,36,-1
 230 20 l 1,37,38
 198 0 198 0 159 0 c 0,39,40
 130 0 130 0 105.5 11 c 128,-1,41
 81 22 81 22 63.5 40.5 c 128,-1,42
 46 59 46 59 36 86 c 128,-1,43
 26 113 26 113 26 143 c 256,44,45
 26 174 26 174 36 200.5 c 128,-1,46
 46 227 46 227 63.5 246 c 128,-1,47
 81 265 81 265 105.5 276 c 128,-1,48
 130 287 130 287 159 287 c 0,49,50
 185 287 185 287 200.5 281 c 128,-1,51
 216 275 216 275 224 270 c 0,52,53
 234 265 234 265 243.5 267.5 c 128,-1,54
 253 270 253 270 261 287 c 1,55,-1
 292 287 l 1,56,-1
 292 143 l 1,0,-1
486 266 m 256,57,58
 447 266 447 266 431 238 c 128,-1,59
 415 210 415 210 415 143 c 256,60,61
 415 76 415 76 431 48 c 128,-1,62
 447 20 447 20 486 20 c 256,63,64
 525 20 525 20 541.5 48.5 c 128,-1,65
 558 77 558 77 558 143 c 256,66,67
 558 210 558 210 541.5 238 c 128,-1,68
 525 266 525 266 486 266 c 256,57,58
159 266 m 256,69,70
 120 266 120 266 103.5 238 c 128,-1,71
 87 210 87 210 87 143 c 256,72,73
 87 76 87 76 103.5 48 c 128,-1,74
 120 20 120 20 159 20 c 256,75,76
 198 20 198 20 214 48.5 c 128,-1,77
 230 77 230 77 230 143 c 256,78,79
 230 210 230 210 214 238 c 128,-1,80
 198 266 198 266 159 266 c 256,69,70
EndSplineSet
EndChar

StartChar: h
Encoding: 104 104 64
Width: 487
Flags: W
LayerCount: 2
Fore
SplineSet
73 414 m 2,0,1
 73 431 73 431 71.5 442.5 c 128,-1,2
 70 454 70 454 64.5 460.5 c 128,-1,3
 59 467 59 467 50 470.5 c 128,-1,4
 41 474 41 474 26 477 c 1,5,-1
 26 492 l 1,6,-1
 134 512 l 1,7,-1
 134 -205 l 1,8,9
 144 -205 144 -205 155 -202.5 c 128,-1,10
 166 -200 166 -200 175 -193 c 128,-1,11
 184 -186 184 -186 190 -174.5 c 128,-1,12
 196 -163 196 -163 196 -143 c 2,13,-1
 196 143 l 2,14,15
 196 174 196 174 206 200.5 c 128,-1,16
 216 227 216 227 233.5 246 c 128,-1,17
 251 265 251 265 275.5 276 c 128,-1,18
 300 287 300 287 329 287 c 256,19,20
 358 287 358 287 382.5 276 c 128,-1,21
 407 265 407 265 424 246 c 128,-1,22
 441 227 441 227 451.5 200.5 c 128,-1,23
 462 174 462 174 462 143 c 256,24,25
 462 112 462 112 451.5 85.5 c 128,-1,26
 441 59 441 59 424 40.5 c 128,-1,27
 407 22 407 22 382 11 c 128,-1,28
 357 0 357 0 329 0 c 0,29,30
 289 0 289 0 257 20 c 1,31,-1
 257 -127 l 2,32,33
 257 -144 257 -144 258.5 -155.5 c 128,-1,34
 260 -167 260 -167 265 -173.5 c 128,-1,35
 270 -180 270 -180 279.5 -183.5 c 128,-1,36
 289 -187 289 -187 304 -190 c 1,37,-1
 304 -205 l 1,38,-1
 247 -205 l 2,39,40
 186 -205 186 -205 144 -233 c 128,-1,41
 102 -261 102 -261 87 -307 c 1,42,-1
 73 -307 l 1,43,-1
 73 414 l 2,0,1
329 266 m 256,44,45
 290 266 290 266 273.5 238 c 128,-1,46
 257 210 257 210 257 143 c 256,47,48
 257 76 257 76 273.5 48 c 128,-1,49
 290 20 290 20 329 20 c 256,50,51
 368 20 368 20 384 48.5 c 128,-1,52
 400 77 400 77 400 143 c 256,53,54
 400 210 400 210 384 238 c 128,-1,55
 368 266 368 266 329 266 c 256,44,45
EndSplineSet
EndChar

StartChar: i
Encoding: 105 105 65
Width: 522
Flags: W
LayerCount: 2
Fore
SplineSet
198 261 m 1,0,1
 192 265 192 265 181 267 c 128,-1,2
 170 269 170 269 162 269 c 0,3,4
 138 269 138 269 124 260 c 128,-1,5
 110 251 110 251 101.5 234 c 128,-1,6
 93 217 93 217 90 194 c 128,-1,7
 87 171 87 171 87 143 c 0,8,9
 87 76 87 76 103.5 48 c 128,-1,10
 120 20 120 20 159 20 c 256,11,12
 198 20 198 20 214 48.5 c 128,-1,13
 230 77 230 77 230 143 c 0,14,15
 230 174 230 174 240.5 200.5 c 128,-1,16
 251 227 251 227 268.5 246 c 128,-1,17
 286 265 286 265 310.5 276 c 128,-1,18
 335 287 335 287 364 287 c 256,19,20
 393 287 393 287 417 276 c 128,-1,21
 441 265 441 265 458.5 246 c 128,-1,22
 476 227 476 227 486.5 200.5 c 128,-1,23
 497 174 497 174 497 143 c 256,24,25
 497 112 497 112 486.5 85.5 c 128,-1,26
 476 59 476 59 458.5 40.5 c 128,-1,27
 441 22 441 22 416.5 11 c 128,-1,28
 392 0 392 0 364 0 c 0,29,30
 346 0 346 0 334.5 3.5 c 128,-1,31
 323 7 323 7 316 11 c 1,32,-1
 325 26 l 1,33,34
 331 22 331 22 341.5 19.5 c 128,-1,35
 352 17 352 17 360 17 c 0,36,37
 383 17 383 17 398 26.5 c 128,-1,38
 413 36 413 36 421 53 c 128,-1,39
 429 70 429 70 432 92.5 c 128,-1,40
 435 115 435 115 435 142 c 0,41,42
 435 209 435 209 418.5 237.5 c 128,-1,43
 402 266 402 266 364 266 c 256,44,45
 325 266 325 266 308.5 238 c 128,-1,46
 292 210 292 210 292 143 c 0,47,48
 291 81 291 81 254 40.5 c 128,-1,49
 217 0 217 0 159 0 c 0,50,51
 130 0 130 0 105.5 11 c 128,-1,52
 81 22 81 22 63.5 40.5 c 128,-1,53
 46 59 46 59 36 86 c 128,-1,54
 26 113 26 113 26 143 c 256,55,56
 26 174 26 174 36 200.5 c 128,-1,57
 46 227 46 227 63.5 246 c 128,-1,58
 81 265 81 265 105.5 276 c 128,-1,59
 130 287 130 287 159 287 c 0,60,61
 177 287 177 287 188.5 283.5 c 128,-1,62
 200 280 200 280 206 275 c 1,63,-1
 198 261 l 1,0,1
EndSplineSet
EndChar

StartChar: j
Encoding: 106 106 66
Width: 752
Flags: W
LayerCount: 2
Fore
SplineSet
201 -170 m 1,0,1
 196 -143 196 -143 187 -134 c 128,-1,2
 178 -125 178 -125 154 -123 c 1,3,-1
 154 20 l 1,4,5
 131 14 131 14 115.5 0 c 128,-1,6
 100 -14 100 -14 90.5 -33.5 c 128,-1,7
 81 -53 81 -53 76.5 -76 c 128,-1,8
 72 -99 72 -99 72 -123 c 0,9,10
 72 -175 72 -175 85.5 -209.5 c 128,-1,11
 99 -244 99 -244 122.5 -263 c 128,-1,12
 146 -282 146 -282 178.5 -287.5 c 128,-1,13
 211 -293 211 -293 247 -287 c 1,14,-1
 253 -297 l 1,15,16
 228 -304 228 -304 187 -302.5 c 128,-1,17
 146 -301 146 -301 107 -283 c 128,-1,18
 68 -265 68 -265 39 -227 c 128,-1,19
 10 -189 10 -189 10 -123 c 0,20,21
 10 -89 10 -89 21.5 -62 c 128,-1,22
 33 -35 33 -35 52.5 -13.5 c 128,-1,23
 72 8 72 8 98 24 c 128,-1,24
 124 40 124 40 154 49 c 1,25,-1
 154 225 l 2,26,27
 154 254 154 254 148.5 261.5 c 128,-1,28
 143 269 143 269 123 272 c 1,29,-1
 123 287 l 1,30,-1
 215 307 l 1,31,-1
 215 62 l 1,32,33
 228 64 228 64 255 68 c 128,-1,34
 282 72 282 72 317 72 c 1,35,-1
 317 225 l 2,36,37
 317 254 317 254 312 261.5 c 128,-1,38
 307 269 307 269 287 272 c 1,39,-1
 287 287 l 1,40,-1
 379 307 l 1,41,-1
 379 68 l 1,42,43
 405 64 405 64 428.5 58.5 c 128,-1,44
 452 53 452 53 481 45 c 1,45,-1
 481 225 l 2,46,47
 481 254 481 254 476 261.5 c 128,-1,48
 471 269 471 269 451 272 c 1,49,-1
 451 287 l 1,50,-1
 543 307 l 1,51,-1
 543 269 l 1,52,53
 555 277 555 277 569.5 282 c 128,-1,54
 584 287 584 287 604 287 c 0,55,56
 633 287 633 287 656 275 c 128,-1,57
 679 263 679 263 695 243 c 128,-1,58
 711 223 711 223 719 197.5 c 128,-1,59
 727 172 727 172 727 143 c 0,60,61
 727 105 727 105 715 78 c 128,-1,62
 703 51 703 51 685.5 33.5 c 128,-1,63
 668 16 668 16 646.5 8 c 128,-1,64
 625 0 625 0 604 0 c 2,65,-1
 543 0 l 1,66,-1
 543 -170 l 1,67,-1
 528 -170 l 1,68,69
 523 -143 523 -143 514.5 -134 c 128,-1,70
 506 -125 506 -125 481 -123 c 1,71,-1
 481 0 l 1,72,73
 470 0 470 0 441 1.5 c 128,-1,74
 412 3 412 3 379 6 c 1,75,-1
 379 -170 l 1,76,-1
 365 -170 l 1,77,78
 360 -143 360 -143 351 -134 c 128,-1,79
 342 -125 342 -125 317 -123 c 1,80,-1
 317 14 l 1,81,82
 289 19 289 19 267.5 25 c 128,-1,83
 246 31 246 31 215 31 c 1,84,-1
 215 -170 l 1,85,-1
 201 -170 l 1,0,1
543 31 m 1,86,87
 558 28 558 28 572.5 25.5 c 128,-1,88
 587 23 587 23 604 23 c 0,89,90
 622 23 622 23 634 28.5 c 128,-1,91
 646 34 646 34 652.5 47.5 c 128,-1,92
 659 61 659 61 662.5 84.5 c 128,-1,93
 666 108 666 108 666 143 c 0,94,95
 666 174 666 174 664.5 197 c 128,-1,96
 663 220 663 220 656.5 235.5 c 128,-1,97
 650 251 650 251 638 258.5 c 128,-1,98
 626 266 626 266 604 266 c 0,99,100
 571 266 571 266 557 238.5 c 128,-1,101
 543 211 543 211 543 156 c 2,102,-1
 543 31 l 1,86,87
EndSplineSet
EndChar

StartChar: k
Encoding: 107 107 67
Width: 305
Flags: W
LayerCount: 2
Fore
SplineSet
129 20 m 2,0,1
 164 20 164 20 190.5 49.5 c 128,-1,2
 217 79 217 79 217 143 c 0,3,4
 217 210 217 210 200.5 238 c 128,-1,5
 184 266 184 266 145 266 c 0,6,7
 126 266 126 266 115 261.5 c 128,-1,8
 104 257 104 257 98.5 249.5 c 128,-1,9
 93 242 93 242 91 232.5 c 128,-1,10
 89 223 89 223 88 215 c 0,11,12
 86 202 86 202 82 193 c 128,-1,13
 78 184 78 184 61 184 c 0,14,15
 48 184 48 184 42 191 c 128,-1,16
 36 198 36 198 36 209 c 256,17,18
 36 220 36 220 43 234 c 128,-1,19
 50 248 50 248 64 259.5 c 128,-1,20
 78 271 78 271 98.5 279 c 128,-1,21
 119 287 119 287 145 287 c 0,22,23
 174 287 174 287 198.5 276 c 128,-1,24
 223 265 223 265 240.5 246 c 128,-1,25
 258 227 258 227 268.5 200.5 c 128,-1,26
 279 174 279 174 279 143 c 256,27,28
 279 112 279 112 268.5 85.5 c 128,-1,29
 258 59 258 59 240.5 40.5 c 128,-1,30
 223 22 223 22 198.5 11 c 128,-1,31
 174 0 174 0 145 0 c 2,32,-1
 115 0 l 1,33,34
 134 -4 134 -4 153 -15 c 128,-1,35
 172 -26 172 -26 186 -45.5 c 128,-1,36
 200 -65 200 -65 208.5 -94 c 128,-1,37
 217 -123 217 -123 217 -164 c 0,38,39
 217 -201 217 -201 223 -224.5 c 128,-1,40
 229 -248 229 -248 240 -261.5 c 128,-1,41
 251 -275 251 -275 266 -281 c 128,-1,42
 281 -287 281 -287 299 -287 c 0,43,44
 338 -287 338 -287 354.5 -267 c 128,-1,45
 371 -247 371 -247 365 -228 c 1,46,47
 354 -245 354 -245 334 -246 c 0,48,49
 320 -246 320 -246 310.5 -237 c 128,-1,50
 301 -228 301 -228 301 -215 c 256,51,52
 301 -202 301 -202 310 -193 c 128,-1,53
 319 -184 319 -184 336 -184 c 0,54,55
 359 -184 359 -184 373 -197 c 128,-1,56
 387 -210 387 -210 387 -237 c 0,57,58
 387 -257 387 -257 378 -270.5 c 128,-1,59
 369 -284 369 -284 355.5 -292 c 128,-1,60
 342 -300 342 -300 326.5 -303.5 c 128,-1,61
 311 -307 311 -307 299 -307 c 0,62,63
 275 -307 275 -307 250 -300.5 c 128,-1,64
 225 -294 225 -294 204 -277 c 128,-1,65
 183 -260 183 -260 169.5 -233 c 128,-1,66
 156 -206 156 -206 156 -164 c 0,67,68
 156 -109 156 -109 143.5 -76.5 c 128,-1,69
 131 -44 131 -44 114 -27 c 128,-1,70
 97 -10 97 -10 79.5 -5 c 128,-1,71
 62 0 62 0 53 0 c 1,72,-1
 53 20 l 1,73,-1
 129 20 l 2,0,1
EndSplineSet
EndChar

StartChar: l
Encoding: 108 108 68
Width: 645
Flags: W
LayerCount: 2
Fore
SplineSet
230 414 m 2,0,1
 230 431 230 431 228.5 442.5 c 128,-1,2
 227 454 227 454 222 460.5 c 128,-1,3
 217 467 217 467 208 470.5 c 128,-1,4
 199 474 199 474 183 477 c 1,5,-1
 183 492 l 1,6,-1
 462 492 l 1,7,-1
 462 477 l 1,8,9
 447 474 447 474 437.5 470.5 c 128,-1,10
 428 467 428 467 423 460.5 c 128,-1,11
 418 454 418 454 416.5 442.5 c 128,-1,12
 415 431 415 431 415 414 c 2,13,-1
 415 287 l 1,14,-1
 486 287 l 2,15,16
 515 287 515 287 539.5 276 c 128,-1,17
 564 265 564 265 581.5 246 c 128,-1,18
 599 227 599 227 609.5 200.5 c 128,-1,19
 620 174 620 174 620 143 c 256,20,21
 620 112 620 112 609.5 85.5 c 128,-1,22
 599 59 599 59 581.5 40.5 c 128,-1,23
 564 22 564 22 539.5 11 c 128,-1,24
 515 0 515 0 486 0 c 256,25,26
 457 0 457 0 433 11 c 128,-1,27
 409 22 409 22 391.5 40.5 c 128,-1,28
 374 59 374 59 363.5 86 c 128,-1,29
 353 113 353 113 353 143 c 2,30,-1
 353 266 l 1,31,-1
 292 266 l 1,32,-1
 292 143 l 2,33,34
 292 112 292 112 281.5 85.5 c 128,-1,35
 271 59 271 59 254 40.5 c 128,-1,36
 237 22 237 22 212 11 c 128,-1,37
 187 0 187 0 159 0 c 256,38,39
 130 0 130 0 105.5 11 c 128,-1,40
 81 22 81 22 63.5 40.5 c 128,-1,41
 46 59 46 59 36 86 c 128,-1,42
 26 113 26 113 26 143 c 256,43,44
 26 174 26 174 36 200.5 c 128,-1,45
 46 227 46 227 63.5 246 c 128,-1,46
 81 265 81 265 105.5 276 c 128,-1,47
 130 287 130 287 159 287 c 2,48,-1
 230 287 l 1,49,-1
 230 414 l 2,0,1
292 287 m 1,50,-1
 353 287 l 1,51,-1
 353 471 l 1,52,-1
 292 471 l 1,53,-1
 292 287 l 1,50,-1
159 266 m 256,54,55
 120 266 120 266 103.5 238 c 128,-1,56
 87 210 87 210 87 143 c 256,57,58
 87 76 87 76 103.5 48 c 128,-1,59
 120 20 120 20 159 20 c 256,60,61
 198 20 198 20 214 48.5 c 128,-1,62
 230 77 230 77 230 143 c 256,63,64
 230 210 230 210 214 238 c 128,-1,65
 198 266 198 266 159 266 c 256,54,55
486 266 m 256,66,67
 447 266 447 266 431 238 c 128,-1,68
 415 210 415 210 415 143 c 256,69,70
 415 76 415 76 431 48 c 128,-1,71
 447 20 447 20 486 20 c 256,72,73
 525 20 525 20 541.5 48.5 c 128,-1,74
 558 77 558 77 558 143 c 256,75,76
 558 210 558 210 541.5 238 c 128,-1,77
 525 266 525 266 486 266 c 256,66,67
EndSplineSet
EndChar

StartChar: m
Encoding: 109 109 69
Width: 529
Flags: W
LayerCount: 2
Fore
SplineSet
26 14 m 1,0,1
 41 17 41 17 50 21 c 128,-1,2
 59 25 59 25 64.5 31.5 c 128,-1,3
 70 38 70 38 71.5 49 c 128,-1,4
 73 60 73 60 73 78 c 2,5,-1
 73 209 l 2,6,7
 73 226 73 226 71.5 237.5 c 128,-1,8
 70 249 70 249 64.5 255.5 c 128,-1,9
 59 262 59 262 50 265.5 c 128,-1,10
 41 269 41 269 26 272 c 1,11,-1
 26 287 l 1,12,-1
 134 307 l 1,13,-1
 134 215 l 1,14,15
 148 258 148 258 172 282.5 c 128,-1,16
 196 307 196 307 232 307 c 0,17,18
 261 307 261 307 279.5 287.5 c 128,-1,19
 298 268 298 268 298 215 c 1,20,21
 312 258 312 258 335.5 282.5 c 128,-1,22
 359 307 359 307 396 307 c 0,23,24
 425 307 425 307 443.5 287.5 c 128,-1,25
 462 268 462 268 462 215 c 2,26,-1
 462 78 l 2,27,28
 462 61 462 61 463.5 49.5 c 128,-1,29
 465 38 465 38 470 31.5 c 128,-1,30
 475 25 475 25 484.5 21 c 128,-1,31
 494 17 494 17 509 14 c 1,32,-1
 509 0 l 1,33,-1
 400 0 l 1,34,-1
 400 225 l 2,35,36
 400 255 400 255 391.5 263.5 c 128,-1,37
 383 272 383 272 370 272 c 0,38,39
 358 272 358 272 345 258.5 c 128,-1,40
 332 245 332 245 321.5 222 c 128,-1,41
 311 199 311 199 304.5 168.5 c 128,-1,42
 298 138 298 138 298 106 c 2,43,-1
 298 78 l 2,44,45
 298 61 298 61 299.5 49.5 c 128,-1,46
 301 38 301 38 306 31.5 c 128,-1,47
 311 25 311 25 320.5 21 c 128,-1,48
 330 17 330 17 345 14 c 1,49,-1
 345 0 l 1,50,-1
 237 0 l 1,51,-1
 237 225 l 2,52,53
 237 255 237 255 228 263.5 c 128,-1,54
 219 272 219 272 206 272 c 0,55,56
 194 272 194 272 181 258.5 c 128,-1,57
 168 245 168 245 157.5 222 c 128,-1,58
 147 199 147 199 140.5 168.5 c 128,-1,59
 134 138 134 138 134 106 c 2,60,-1
 134 78 l 2,61,62
 134 61 134 61 135.5 49.5 c 128,-1,63
 137 38 137 38 142 31.5 c 128,-1,64
 147 25 147 25 156.5 21 c 128,-1,65
 166 17 166 17 181 14 c 1,66,-1
 181 0 l 1,67,-1
 26 0 l 1,68,-1
 26 14 l 1,0,1
EndSplineSet
EndChar

StartChar: n
Encoding: 110 110 70
Width: 369
Flags: W
LayerCount: 2
Fore
SplineSet
129 266 m 1,0,-1
 129 20 l 1,1,-1
 160 20 l 2,2,3
 200 20 200 20 224 37 c 128,-1,4
 248 54 248 54 260.5 79 c 128,-1,5
 273 104 273 104 278 132.5 c 128,-1,6
 283 161 283 161 283 184 c 2,7,-1
 283 266 l 1,8,-1
 129 266 l 1,0,-1
344 184 m 2,9,10
 344 144 344 144 331.5 110.5 c 128,-1,11
 319 77 319 77 295.5 52.5 c 128,-1,12
 272 28 272 28 238 14 c 128,-1,13
 204 0 204 0 160 0 c 2,14,-1
 129 0 l 1,15,16
 165 -15 165 -15 202.5 -69 c 128,-1,17
 240 -123 240 -123 290 -215 c 0,18,19
 302 -239 302 -239 315.5 -252.5 c 128,-1,20
 329 -266 329 -266 341.5 -274 c 128,-1,21
 354 -282 354 -282 365.5 -284.5 c 128,-1,22
 377 -287 377 -287 386 -287 c 0,23,24
 429 -287 429 -287 445 -268 c 128,-1,25
 461 -249 461 -249 455 -228 c 1,26,27
 444 -245 444 -245 424 -246 c 0,28,29
 410 -246 410 -246 400.5 -237 c 128,-1,30
 391 -228 391 -228 391 -215 c 256,31,32
 391 -202 391 -202 400.5 -193 c 128,-1,33
 410 -184 410 -184 426 -184 c 0,34,35
 449 -184 449 -184 463 -197 c 128,-1,36
 477 -210 477 -210 477 -237 c 0,37,38
 477 -256 477 -256 469 -269.5 c 128,-1,39
 461 -283 461 -283 447.5 -291.5 c 128,-1,40
 434 -300 434 -300 417.5 -303.5 c 128,-1,41
 401 -307 401 -307 385 -307 c 0,42,43
 347 -307 347 -307 318 -290.5 c 128,-1,44
 289 -274 289 -274 264.5 -248 c 128,-1,45
 240 -222 240 -222 218.5 -190 c 128,-1,46
 197 -158 197 -158 174.5 -126 c 128,-1,47
 152 -94 152 -94 125.5 -66 c 128,-1,48
 99 -38 99 -38 68 -20 c 1,49,-1
 68 209 l 2,50,51
 68 226 68 226 66.5 237.5 c 128,-1,52
 65 249 65 249 59.5 255.5 c 128,-1,53
 54 262 54 262 45 265.5 c 128,-1,54
 36 269 36 269 20 272 c 1,55,-1
 20 287 l 1,56,-1
 344 287 l 1,57,-1
 344 184 l 2,9,10
EndSplineSet
EndChar

StartChar: o
Encoding: 111 111 71
Width: 350
Flags: W
LayerCount: 2
Fore
SplineSet
292 -174 m 2,0,1
 292 -197 292 -197 293 -210 c 128,-1,2
 294 -223 294 -223 297 -231.5 c 128,-1,3
 300 -240 300 -240 304 -245.5 c 128,-1,4
 308 -251 308 -251 314 -258 c 1,5,-1
 305 -269 l 1,6,7
 294 -262 294 -262 284.5 -261.5 c 128,-1,8
 275 -261 275 -261 267 -264.5 c 128,-1,9
 259 -268 259 -268 250 -275 c 128,-1,10
 241 -282 241 -282 228 -289 c 0,11,12
 215 -297 215 -297 197.5 -302 c 128,-1,13
 180 -307 180 -307 159 -307 c 0,14,15
 130 -307 130 -307 105.5 -297 c 128,-1,16
 81 -287 81 -287 63.5 -269 c 128,-1,17
 46 -251 46 -251 36 -226 c 128,-1,18
 26 -201 26 -201 26 -171 c 256,19,20
 26 -141 26 -141 36 -116 c 128,-1,21
 46 -91 46 -91 63.5 -73 c 128,-1,22
 81 -55 81 -55 105.5 -45 c 128,-1,23
 130 -35 130 -35 159 -35 c 0,24,25
 186 -35 186 -35 204 -42 c 128,-1,26
 222 -49 222 -49 230 -55 c 1,27,-1
 230 34 l 1,28,29
 216 26 216 26 198.5 20 c 128,-1,30
 181 14 181 14 159 14 c 0,31,32
 130 14 130 14 105.5 24.5 c 128,-1,33
 81 35 81 35 63.5 53 c 128,-1,34
 46 71 46 71 36 96 c 128,-1,35
 26 121 26 121 26 151 c 256,36,37
 26 181 26 181 36 205.5 c 128,-1,38
 46 230 46 230 63.5 248 c 128,-1,39
 81 266 81 266 105.5 276.5 c 128,-1,40
 130 287 130 287 159 287 c 0,41,42
 185 287 185 287 200.5 280.5 c 128,-1,43
 216 274 216 274 224 270 c 0,44,45
 234 265 234 265 246.5 270 c 128,-1,46
 259 275 259 275 261 287 c 1,47,-1
 292 287 l 1,48,-1
 292 -174 l 2,0,1
159 -55 m 256,49,50
 120 -55 120 -55 103.5 -82 c 128,-1,51
 87 -109 87 -109 87 -171 c 256,52,53
 87 -233 87 -233 103.5 -260 c 128,-1,54
 120 -287 120 -287 159 -287 c 256,55,56
 198 -287 198 -287 214 -260 c 128,-1,57
 230 -233 230 -233 230 -171 c 256,58,59
 230 -109 230 -109 214 -82 c 128,-1,60
 198 -55 198 -55 159 -55 c 256,49,50
159 266 m 256,61,62
 120 266 120 266 103.5 239.5 c 128,-1,63
 87 213 87 213 87 151 c 256,64,65
 87 89 87 89 103.5 62 c 128,-1,66
 120 35 120 35 159 35 c 256,67,68
 198 35 198 35 214 61.5 c 128,-1,69
 230 88 230 88 230 151 c 256,70,71
 230 213 230 213 214 239.5 c 128,-1,72
 198 266 198 266 159 266 c 256,61,62
EndSplineSet
EndChar

StartChar: p
Encoding: 112 112 72
Width: 482
Flags: W
LayerCount: 2
Fore
SplineSet
129 10 m 2,0,1
 129 -64 129 -64 137 -119.5 c 128,-1,2
 145 -175 145 -175 166 -212.5 c 128,-1,3
 187 -250 187 -250 222.5 -268.5 c 128,-1,4
 258 -287 258 -287 313 -287 c 0,5,6
 327 -287 327 -287 350.5 -282.5 c 128,-1,7
 374 -278 374 -278 394.5 -267.5 c 128,-1,8
 415 -257 415 -257 427.5 -240 c 128,-1,9
 440 -223 440 -223 434 -198 c 1,10,11
 423 -215 423 -215 403 -215 c 0,12,13
 389 -215 389 -215 380 -206.5 c 128,-1,14
 371 -198 371 -198 371 -184 c 256,15,16
 371 -171 371 -171 380 -162.5 c 128,-1,17
 389 -154 389 -154 406 -154 c 0,18,19
 429 -154 429 -154 443 -166.5 c 128,-1,20
 457 -179 457 -179 457 -206 c 0,21,22
 457 -226 457 -226 448 -244 c 128,-1,23
 439 -262 439 -262 419.5 -276.5 c 128,-1,24
 400 -291 400 -291 369 -299 c 128,-1,25
 338 -307 338 -307 293 -307 c 0,26,27
 68 -307 68 -307 68 -10 c 2,28,-1
 68 209 l 2,29,30
 68 226 68 226 66.5 237.5 c 128,-1,31
 65 249 65 249 59.5 255.5 c 128,-1,32
 54 262 54 262 45 265.5 c 128,-1,33
 36 269 36 269 20 272 c 1,34,-1
 20 287 l 1,35,-1
 324 287 l 2,36,37
 353 287 353 287 377 276 c 128,-1,38
 401 265 401 265 418.5 246 c 128,-1,39
 436 227 436 227 446.5 200.5 c 128,-1,40
 457 174 457 174 457 143 c 256,41,42
 457 112 457 112 446.5 85.5 c 128,-1,43
 436 59 436 59 418.5 40.5 c 128,-1,44
 401 22 401 22 376.5 11 c 128,-1,45
 352 0 352 0 324 0 c 256,46,47
 295 0 295 0 270.5 11 c 128,-1,48
 246 22 246 22 228.5 40.5 c 128,-1,49
 211 59 211 59 200.5 86 c 128,-1,50
 190 113 190 113 190 143 c 0,51,52
 190 184 190 184 206.5 216 c 128,-1,53
 223 248 223 248 252 266 c 1,54,-1
 129 266 l 1,55,-1
 129 10 l 2,0,1
324 20 m 256,56,57
 363 20 363 20 379 48.5 c 128,-1,58
 395 77 395 77 395 143 c 256,59,60
 395 210 395 210 378.5 238 c 128,-1,61
 362 266 362 266 324 266 c 256,62,63
 285 266 285 266 268.5 238 c 128,-1,64
 252 210 252 210 252 143 c 256,65,66
 252 76 252 76 268.5 48 c 128,-1,67
 285 20 285 20 324 20 c 256,56,57
EndSplineSet
EndChar

StartChar: q
Encoding: 113 113 73
Width: 578
Flags: W
LayerCount: 2
Fore
SplineSet
215 266 m 1,0,-1
 215 27 l 1,1,-1
 317 72 l 1,2,-1
 317 266 l 1,3,-1
 215 266 l 1,0,-1
543 146 m 1,4,-1
 182 -11 l 2,5,6
 160 -20 160 -20 139.5 -32 c 128,-1,7
 119 -44 119 -44 102 -61 c 128,-1,8
 85 -78 85 -78 75 -103 c 128,-1,9
 65 -128 65 -128 65 -163 c 0,10,11
 65 -196 65 -196 73 -219.5 c 128,-1,12
 81 -243 81 -243 94.5 -257.5 c 128,-1,13
 108 -272 108 -272 124.5 -279.5 c 128,-1,14
 141 -287 141 -287 159 -287 c 0,15,16
 190 -287 190 -287 207 -278.5 c 128,-1,17
 224 -270 224 -270 233 -259.5 c 128,-1,18
 242 -249 242 -249 243.5 -239.5 c 128,-1,19
 245 -230 245 -230 244 -228 c 1,20,21
 233 -245 233 -245 213 -246 c 0,22,23
 199 -246 199 -246 189.5 -237 c 128,-1,24
 180 -228 180 -228 180 -215 c 256,25,26
 180 -202 180 -202 189.5 -193 c 128,-1,27
 199 -184 199 -184 215 -184 c 0,28,29
 238 -184 238 -184 252 -197 c 128,-1,30
 266 -210 266 -210 266 -237 c 0,31,32
 266 -246 266 -246 261 -258 c 128,-1,33
 256 -270 256 -270 243.5 -281 c 128,-1,34
 231 -292 231 -292 210.5 -299.5 c 128,-1,35
 190 -307 190 -307 159 -307 c 0,36,37
 112 -307 112 -307 82.5 -291.5 c 128,-1,38
 53 -276 53 -276 37.5 -254 c 128,-1,39
 22 -232 22 -232 16 -209 c 128,-1,40
 10 -186 10 -186 10 -171 c 0,41,42
 10 -130 10 -130 25 -101.5 c 128,-1,43
 40 -73 40 -73 62 -53.5 c 128,-1,44
 84 -34 84 -34 109 -21.5 c 128,-1,45
 134 -9 134 -9 154 0 c 1,46,-1
 154 209 l 2,47,48
 154 226 154 226 152.5 237.5 c 128,-1,49
 151 249 151 249 145.5 255.5 c 128,-1,50
 140 262 140 262 131 265.5 c 128,-1,51
 122 269 122 269 106 272 c 1,52,-1
 106 287 l 1,53,-1
 543 287 l 1,54,-1
 543 146 l 1,4,-1
379 98 m 1,55,-1
 481 143 l 1,56,-1
 481 266 l 1,57,-1
 379 266 l 1,58,-1
 379 98 l 1,55,-1
EndSplineSet
EndChar

StartChar: r
Encoding: 114 114 74
Width: 325
Flags: W
LayerCount: 2
Fore
SplineSet
167 287 m 0,0,1
 196 287 196 287 220.5 276 c 128,-1,2
 245 265 245 265 262.5 246 c 128,-1,3
 280 227 280 227 290 200.5 c 128,-1,4
 300 174 300 174 300 143 c 256,5,6
 300 112 300 112 290 85.5 c 128,-1,7
 280 59 280 59 262.5 40.5 c 128,-1,8
 245 22 245 22 220.5 11 c 128,-1,9
 196 0 196 0 167 0 c 0,10,11
 144 0 144 0 119.5 8 c 128,-1,12
 95 16 95 16 74 39.5 c 128,-1,13
 53 63 53 63 39.5 105.5 c 128,-1,14
 26 148 26 148 26 217 c 0,15,16
 26 235 26 235 27 263 c 128,-1,17
 28 291 28 291 31.5 321.5 c 128,-1,18
 35 352 35 352 43 382.5 c 128,-1,19
 51 413 51 413 64.5 437 c 128,-1,20
 78 461 78 461 98 476.5 c 128,-1,21
 118 492 118 492 146 492 c 0,22,23
 172 492 172 492 185 482 c 128,-1,24
 198 472 198 472 206.5 461 c 128,-1,25
 215 450 215 450 222 440 c 128,-1,26
 229 430 229 430 245 430 c 0,27,28
 252 430 252 430 258 432 c 128,-1,29
 264 434 264 434 268.5 442.5 c 128,-1,30
 273 451 273 451 276.5 467 c 128,-1,31
 280 483 280 483 280 512 c 1,32,-1
 300 512 l 1,33,-1
 300 463 l 2,34,35
 300 430 300 430 295 411 c 128,-1,36
 290 392 290 392 282 383 c 128,-1,37
 274 374 274 374 265 371.5 c 128,-1,38
 256 369 256 369 249 369 c 0,39,40
 226 369 226 369 216 384.5 c 128,-1,41
 206 400 206 400 199.5 419.5 c 128,-1,42
 193 439 193 439 184.5 455 c 128,-1,43
 176 471 176 471 157 471 c 0,44,45
 137 471 137 471 123.5 452 c 128,-1,46
 110 433 110 433 101 403.5 c 128,-1,47
 92 374 92 374 88.5 335.5 c 128,-1,48
 85 297 85 297 85 259 c 1,49,50
 101 270 101 270 120.5 278.5 c 128,-1,51
 140 287 140 287 167 287 c 0,0,1
167 266 m 256,52,53
 128 266 128 266 111.5 238 c 128,-1,54
 95 210 95 210 95 143 c 256,55,56
 95 76 95 76 111.5 48 c 128,-1,57
 128 20 128 20 167 20 c 256,58,59
 206 20 206 20 222.5 48.5 c 128,-1,60
 239 77 239 77 239 143 c 256,61,62
 239 210 239 210 222.5 238 c 128,-1,63
 206 266 206 266 167 266 c 256,52,53
EndSplineSet
EndChar

StartChar: s
Encoding: 115 115 75
Width: 524
Flags: W
LayerCount: 2
Fore
SplineSet
229 143 m 0,0,1
 229 178 229 178 240.5 204.5 c 128,-1,2
 252 231 252 231 271 249.5 c 128,-1,3
 290 268 290 268 314 277.5 c 128,-1,4
 338 287 338 287 362 287 c 0,5,6
 380 287 380 287 398.5 282.5 c 128,-1,7
 417 278 417 278 433 266 c 1,8,9
 433 317 433 317 430.5 371.5 c 128,-1,10
 428 426 428 426 412 471 c 128,-1,11
 396 516 396 516 361 544.5 c 128,-1,12
 326 573 326 573 260 573 c 0,13,14
 213 573 213 573 180 558 c 128,-1,15
 147 543 147 543 126 509.5 c 128,-1,16
 105 476 105 476 95.5 424 c 128,-1,17
 86 372 86 372 86 297 c 0,18,19
 86 269 86 269 87.5 236.5 c 128,-1,20
 89 204 89 204 95 171.5 c 128,-1,21
 101 139 101 139 113.5 109.5 c 128,-1,22
 126 80 126 80 148.5 58.5 c 128,-1,23
 171 37 171 37 204.5 26.5 c 128,-1,24
 238 16 238 16 287 23 c 1,25,26
 259 45 259 45 244 74 c 128,-1,27
 229 103 229 103 229 143 c 0,0,1
260 594 m 0,28,29
 331 594 331 594 377.5 561.5 c 128,-1,30
 424 529 424 529 450.5 479 c 128,-1,31
 477 429 477 429 488 368 c 128,-1,32
 499 307 499 307 499 250 c 0,33,34
 499 197 499 197 494 151 c 128,-1,35
 489 105 489 105 474.5 71.5 c 128,-1,36
 460 38 460 38 433.5 19 c 128,-1,37
 407 0 407 0 362 0 c 0,38,39
 345 0 345 0 334 3 c 128,-1,40
 323 6 323 6 316 8 c 0,41,42
 300 3 300 3 284.5 1.5 c 128,-1,43
 269 0 269 0 254 0 c 0,44,45
 209 0 209 0 167.5 20.5 c 128,-1,46
 126 41 126 41 94 79.5 c 128,-1,47
 62 118 62 118 44 172.5 c 128,-1,48
 26 227 26 227 26 297 c 0,49,50
 26 362 26 362 43 416 c 128,-1,51
 60 470 60 470 91.5 510 c 128,-1,52
 123 550 123 550 166 572 c 128,-1,53
 209 594 209 594 260 594 c 0,28,29
291 143 m 256,54,55
 291 76 291 76 307.5 48 c 128,-1,56
 324 20 324 20 362 20 c 256,57,58
 401 20 401 20 417.5 48.5 c 128,-1,59
 434 77 434 77 434 143 c 256,60,61
 434 210 434 210 417.5 238 c 128,-1,62
 401 266 401 266 362 266 c 256,63,64
 323 266 323 266 307 238 c 128,-1,65
 291 210 291 210 291 143 c 256,54,55
EndSplineSet
EndChar

StartChar: t
Encoding: 116 116 76
Width: 645
Flags: W
LayerCount: 2
Fore
SplineSet
486 287 m 2,0,1
 515 287 515 287 539.5 276 c 128,-1,2
 564 265 564 265 581.5 246 c 128,-1,3
 599 227 599 227 609.5 200.5 c 128,-1,4
 620 174 620 174 620 143 c 256,5,6
 620 112 620 112 609.5 85.5 c 128,-1,7
 599 59 599 59 581.5 40.5 c 128,-1,8
 564 22 564 22 539.5 11 c 128,-1,9
 515 0 515 0 486 0 c 256,10,11
 457 0 457 0 433 11 c 128,-1,12
 409 22 409 22 391.5 40.5 c 128,-1,13
 374 59 374 59 363.5 86 c 128,-1,14
 353 113 353 113 353 143 c 0,15,16
 353 184 353 184 369.5 216 c 128,-1,17
 386 248 386 248 415 266 c 1,18,-1
 230 266 l 1,19,20
 259 248 259 248 275.5 215.5 c 128,-1,21
 292 183 292 183 292 143 c 0,22,23
 292 112 292 112 281.5 85.5 c 128,-1,24
 271 59 271 59 254 40.5 c 128,-1,25
 237 22 237 22 212 11 c 128,-1,26
 187 0 187 0 159 0 c 256,27,28
 130 0 130 0 105.5 11 c 128,-1,29
 81 22 81 22 63.5 40.5 c 128,-1,30
 46 59 46 59 36 86 c 128,-1,31
 26 113 26 113 26 143 c 0,32,33
 26 173 26 173 34 196.5 c 128,-1,34
 42 220 42 220 56 238 c 0,35,36
 63 246 63 246 63 253 c 256,37,38
 63 260 63 260 52.5 264.5 c 128,-1,39
 42 269 42 269 26 272 c 1,40,-1
 26 287 l 1,41,-1
 486 287 l 2,0,1
159 266 m 256,42,43
 120 266 120 266 103.5 238 c 128,-1,44
 87 210 87 210 87 143 c 256,45,46
 87 76 87 76 103.5 48 c 128,-1,47
 120 20 120 20 159 20 c 256,48,49
 198 20 198 20 214 48.5 c 128,-1,50
 230 77 230 77 230 143 c 256,51,52
 230 210 230 210 214 238 c 128,-1,53
 198 266 198 266 159 266 c 256,42,43
486 266 m 256,54,55
 447 266 447 266 431 238 c 128,-1,56
 415 210 415 210 415 143 c 256,57,58
 415 76 415 76 431 48 c 128,-1,59
 447 20 447 20 486 20 c 256,60,61
 525 20 525 20 541.5 48.5 c 128,-1,62
 558 77 558 77 558 143 c 256,63,64
 558 210 558 210 541.5 238 c 128,-1,65
 525 266 525 266 486 266 c 256,54,55
EndSplineSet
EndChar

StartChar: u
Encoding: 117 117 77
Width: 405
Flags: W
LayerCount: 2
Fore
SplineSet
385 287 m 1,0,-1
 385 272 l 1,1,2
 370 269 370 269 360.5 265.5 c 128,-1,3
 351 262 351 262 346 255.5 c 128,-1,4
 341 249 341 249 339.5 237.5 c 128,-1,5
 338 226 338 226 338 209 c 2,6,-1
 338 72 l 2,7,8
 338 20 338 20 306 -10.5 c 128,-1,9
 274 -41 274 -41 225 -41 c 2,10,-1
 223 -41 l 1,11,12
 253 -59 253 -59 270 -91 c 128,-1,13
 287 -123 287 -123 287 -164 c 0,14,15
 287 -195 287 -195 276.5 -221.5 c 128,-1,16
 266 -248 266 -248 248.5 -267 c 128,-1,17
 231 -286 231 -286 206.5 -296.5 c 128,-1,18
 182 -307 182 -307 154 -307 c 256,19,20
 125 -307 125 -307 100.5 -296.5 c 128,-1,21
 76 -286 76 -286 58.5 -267 c 128,-1,22
 41 -248 41 -248 30.5 -221.5 c 128,-1,23
 20 -195 20 -195 20 -164 c 256,24,25
 20 -133 20 -133 30.5 -106.5 c 128,-1,26
 41 -80 41 -80 58.5 -61 c 128,-1,27
 76 -42 76 -42 100.5 -31 c 128,-1,28
 125 -20 125 -20 154 -20 c 2,29,-1
 159 -20 l 1,30,31
 137 -6 137 -6 125 17.5 c 128,-1,32
 113 41 113 41 113 72 c 2,33,-1
 113 209 l 2,34,35
 113 226 113 226 112 238 c 128,-1,36
 111 250 111 250 104 256.5 c 128,-1,37
 97 263 97 263 82.5 266.5 c 128,-1,38
 68 270 68 270 41 272 c 1,39,-1
 41 287 l 1,40,-1
 174 307 l 1,41,-1
 174 31 l 2,42,43
 174 6 174 6 188.5 -7 c 128,-1,44
 203 -20 203 -20 225 -20 c 0,45,46
 249 -20 249 -20 262.5 -7 c 128,-1,47
 276 6 276 6 276 31 c 2,48,-1
 276 209 l 2,49,50
 276 226 276 226 274.5 237.5 c 128,-1,51
 273 249 273 249 268 255.5 c 128,-1,52
 263 262 263 262 254 265.5 c 128,-1,53
 245 269 245 269 229 272 c 1,54,-1
 229 287 l 1,55,-1
 385 287 l 1,0,-1
154 -287 m 256,56,57
 193 -287 193 -287 209 -258.5 c 128,-1,58
 225 -230 225 -230 225 -164 c 256,59,60
 225 -97 225 -97 209 -69 c 128,-1,61
 193 -41 193 -41 154 -41 c 256,62,63
 115 -41 115 -41 98.5 -69 c 128,-1,64
 82 -97 82 -97 82 -164 c 256,65,66
 82 -231 82 -231 98.5 -259 c 128,-1,67
 115 -287 115 -287 154 -287 c 256,56,57
EndSplineSet
EndChar

StartChar: v
Encoding: 118 118 78
Width: 645
Flags: W
LayerCount: 2
Fore
SplineSet
26 14 m 1,0,1
 42 17 42 17 52.5 22 c 128,-1,2
 63 27 63 27 63 34 c 256,3,4
 63 41 63 41 56 49 c 0,5,6
 42 66 42 66 34 90 c 128,-1,7
 26 114 26 114 26 143 c 0,8,9
 26 174 26 174 36 200.5 c 128,-1,10
 46 227 46 227 63.5 246 c 128,-1,11
 81 265 81 265 105.5 276 c 128,-1,12
 130 287 130 287 159 287 c 256,13,14
 188 287 188 287 212.5 276 c 128,-1,15
 237 265 237 265 254 246 c 128,-1,16
 271 227 271 227 281.5 200.5 c 128,-1,17
 292 174 292 174 292 143 c 0,18,19
 292 103 292 103 275.5 71 c 128,-1,20
 259 39 259 39 230 20 c 1,21,-1
 415 20 l 1,22,23
 386 38 386 38 369.5 70 c 128,-1,24
 353 102 353 102 353 143 c 0,25,26
 353 174 353 174 363.5 200.5 c 128,-1,27
 374 227 374 227 391.5 246 c 128,-1,28
 409 265 409 265 433.5 276 c 128,-1,29
 458 287 458 287 486 287 c 256,30,31
 515 287 515 287 539.5 276 c 128,-1,32
 564 265 564 265 581.5 246 c 128,-1,33
 599 227 599 227 609.5 200.5 c 128,-1,34
 620 174 620 174 620 143 c 256,35,36
 620 112 620 112 609.5 85.5 c 128,-1,37
 599 59 599 59 581.5 40.5 c 128,-1,38
 564 22 564 22 539.5 11 c 128,-1,39
 515 0 515 0 486 0 c 2,40,-1
 26 0 l 1,41,-1
 26 14 l 1,0,1
159 20 m 256,42,43
 198 20 198 20 214 48.5 c 128,-1,44
 230 77 230 77 230 143 c 256,45,46
 230 210 230 210 214 238 c 128,-1,47
 198 266 198 266 159 266 c 256,48,49
 120 266 120 266 103.5 238 c 128,-1,50
 87 210 87 210 87 143 c 256,51,52
 87 76 87 76 103.5 48 c 128,-1,53
 120 20 120 20 159 20 c 256,42,43
486 20 m 256,54,55
 525 20 525 20 541.5 48.5 c 128,-1,56
 558 77 558 77 558 143 c 256,57,58
 558 210 558 210 541.5 238 c 128,-1,59
 525 266 525 266 486 266 c 256,60,61
 447 266 447 266 431 238 c 128,-1,62
 415 210 415 210 415 143 c 256,63,64
 415 76 415 76 431 48 c 128,-1,65
 447 20 447 20 486 20 c 256,54,55
EndSplineSet
EndChar

StartChar: w
Encoding: 119 119 79
Width: 537
Flags: W
LayerCount: 2
Fore
SplineSet
317 20 m 1,0,-1
 379 20 l 2,1,2
 418 20 418 20 434.5 48.5 c 128,-1,3
 451 77 451 77 451 143 c 256,4,5
 451 210 451 210 434.5 238 c 128,-1,6
 418 266 418 266 379 266 c 2,7,-1
 317 266 l 1,8,-1
 317 20 l 1,0,-1
365 477 m 1,9,10
 350 474 350 474 340.5 470.5 c 128,-1,11
 331 467 331 467 326 460.5 c 128,-1,12
 321 454 321 454 319 442.5 c 128,-1,13
 317 431 317 431 317 414 c 2,14,-1
 317 287 l 1,15,-1
 379 287 l 2,16,17
 408 287 408 287 432.5 276 c 128,-1,18
 457 265 457 265 474.5 246 c 128,-1,19
 492 227 492 227 502 200.5 c 128,-1,20
 512 174 512 174 512 143 c 256,21,22
 512 112 512 112 502 85.5 c 128,-1,23
 492 59 492 59 474.5 40.5 c 128,-1,24
 457 22 457 22 432.5 11 c 128,-1,25
 408 0 408 0 379 0 c 2,26,-1
 20 0 l 1,27,-1
 20 14 l 1,28,29
 33 15 33 15 42.5 19 c 128,-1,30
 52 23 52 23 60 30 c 128,-1,31
 68 37 68 37 75.5 49 c 128,-1,32
 83 61 83 61 93 81 c 0,33,34
 109 112 109 112 121.5 150 c 128,-1,35
 134 188 134 188 142.5 228 c 128,-1,36
 151 268 151 268 155.5 307 c 128,-1,37
 160 346 160 346 160 379 c 2,38,-1
 160 414 l 2,39,40
 160 431 160 431 158.5 442.5 c 128,-1,41
 157 454 157 454 151.5 460.5 c 128,-1,42
 146 467 146 467 137 470.5 c 128,-1,43
 128 474 128 474 113 477 c 1,44,-1
 113 492 l 1,45,-1
 365 492 l 1,46,-1
 365 477 l 1,9,10
256 471 m 1,47,-1
 180 471 l 1,48,-1
 180 389 l 2,49,50
 180 342 180 342 176.5 295.5 c 128,-1,51
 173 249 173 249 166 205 c 1,52,-1
 256 205 l 1,53,-1
 256 471 l 1,47,-1
163 184 m 1,54,55
 153 132 153 132 141 90 c 128,-1,56
 129 48 129 48 117 20 c 1,57,-1
 256 20 l 1,58,-1
 256 184 l 1,59,-1
 163 184 l 1,54,55
EndSplineSet
EndChar

StartChar: x
Encoding: 120 120 80
Width: 752
Flags: W
LayerCount: 2
Fore
SplineSet
215 62 m 1,0,1
 246 68 246 68 275.5 70 c 128,-1,2
 305 72 305 72 317 72 c 1,3,-1
 317 266 l 1,4,-1
 215 266 l 1,5,-1
 215 62 l 1,0,1
717 287 m 1,6,-1
 717 195 l 2,7,8
 717 146 717 146 706 112 c 128,-1,9
 695 78 695 78 679 56.5 c 128,-1,10
 663 35 663 35 643 23 c 128,-1,11
 623 11 623 11 603.5 6 c 128,-1,12
 584 1 584 1 567.5 0.5 c 128,-1,13
 551 0 551 0 543 0 c 1,14,-1
 543 -170 l 1,15,-1
 528 -170 l 1,16,17
 523 -143 523 -143 514.5 -134 c 128,-1,18
 506 -125 506 -125 481 -123 c 1,19,-1
 481 0 l 1,20,21
 467 0 467 0 451 1 c 128,-1,22
 435 2 435 2 421 3 c 128,-1,23
 407 4 407 4 395.5 5 c 128,-1,24
 384 6 384 6 379 6 c 1,25,-1
 379 -170 l 1,26,-1
 365 -170 l 1,27,28
 360 -143 360 -143 351 -134 c 128,-1,29
 342 -125 342 -125 317 -123 c 1,30,-1
 317 14 l 1,31,32
 293 19 293 19 267 25 c 128,-1,33
 241 31 241 31 215 31 c 1,34,-1
 215 -170 l 1,35,-1
 201 -170 l 1,36,37
 196 -143 196 -143 187 -134 c 128,-1,38
 178 -125 178 -125 154 -123 c 1,39,-1
 154 20 l 1,40,41
 131 14 131 14 115.5 0 c 128,-1,42
 100 -14 100 -14 90.5 -33.5 c 128,-1,43
 81 -53 81 -53 76.5 -76 c 128,-1,44
 72 -99 72 -99 72 -123 c 0,45,46
 72 -175 72 -175 85.5 -209.5 c 128,-1,47
 99 -244 99 -244 122.5 -263 c 128,-1,48
 146 -282 146 -282 178.5 -287.5 c 128,-1,49
 211 -293 211 -293 247 -287 c 1,50,-1
 253 -297 l 1,51,52
 228 -304 228 -304 187 -302.5 c 128,-1,53
 146 -301 146 -301 107 -283 c 128,-1,54
 68 -265 68 -265 39 -227 c 128,-1,55
 10 -189 10 -189 10 -123 c 0,56,57
 10 -89 10 -89 21.5 -62 c 128,-1,58
 33 -35 33 -35 52.5 -13.5 c 128,-1,59
 72 8 72 8 98 24 c 128,-1,60
 124 40 124 40 154 49 c 1,61,-1
 154 209 l 2,62,63
 154 226 154 226 152.5 237.5 c 128,-1,64
 151 249 151 249 145.5 255.5 c 128,-1,65
 140 262 140 262 131 265.5 c 128,-1,66
 122 269 122 269 106 272 c 1,67,-1
 106 287 l 1,68,-1
 717 287 l 1,6,-1
379 68 m 1,69,70
 394 66 394 66 424.5 59 c 128,-1,71
 455 52 455 52 481 45 c 1,72,-1
 481 266 l 1,73,-1
 379 266 l 1,74,-1
 379 68 l 1,69,70
543 31 m 1,75,76
 581 24 581 24 603.5 30 c 128,-1,77
 626 36 626 36 637 56 c 128,-1,78
 648 76 648 76 651.5 110 c 128,-1,79
 655 144 655 144 655 195 c 2,80,-1
 655 266 l 1,81,-1
 543 266 l 1,82,-1
 543 31 l 1,75,76
EndSplineSet
EndChar

StartChar: y
Encoding: 121 121 81
Width: 645
Flags: W
LayerCount: 2
Fore
SplineSet
289 287 m 1,0,1
 289 307 289 307 289.5 323 c 128,-1,2
 290 339 290 339 290.5 354 c 128,-1,3
 291 369 291 369 290.5 382.5 c 128,-1,4
 290 396 290 396 288 412 c 0,5,6
 286 428 286 428 282.5 441.5 c 128,-1,7
 279 455 279 455 270.5 465 c 128,-1,8
 262 475 262 475 247.5 481.5 c 128,-1,9
 233 488 233 488 210 492 c 1,10,-1
 210 512 l 1,11,12
 237 512 237 512 259.5 511 c 128,-1,13
 282 510 282 510 297 499 c 0,14,15
 309 490 309 490 317.5 479 c 128,-1,16
 326 468 326 468 329.5 451.5 c 128,-1,17
 333 435 333 435 331.5 411.5 c 128,-1,18
 330 388 330 388 324 353 c 0,19,20
 322 340 322 340 317 322 c 128,-1,21
 312 304 312 304 312 287 c 1,22,-1
 333 287 l 1,23,24
 333 293 333 293 338.5 302 c 128,-1,25
 344 311 344 311 349 317 c 0,26,27
 362 334 362 334 379.5 357.5 c 128,-1,28
 397 381 397 381 402 404 c 0,29,30
 407 427 407 427 403 443 c 128,-1,31
 399 459 399 459 390.5 469 c 128,-1,32
 382 479 382 479 371.5 484 c 128,-1,33
 361 489 361 489 353 492 c 1,34,-1
 353 512 l 1,35,36
 386 512 386 512 409.5 502.5 c 128,-1,37
 433 493 433 493 445 469 c 0,38,39
 455 447 455 447 454 428 c 128,-1,40
 453 409 453 409 443.5 391 c 128,-1,41
 434 373 434 373 418.5 356 c 128,-1,42
 403 339 403 339 387 324 c 2,43,-1
 370 304 l 2,44,45
 364 296 364 296 357 287 c 1,46,-1
 486 287 l 2,47,48
 515 287 515 287 539.5 276 c 128,-1,49
 564 265 564 265 581.5 246 c 128,-1,50
 599 227 599 227 609.5 200.5 c 128,-1,51
 620 174 620 174 620 143 c 256,52,53
 620 112 620 112 609.5 85.5 c 128,-1,54
 599 59 599 59 581.5 40.5 c 128,-1,55
 564 22 564 22 539.5 11 c 128,-1,56
 515 0 515 0 486 0 c 256,57,58
 457 0 457 0 433 11 c 128,-1,59
 409 22 409 22 391.5 40.5 c 128,-1,60
 374 59 374 59 363.5 86 c 128,-1,61
 353 113 353 113 353 143 c 0,62,63
 353 184 353 184 369.5 216 c 128,-1,64
 386 248 386 248 415 266 c 1,65,-1
 230 266 l 1,66,67
 259 248 259 248 275.5 215.5 c 128,-1,68
 292 183 292 183 292 143 c 0,69,70
 292 112 292 112 281.5 85.5 c 128,-1,71
 271 59 271 59 254 40.5 c 128,-1,72
 237 22 237 22 212 11 c 128,-1,73
 187 0 187 0 159 0 c 256,74,75
 130 0 130 0 105.5 11 c 128,-1,76
 81 22 81 22 63.5 40.5 c 128,-1,77
 46 59 46 59 36 86 c 128,-1,78
 26 113 26 113 26 143 c 0,79,80
 26 173 26 173 34 196.5 c 128,-1,81
 42 220 42 220 56 238 c 0,82,83
 63 246 63 246 63 253 c 256,84,85
 63 260 63 260 52.5 264.5 c 128,-1,86
 42 269 42 269 26 272 c 1,87,-1
 26 287 l 1,88,-1
 289 287 l 1,0,1
486 266 m 256,89,90
 447 266 447 266 431 238 c 128,-1,91
 415 210 415 210 415 143 c 256,92,93
 415 76 415 76 431 48 c 128,-1,94
 447 20 447 20 486 20 c 256,95,96
 525 20 525 20 541.5 48.5 c 128,-1,97
 558 77 558 77 558 143 c 256,98,99
 558 210 558 210 541.5 238 c 128,-1,100
 525 266 525 266 486 266 c 256,89,90
159 266 m 256,101,102
 120 266 120 266 103.5 238 c 128,-1,103
 87 210 87 210 87 143 c 256,104,105
 87 76 87 76 103.5 48 c 128,-1,106
 120 20 120 20 159 20 c 256,107,108
 198 20 198 20 214 48.5 c 128,-1,109
 230 77 230 77 230 143 c 256,110,111
 230 210 230 210 214 238 c 128,-1,112
 198 266 198 266 159 266 c 256,101,102
EndSplineSet
EndChar

StartChar: z
Encoding: 122 122 82
Width: 645
Flags: W
LayerCount: 2
Fore
SplineSet
486 287 m 2,0,1
 515 287 515 287 539.5 276 c 128,-1,2
 564 265 564 265 581.5 246 c 128,-1,3
 599 227 599 227 609.5 200.5 c 128,-1,4
 620 174 620 174 620 143 c 256,5,6
 620 112 620 112 609.5 85.5 c 128,-1,7
 599 59 599 59 581.5 40.5 c 128,-1,8
 564 22 564 22 539.5 11 c 128,-1,9
 515 0 515 0 486 0 c 256,10,11
 457 0 457 0 433 11 c 128,-1,12
 409 22 409 22 391.5 40.5 c 128,-1,13
 374 59 374 59 363.5 86 c 128,-1,14
 353 113 353 113 353 143 c 0,15,16
 353 184 353 184 369.5 216 c 128,-1,17
 386 248 386 248 415 266 c 1,18,-1
 292 266 l 1,19,-1
 292 -229 l 2,20,21
 292 -246 292 -246 293.5 -257.5 c 128,-1,22
 295 -269 295 -269 300 -276 c 128,-1,23
 305 -283 305 -283 314.5 -286.5 c 128,-1,24
 324 -290 324 -290 339 -293 c 1,25,-1
 339 -307 l 1,26,-1
 183 -307 l 1,27,-1
 183 -293 l 1,28,29
 198 -290 198 -290 207.5 -286.5 c 128,-1,30
 217 -283 217 -283 222 -276 c 128,-1,31
 227 -269 227 -269 228.5 -258 c 128,-1,32
 230 -247 230 -247 230 -229 c 2,33,-1
 230 31 l 1,34,35
 215 11 215 11 197 5.5 c 128,-1,36
 179 0 179 0 159 0 c 0,37,38
 131 0 131 0 107 22.5 c 128,-1,39
 83 45 83 45 64.5 84 c 128,-1,40
 46 123 46 123 36 175 c 128,-1,41
 26 227 26 227 26 287 c 256,42,43
 26 346 26 346 36 398.5 c 128,-1,44
 46 451 46 451 64.5 489.5 c 128,-1,45
 83 528 83 528 107 550.5 c 128,-1,46
 131 573 131 573 159 573 c 2,47,-1
 184 573 l 2,48,49
 213 573 213 573 230 575 c 128,-1,50
 247 577 247 577 256.5 581.5 c 128,-1,51
 266 586 266 586 270 593.5 c 128,-1,52
 274 601 274 601 278 614 c 1,53,-1
 292 614 l 1,54,-1
 292 287 l 1,55,-1
 486 287 l 2,0,1
87 266 m 1,56,-1
 87 256 l 2,57,58
 89 207 89 207 97 164 c 128,-1,59
 105 121 105 121 117 89 c 128,-1,60
 129 57 129 57 145 38.5 c 128,-1,61
 161 20 161 20 178 20 c 0,62,63
 185 20 185 20 194.5 25.5 c 128,-1,64
 204 31 204 31 209 38 c 0,65,66
 218 50 218 50 223.5 68 c 128,-1,67
 229 86 229 86 230 117 c 2,68,-1
 230 266 l 1,69,-1
 87 266 l 1,56,-1
230 453 m 2,70,71
 229 473 229 473 227.5 490 c 128,-1,72
 226 507 226 507 219 524 c 0,73,74
 211 542 211 542 200 547.5 c 128,-1,75
 189 553 189 553 178 553 c 0,76,77
 160 553 160 553 144 534 c 128,-1,78
 128 515 128 515 115.5 481 c 128,-1,79
 103 447 103 447 95.5 402 c 128,-1,80
 88 357 88 357 87 305 c 2,81,-1
 87 287 l 1,82,-1
 230 287 l 1,83,-1
 230 453 l 2,70,71
486 20 m 256,84,85
 525 20 525 20 541.5 48.5 c 128,-1,86
 558 77 558 77 558 143 c 256,87,88
 558 210 558 210 541.5 238 c 128,-1,89
 525 266 525 266 486 266 c 256,90,91
 447 266 447 266 431 238 c 128,-1,92
 415 210 415 210 415 143 c 256,93,94
 415 76 415 76 431 48 c 128,-1,95
 447 20 447 20 486 20 c 256,84,85
EndSplineSet
EndChar

StartChar: braceleft
Encoding: 123 123 83
Width: 291
Flags: W
LayerCount: 2
Fore
SplineSet
256 600 m 1,0,1
 237 598 237 598 221 592 c 128,-1,2
 205 586 205 586 194 573 c 128,-1,3
 183 560 183 560 179 538 c 128,-1,4
 175 516 175 516 178 481 c 2,5,-1
 184 420 l 2,6,7
 189 370 189 370 184 339.5 c 128,-1,8
 179 309 179 309 164.5 291.5 c 128,-1,9
 150 274 150 274 125 267 c 128,-1,10
 100 260 100 260 66 256 c 1,11,12
 101 252 101 252 125.5 245 c 128,-1,13
 150 238 150 238 164.5 220.5 c 128,-1,14
 179 203 179 203 184 172.5 c 128,-1,15
 189 142 189 142 184 92 c 2,16,-1
 178 31 l 2,17,18
 175 -4 175 -4 179 -26 c 128,-1,19
 183 -48 183 -48 194 -61 c 128,-1,20
 205 -74 205 -74 221 -80 c 128,-1,21
 237 -86 237 -86 256 -88 c 1,22,-1
 256 -102 l 1,23,24
 221 -98 221 -98 193.5 -92.5 c 128,-1,25
 166 -87 166 -87 147.5 -71.5 c 128,-1,26
 129 -56 129 -56 121.5 -27.5 c 128,-1,27
 114 1 114 1 119 51 c 2,28,-1
 127 133 l 2,29,30
 130 168 130 168 126 189.5 c 128,-1,31
 122 211 122 211 111.5 223.5 c 128,-1,32
 101 236 101 236 86 241 c 128,-1,33
 71 246 71 246 51 249 c 1,34,-1
 51 263 l 1,35,36
 70 266 70 266 85.5 271 c 128,-1,37
 101 276 101 276 111.5 288.5 c 128,-1,38
 122 301 122 301 126 322.5 c 128,-1,39
 130 344 130 344 127 379 c 2,40,-1
 119 461 l 2,41,42
 114 511 114 511 121.5 539.5 c 128,-1,43
 129 568 129 568 147.5 583.5 c 128,-1,44
 166 599 166 599 193.5 604.5 c 128,-1,45
 221 610 221 610 256 614 c 1,46,-1
 256 600 l 1,0,1
EndSplineSet
EndChar

StartChar: bar
Encoding: 124 124 84
Width: 131
Flags: W
LayerCount: 2
Fore
SplineSet
80 614 m 1,0,-1
 80 -102 l 1,1,-1
 51 -102 l 1,2,-1
 51 614 l 1,3,-1
 80 614 l 1,0,-1
EndSplineSet
EndChar

StartChar: braceright
Encoding: 125 125 85
Width: 291
Flags: W
LayerCount: 2
Fore
SplineSet
36 614 m 1,0,1
 71 610 71 610 98.5 604.5 c 128,-1,2
 126 599 126 599 144.5 583.5 c 128,-1,3
 163 568 163 568 170.5 539.5 c 128,-1,4
 178 511 178 511 173 461 c 2,5,-1
 165 379 l 2,6,7
 162 344 162 344 166 322.5 c 128,-1,8
 170 301 170 301 180 288.5 c 128,-1,9
 190 276 190 276 205.5 271 c 128,-1,10
 221 266 221 266 241 263 c 1,11,-1
 241 249 l 1,12,13
 222 246 222 246 206 241 c 128,-1,14
 190 236 190 236 180 223.5 c 128,-1,15
 170 211 170 211 166 189.5 c 128,-1,16
 162 168 162 168 165 133 c 2,17,-1
 173 51 l 2,18,19
 178 1 178 1 170.5 -27.5 c 128,-1,20
 163 -56 163 -56 144.5 -71.5 c 128,-1,21
 126 -87 126 -87 98.5 -92.5 c 128,-1,22
 71 -98 71 -98 36 -102 c 1,23,-1
 36 -88 l 1,24,25
 55 -86 55 -86 71 -80 c 128,-1,26
 87 -74 87 -74 98 -61 c 128,-1,27
 109 -48 109 -48 113 -26 c 128,-1,28
 117 -4 117 -4 114 31 c 2,29,-1
 108 92 l 2,30,31
 103 142 103 142 108 172.5 c 128,-1,32
 113 203 113 203 127.5 220.5 c 128,-1,33
 142 238 142 238 166.5 245 c 128,-1,34
 191 252 191 252 226 256 c 1,35,36
 191 260 191 260 166.5 267 c 128,-1,37
 142 274 142 274 127.5 291.5 c 128,-1,38
 113 309 113 309 107.5 339.5 c 128,-1,39
 102 370 102 370 108 420 c 2,40,-1
 114 481 l 2,41,42
 117 516 117 516 113 538 c 128,-1,43
 109 560 109 560 98 573 c 128,-1,44
 87 586 87 586 71 592 c 128,-1,45
 55 598 55 598 36 600 c 1,46,-1
 36 614 l 1,47,-1
 36 614 l 1,0,1
EndSplineSet
EndChar

StartChar: quotesinglbase
Encoding: 8218 8218 86
Width: 184
Flags: W
LayerCount: 2
Fore
SplineSet
51 -68 m 1,0,1
 74 -63 74 -63 86 -51 c 128,-1,2
 98 -39 98 -39 103.5 -26 c 128,-1,3
 109 -13 109 -13 109 -2.5 c 128,-1,4
 109 8 109 8 106 12 c 1,5,6
 99 0 99 0 82 0 c 0,7,8
 69 0 69 0 60 8.5 c 128,-1,9
 51 17 51 17 51 31 c 256,10,11
 51 44 51 44 61 52.5 c 128,-1,12
 71 61 71 61 87 61 c 0,13,14
 107 61 107 61 120 47.5 c 128,-1,15
 133 34 133 34 133 10 c 0,16,17
 133 -28 133 -28 108 -52.5 c 128,-1,18
 83 -77 83 -77 51 -82 c 1,19,-1
 51 -68 l 1,0,1
EndSplineSet
EndChar

StartChar: florin
Encoding: 402 402 87
Width: 522
Flags: W
LayerCount: 2
Fore
SplineSet
492 683 m 1,0,1
 465 689 465 689 438 692.5 c 128,-1,2
 411 696 411 696 384 696 c 0,3,4
 326 696 326 696 276 678 c 1,5,-1
 276 458 l 1,6,7
 289 461 289 461 307 461 c 0,8,9
 359 461 359 461 389.5 433.5 c 128,-1,10
 420 406 420 406 420 358 c 0,11,12
 420 312 420 312 389.5 284 c 128,-1,13
 359 256 359 256 307 256 c 0,14,15
 299 256 299 256 291.5 257 c 128,-1,16
 284 258 284 258 276 260 c 1,17,-1
 276 39 l 1,18,19
 325 21 325 21 384 20 c 0,20,21
 437 20 437 20 492 35 c 1,22,-1
 492 13 l 1,23,24
 467 7 467 7 440.5 3.5 c 128,-1,25
 414 0 414 0 384 0 c 0,26,27
 302 0 302 0 236.5 25 c 128,-1,28
 171 50 171 50 125.5 97 c 128,-1,29
 80 144 80 144 55.5 210 c 128,-1,30
 31 276 31 276 31 358 c 256,31,32
 31 440 31 440 55.5 506 c 128,-1,33
 80 572 80 572 125.5 619.5 c 128,-1,34
 171 667 171 667 236.5 692 c 128,-1,35
 302 717 302 717 384 717 c 0,36,37
 414 717 414 717 440 714.5 c 128,-1,38
 466 712 466 712 492 706 c 1,39,-1
 492 683 l 1,0,1
236 658 m 1,40,41
 168 618 168 618 130 541 c 128,-1,42
 92 464 92 464 92 358 c 256,43,44
 92 253 92 253 130 176.5 c 128,-1,45
 168 100 168 100 236 59 c 1,46,-1
 236 658 l 1,40,41
276 284 m 1,47,48
 289 277 289 277 307 276 c 0,49,50
 340 276 340 276 360 299 c 128,-1,51
 380 322 380 322 380 358 c 0,52,53
 380 396 380 396 360 418 c 128,-1,54
 340 440 340 440 307 440 c 0,55,56
 290 440 290 440 276 434 c 1,57,-1
 276 284 l 1,47,48
EndSplineSet
EndChar

StartChar: quotedblbase
Encoding: 8222 8222 88
Width: 307
Flags: W
LayerCount: 2
Fore
SplineSet
174 -68 m 1,0,1
 197 -63 197 -63 209 -51 c 128,-1,2
 221 -39 221 -39 226 -26 c 128,-1,3
 231 -13 231 -13 231 -2.5 c 128,-1,4
 231 8 231 8 229 12 c 1,5,6
 222 0 222 0 205 0 c 0,7,8
 192 0 192 0 183 8.5 c 128,-1,9
 174 17 174 17 174 31 c 256,10,11
 174 44 174 44 184 52.5 c 128,-1,12
 194 61 194 61 210 61 c 0,13,14
 230 61 230 61 243 47.5 c 128,-1,15
 256 34 256 34 256 10 c 0,16,17
 256 -28 256 -28 231 -52.5 c 128,-1,18
 206 -77 206 -77 174 -82 c 1,19,-1
 174 -68 l 1,0,1
51 -68 m 1,20,21
 74 -63 74 -63 86 -51 c 128,-1,22
 98 -39 98 -39 103.5 -26 c 128,-1,23
 109 -13 109 -13 109 -2.5 c 128,-1,24
 109 8 109 8 106 12 c 1,25,26
 99 0 99 0 82 0 c 0,27,28
 69 0 69 0 60 8.5 c 128,-1,29
 51 17 51 17 51 31 c 256,30,31
 51 44 51 44 61 52.5 c 128,-1,32
 71 61 71 61 87 61 c 0,33,34
 107 61 107 61 120 47.5 c 128,-1,35
 133 34 133 34 133 10 c 0,36,37
 133 -28 133 -28 108 -52.5 c 128,-1,38
 83 -77 83 -77 51 -82 c 1,39,-1
 51 -68 l 1,20,21
EndSplineSet
EndChar

StartChar: ellipsis
Encoding: 8230 8230 89
Width: 450
Flags: W
LayerCount: 2
Fore
SplineSet
225 61 m 256,0,1
 238 61 238 61 247 52.5 c 128,-1,2
 256 44 256 44 256 31 c 256,3,4
 256 18 256 18 247.5 9 c 128,-1,5
 239 0 239 0 225 0 c 256,6,7
 212 0 212 0 203.5 8.5 c 128,-1,8
 195 17 195 17 195 31 c 256,9,10
 195 44 195 44 203.5 52.5 c 128,-1,11
 212 61 212 61 225 61 c 256,0,1
369 61 m 256,12,13
 382 61 382 61 390.5 52.5 c 128,-1,14
 399 44 399 44 399 31 c 256,15,16
 399 18 399 18 390.5 9 c 128,-1,17
 382 0 382 0 369 0 c 256,18,19
 356 0 356 0 347 8.5 c 128,-1,20
 338 17 338 17 338 31 c 256,21,22
 338 44 338 44 347 52.5 c 128,-1,23
 356 61 356 61 369 61 c 256,12,13
82 61 m 256,24,25
 95 61 95 61 104 52.5 c 128,-1,26
 113 44 113 44 113 31 c 256,27,28
 113 18 113 18 104 9 c 128,-1,29
 95 0 95 0 82 0 c 256,30,31
 69 0 69 0 60 8.5 c 128,-1,32
 51 17 51 17 51 31 c 256,33,34
 51 44 51 44 60 52.5 c 128,-1,35
 69 61 69 61 82 61 c 256,24,25
EndSplineSet
EndChar

StartChar: dagger
Encoding: 8224 8224 90
Width: 354
Flags: W
LayerCount: 2
Fore
SplineSet
171 -102 m 1,0,1
 169 -45 169 -45 168 22 c 128,-1,2
 167 89 167 89 165 149.5 c 128,-1,3
 163 210 163 210 158.5 256 c 128,-1,4
 154 302 154 302 146 317 c 1,5,6
 157 337 157 337 162.5 368.5 c 128,-1,7
 168 400 168 400 171 440 c 1,8,-1
 170 441 l 1,9,10
 130 438 130 438 105.5 427.5 c 128,-1,11
 81 417 81 417 61 417 c 0,12,13
 48 417 48 417 39.5 425.5 c 128,-1,14
 31 434 31 434 31 447 c 256,15,16
 31 460 31 460 39.5 469 c 128,-1,17
 48 478 48 478 61 478 c 0,18,19
 80 478 80 478 105 467.5 c 128,-1,20
 130 457 130 457 170 454 c 1,21,-1
 171 455 l 1,22,23
 168 495 168 495 157 529 c 128,-1,24
 146 563 146 563 146 584 c 0,25,26
 146 597 146 597 155 605.5 c 128,-1,27
 164 614 164 614 177 614 c 256,28,29
 190 614 190 614 199 605.5 c 128,-1,30
 208 597 208 597 208 584 c 0,31,32
 208 564 208 564 197 529.5 c 128,-1,33
 186 495 186 495 183 455 c 1,34,-1
 184 454 l 1,35,36
 203 455 203 455 219.5 459 c 128,-1,37
 236 463 236 463 248.5 467.5 c 128,-1,38
 261 472 261 472 272 475 c 128,-1,39
 283 478 283 478 293 478 c 0,40,41
 306 478 306 478 315 469.5 c 128,-1,42
 324 461 324 461 324 447 c 256,43,44
 324 434 324 434 315 425.5 c 128,-1,45
 306 417 306 417 293 417 c 0,46,47
 283 417 283 417 272 420 c 128,-1,48
 261 423 261 423 248.5 427.5 c 128,-1,49
 236 432 236 432 220 435.5 c 128,-1,50
 204 439 204 439 184 441 c 1,51,-1
 183 440 l 1,52,53
 186 400 186 400 191.5 369 c 128,-1,54
 197 338 197 338 208 317 c 1,55,56
 200 302 200 302 195.5 256 c 128,-1,57
 191 210 191 210 189 149.5 c 128,-1,58
 187 89 187 89 185.5 22 c 128,-1,59
 184 -45 184 -45 183 -102 c 1,60,-1
 171 -102 l 1,0,1
EndSplineSet
EndChar

StartChar: daggerdbl
Encoding: 8225 8225 91
Width: 374
Flags: W
LayerCount: 2
Fore
SplineSet
303 13 m 0,0,1
 293 13 293 13 282 16 c 128,-1,2
 271 19 271 19 258.5 24 c 128,-1,3
 246 29 246 29 230 32.5 c 128,-1,4
 214 36 214 36 195 38 c 1,5,-1
 194 37 l 1,6,7
 197 -3 197 -3 207.5 -27.5 c 128,-1,8
 218 -52 218 -52 218 -72 c 0,9,10
 218 -85 218 -85 209.5 -93.5 c 128,-1,11
 201 -102 201 -102 187 -102 c 256,12,13
 174 -102 174 -102 165.5 -93.5 c 128,-1,14
 157 -85 157 -85 157 -72 c 0,15,16
 157 -53 157 -53 167.5 -28 c 128,-1,17
 178 -3 178 -3 181 37 c 1,18,-1
 180 38 l 1,19,20
 140 35 140 35 115.5 24 c 128,-1,21
 91 13 91 13 72 13 c 0,22,23
 59 13 59 13 50 22 c 128,-1,24
 41 31 41 31 41 44 c 256,25,26
 41 57 41 57 49.5 66 c 128,-1,27
 58 75 58 75 72 75 c 0,28,29
 91 75 91 75 115.5 64 c 128,-1,30
 140 53 140 53 180 50 c 1,31,-1
 181 51 l 1,32,33
 178 91 178 91 173 117 c 128,-1,34
 168 143 168 143 157 164 c 1,35,36
 172 179 172 179 176.5 205.5 c 128,-1,37
 181 232 181 232 181 256 c 256,38,39
 181 280 181 280 176.5 306.5 c 128,-1,40
 172 333 172 333 157 348 c 1,41,42
 168 368 168 368 173 394.5 c 128,-1,43
 178 421 178 421 181 461 c 1,44,-1
 180 462 l 1,45,46
 140 459 140 459 115.5 448 c 128,-1,47
 91 437 91 437 72 437 c 0,48,49
 59 437 59 437 50 446 c 128,-1,50
 41 455 41 455 41 468 c 256,51,52
 41 481 41 481 49.5 490 c 128,-1,53
 58 499 58 499 72 499 c 0,54,55
 91 499 91 499 115.5 488 c 128,-1,56
 140 477 140 477 180 474 c 1,57,-1
 181 475 l 1,58,59
 179 494 179 494 175.5 510 c 128,-1,60
 172 526 172 526 167.5 539 c 128,-1,61
 163 552 163 552 160 562.5 c 128,-1,62
 157 573 157 573 157 584 c 0,63,64
 157 597 157 597 165.5 605.5 c 128,-1,65
 174 614 174 614 187 614 c 256,66,67
 200 614 200 614 209 605.5 c 128,-1,68
 218 597 218 597 218 584 c 0,69,70
 218 574 218 574 215 563 c 128,-1,71
 212 552 212 552 207.5 539 c 128,-1,72
 203 526 203 526 199 510.5 c 128,-1,73
 195 495 195 495 194 475 c 1,74,-1
 195 474 l 1,75,76
 214 475 214 475 230 479 c 128,-1,77
 246 483 246 483 258.5 488 c 128,-1,78
 271 493 271 493 282 496 c 128,-1,79
 293 499 293 499 303 499 c 0,80,81
 316 499 316 499 325 490 c 128,-1,82
 334 481 334 481 334 468 c 256,83,84
 334 455 334 455 325 446 c 128,-1,85
 316 437 316 437 303 437 c 0,86,87
 293 437 293 437 282 440 c 128,-1,88
 271 443 271 443 258.5 448 c 128,-1,89
 246 453 246 453 230 456.5 c 128,-1,90
 214 460 214 460 195 462 c 1,91,-1
 194 461 l 1,92,93
 197 421 197 421 202 395 c 128,-1,94
 207 369 207 369 218 348 c 1,95,96
 203 333 203 333 198.5 306.5 c 128,-1,97
 194 280 194 280 194 256 c 256,98,99
 194 232 194 232 198.5 205.5 c 128,-1,100
 203 179 203 179 218 164 c 1,101,102
 207 144 207 144 202 117.5 c 128,-1,103
 197 91 197 91 194 51 c 1,104,-1
 195 50 l 1,105,106
 214 51 214 51 230 55 c 128,-1,107
 246 59 246 59 258.5 64 c 128,-1,108
 271 69 271 69 282 72 c 128,-1,109
 293 75 293 75 303 75 c 0,110,111
 316 75 316 75 325 66 c 128,-1,112
 334 57 334 57 334 44 c 256,113,114
 334 31 334 31 325 22 c 128,-1,115
 316 13 316 13 303 13 c 0,0,1
EndSplineSet
EndChar

StartChar: perthousand
Encoding: 8240 8240 92
Width: 757
Flags: W
LayerCount: 2
Fore
SplineSet
451 563 m 1,0,-1
 479 563 l 1,1,-1
 70 0 l 1,2,-1
 41 0 l 1,3,-1
 451 563 l 1,0,-1
624 256 m 256,4,5
 667 256 667 256 692 221.5 c 128,-1,6
 717 187 717 187 717 127 c 256,7,8
 717 67 717 67 692 33.5 c 128,-1,9
 667 0 667 0 624 0 c 256,10,11
 581 0 581 0 556 33.5 c 128,-1,12
 531 67 531 67 531 127 c 256,13,14
 531 187 531 187 556 221.5 c 128,-1,15
 581 256 581 256 624 256 c 256,4,5
624 245 m 256,16,17
 595 245 595 245 582.5 218 c 128,-1,18
 570 191 570 191 570 127 c 0,19,20
 570 64 570 64 582.5 37 c 128,-1,21
 595 10 595 10 624 10 c 256,22,23
 653 10 653 10 665 36.5 c 128,-1,24
 677 63 677 63 677 127 c 0,25,26
 677 192 677 192 665 218.5 c 128,-1,27
 653 245 653 245 624 245 c 256,16,17
133 563 m 256,28,29
 176 563 176 563 201 529 c 128,-1,30
 226 495 226 495 226 434 c 256,31,32
 226 374 226 374 201 340.5 c 128,-1,33
 176 307 176 307 133 307 c 256,34,35
 90 307 90 307 65.5 340.5 c 128,-1,36
 41 374 41 374 41 434 c 256,37,38
 41 494 41 494 65.5 528.5 c 128,-1,39
 90 563 90 563 133 563 c 256,28,29
133 552 m 256,40,41
 104 552 104 552 92 525.5 c 128,-1,42
 80 499 80 499 80 434 c 0,43,44
 80 371 80 371 92 344 c 128,-1,45
 104 317 104 317 133 317 c 256,46,47
 162 317 162 317 174 344 c 128,-1,48
 186 371 186 371 186 434 c 0,49,50
 186 499 186 499 174 525.5 c 128,-1,51
 162 552 162 552 133 552 c 256,40,41
388 256 m 256,52,53
 431 256 431 256 456 221.5 c 128,-1,54
 481 187 481 187 481 127 c 256,55,56
 481 67 481 67 456 33.5 c 128,-1,57
 431 0 431 0 388 0 c 256,58,59
 345 0 345 0 320.5 33.5 c 128,-1,60
 296 67 296 67 296 127 c 256,61,62
 296 187 296 187 320.5 221.5 c 128,-1,63
 345 256 345 256 388 256 c 256,52,53
388 245 m 256,64,65
 359 245 359 245 347 218 c 128,-1,66
 335 191 335 191 335 127 c 0,67,68
 335 64 335 64 347 37 c 128,-1,69
 359 10 359 10 388 10 c 256,70,71
 417 10 417 10 429 36.5 c 128,-1,72
 441 63 441 63 441 127 c 0,73,74
 441 192 441 192 429 218.5 c 128,-1,75
 417 245 417 245 388 245 c 256,64,65
EndSplineSet
EndChar

StartChar: guilsinglleft
Encoding: 8249 8249 93
Width: 256
Flags: W
LayerCount: 2
Fore
SplineSet
113 154 m 1,0,-1
 205 0 l 1,1,-1
 193 0 l 1,2,-1
 51 154 l 1,3,-1
 193 307 l 1,4,-1
 205 307 l 1,5,-1
 113 154 l 1,0,-1
EndSplineSet
EndChar

StartChar: quoteleft
Encoding: 8216 8216 94
Width: 184
Flags: W
LayerCount: 2
Fore
SplineSet
133 549 m 1,0,1
 110 544 110 544 98 532 c 128,-1,2
 86 520 86 520 81 507.5 c 128,-1,3
 76 495 76 495 76 484 c 128,-1,4
 76 473 76 473 78 469 c 1,5,6
 85 481 85 481 102 481 c 0,7,8
 115 481 115 481 124 472.5 c 128,-1,9
 133 464 133 464 133 451 c 256,10,11
 133 438 133 438 123.5 429 c 128,-1,12
 114 420 114 420 97 420 c 0,13,14
 77 420 77 420 64 433.5 c 128,-1,15
 51 447 51 447 51 471 c 0,16,17
 51 509 51 509 76 533.5 c 128,-1,18
 101 558 101 558 133 563 c 1,19,-1
 133 549 l 1,0,1
EndSplineSet
EndChar

StartChar: quoteright
Encoding: 8217 8217 95
Width: 184
Flags: W
LayerCount: 2
Fore
SplineSet
51 434 m 1,0,1
 74 439 74 439 86 451 c 128,-1,2
 98 463 98 463 103.5 475.5 c 128,-1,3
 109 488 109 488 109 499 c 128,-1,4
 109 510 109 510 106 514 c 1,5,6
 99 502 99 502 82 502 c 0,7,8
 69 502 69 502 60 510.5 c 128,-1,9
 51 519 51 519 51 532 c 256,10,11
 51 545 51 545 61 554 c 128,-1,12
 71 563 71 563 87 563 c 0,13,14
 107 563 107 563 120 549.5 c 128,-1,15
 133 536 133 536 133 512 c 0,16,17
 133 474 133 474 108 449.5 c 128,-1,18
 83 425 83 425 51 420 c 1,19,-1
 51 434 l 1,0,1
EndSplineSet
EndChar

StartChar: quotedblleft
Encoding: 8220 8220 96
Width: 307
Flags: W
LayerCount: 2
Fore
SplineSet
256 549 m 1,0,1
 233 544 233 544 221 532 c 128,-1,2
 209 520 209 520 204 507.5 c 128,-1,3
 199 495 199 495 199 484 c 128,-1,4
 199 473 199 473 201 469 c 1,5,6
 208 481 208 481 225 481 c 0,7,8
 238 481 238 481 247 472.5 c 128,-1,9
 256 464 256 464 256 451 c 256,10,11
 256 438 256 438 246.5 429 c 128,-1,12
 237 420 237 420 220 420 c 0,13,14
 200 420 200 420 187 433.5 c 128,-1,15
 174 447 174 447 174 471 c 0,16,17
 174 509 174 509 199 533.5 c 128,-1,18
 224 558 224 558 256 563 c 1,19,-1
 256 549 l 1,0,1
133 549 m 1,20,21
 110 544 110 544 98 532 c 128,-1,22
 86 520 86 520 81 507.5 c 128,-1,23
 76 495 76 495 76 484 c 128,-1,24
 76 473 76 473 78 469 c 1,25,26
 85 481 85 481 102 481 c 0,27,28
 115 481 115 481 124 472.5 c 128,-1,29
 133 464 133 464 133 451 c 256,30,31
 133 438 133 438 123.5 429 c 128,-1,32
 114 420 114 420 97 420 c 0,33,34
 77 420 77 420 64 433.5 c 128,-1,35
 51 447 51 447 51 471 c 0,36,37
 51 509 51 509 76 533.5 c 128,-1,38
 101 558 101 558 133 563 c 1,39,-1
 133 549 l 1,20,21
EndSplineSet
EndChar

StartChar: quotedblright
Encoding: 8221 8221 97
Width: 307
Flags: W
LayerCount: 2
Fore
SplineSet
174 434 m 1,0,1
 197 439 197 439 209 451 c 128,-1,2
 221 463 221 463 226 475.5 c 128,-1,3
 231 488 231 488 231 499 c 128,-1,4
 231 510 231 510 229 514 c 1,5,6
 222 502 222 502 205 502 c 0,7,8
 192 502 192 502 183 510.5 c 128,-1,9
 174 519 174 519 174 532 c 256,10,11
 174 545 174 545 184 554 c 128,-1,12
 194 563 194 563 210 563 c 0,13,14
 230 563 230 563 243 549.5 c 128,-1,15
 256 536 256 536 256 512 c 0,16,17
 256 474 256 474 231 449.5 c 128,-1,18
 206 425 206 425 174 420 c 1,19,-1
 174 434 l 1,0,1
51 434 m 1,20,21
 74 439 74 439 86 451 c 128,-1,22
 98 463 98 463 103.5 475.5 c 128,-1,23
 109 488 109 488 109 499 c 128,-1,24
 109 510 109 510 106 514 c 1,25,26
 99 502 99 502 82 502 c 0,27,28
 69 502 69 502 60 510.5 c 128,-1,29
 51 519 51 519 51 532 c 256,30,31
 51 545 51 545 61 554 c 128,-1,32
 71 563 71 563 87 563 c 0,33,34
 107 563 107 563 120 549.5 c 128,-1,35
 133 536 133 536 133 512 c 0,36,37
 133 474 133 474 108 449.5 c 128,-1,38
 83 425 83 425 51 420 c 1,39,-1
 51 434 l 1,20,21
EndSplineSet
EndChar

StartChar: bullet
Encoding: 8226 8226 98
Width: 245
Flags: W
LayerCount: 2
Fore
SplineSet
123 307 m 256,0,1
 153 307 153 307 174 286 c 128,-1,2
 195 265 195 265 195 236 c 256,3,4
 195 206 195 206 174 185 c 128,-1,5
 153 164 153 164 123 164 c 256,6,7
 93 164 93 164 72 185 c 128,-1,8
 51 206 51 206 51 236 c 256,9,10
 51 266 51 266 72 286.5 c 128,-1,11
 93 307 93 307 123 307 c 256,0,1
EndSplineSet
EndChar

StartChar: endash
Encoding: 8211 8211 99
Width: 409
Flags: W
LayerCount: 2
Fore
SplineSet
358 204 m 1,0,-1
 358 175 l 1,1,-1
 51 175 l 1,2,-1
 51 204 l 1,3,-1
 358 204 l 1,0,-1
EndSplineSet
EndChar

StartChar: emdash
Encoding: 8212 8212 100
Width: 583
Flags: W
LayerCount: 2
Fore
SplineSet
532 204 m 1,0,-1
 532 175 l 1,1,-1
 51 175 l 1,2,-1
 51 204 l 1,3,-1
 532 204 l 1,0,-1
EndSplineSet
EndChar

StartChar: trademark
Encoding: 8482 8482 101
Width: 691
Flags: W
LayerCount: 2
Fore
SplineSet
98 342 m 1,0,1
 109 344 109 344 116 346.5 c 128,-1,2
 123 349 123 349 126.5 355 c 128,-1,3
 130 361 130 361 131 373 c 128,-1,4
 132 385 132 385 132 406 c 2,5,-1
 132 594 l 1,6,-1
 102 594 l 2,7,8
 85 594 85 594 75 592.5 c 128,-1,9
 65 591 65 591 59 586 c 128,-1,10
 53 581 53 581 50.5 571.5 c 128,-1,11
 48 562 48 562 45 547 c 1,12,-1
 31 547 l 1,13,-1
 35 614 l 1,14,-1
 281 614 l 1,15,-1
 285 547 l 1,16,-1
 270 547 l 1,17,18
 264 578 264 578 251 586 c 128,-1,19
 238 594 238 594 203 594 c 2,20,-1
 183 594 l 1,21,-1
 183 406 l 2,22,23
 183 386 183 386 184 373.5 c 128,-1,24
 185 361 185 361 189 355 c 128,-1,25
 193 349 193 349 199.5 346.5 c 128,-1,26
 206 344 206 344 217 342 c 1,27,-1
 217 328 l 1,28,-1
 98 328 l 1,29,-1
 98 342 l 1,0,1
307 342 m 1,30,31
 318 344 318 344 325 346.5 c 128,-1,32
 332 349 332 349 335.5 355 c 128,-1,33
 339 361 339 361 340 373 c 128,-1,34
 341 385 341 385 341 406 c 2,35,-1
 341 537 l 2,36,37
 341 557 341 557 340 569 c 128,-1,38
 339 581 339 581 335.5 587 c 128,-1,39
 332 593 332 593 325 595.5 c 128,-1,40
 318 598 318 598 307 600 c 1,41,-1
 307 614 l 1,42,-1
 391 614 l 1,43,-1
 487 390 l 1,44,-1
 575 614 l 1,45,-1
 660 614 l 1,46,-1
 660 600 l 1,47,48
 649 598 649 598 642.5 595.5 c 128,-1,49
 636 593 636 593 632.5 587 c 128,-1,50
 629 581 629 581 628 569 c 128,-1,51
 627 557 627 557 627 537 c 2,52,-1
 627 406 l 2,53,54
 627 386 627 386 628 373.5 c 128,-1,55
 629 361 629 361 632.5 355 c 128,-1,56
 636 349 636 349 642.5 346.5 c 128,-1,57
 649 344 649 344 660 342 c 1,58,-1
 660 328 l 1,59,-1
 542 328 l 1,60,-1
 542 342 l 1,61,62
 553 344 553 344 559.5 346.5 c 128,-1,63
 566 349 566 349 569.5 355 c 128,-1,64
 573 361 573 361 574 373 c 128,-1,65
 575 385 575 385 575 406 c 2,66,-1
 575 563 l 1,67,-1
 483 328 l 1,68,-1
 463 328 l 1,69,-1
 361 563 l 1,70,-1
 361 406 l 2,71,72
 361 386 361 386 362.5 373.5 c 128,-1,73
 364 361 364 361 367.5 355 c 128,-1,74
 371 349 371 349 377.5 346.5 c 128,-1,75
 384 344 384 344 395 342 c 1,76,-1
 395 328 l 1,77,-1
 307 328 l 1,78,-1
 307 342 l 1,30,31
EndSplineSet
EndChar

StartChar: scaron
Encoding: 353 353 102
Width: 421
Flags: W
LayerCount: 2
Fore
SplineSet
134 480 m 1,0,-1
 134 343 l 1,1,2
 165 356 165 356 196 357 c 1,3,-1
 196 485 l 1,4,-1
 134 480 l 1,0,-1
257 353 m 1,5,6
 316 339 316 339 353 292 c 128,-1,7
 390 245 390 245 390 179 c 0,8,9
 390 144 390 144 379.5 115 c 128,-1,10
 369 86 369 86 349 62 c 1,11,-1
 349 -55 l 2,12,13
 349 -72 349 -72 350.5 -83.5 c 128,-1,14
 352 -95 352 -95 357 -102 c 128,-1,15
 362 -109 362 -109 371.5 -112.5 c 128,-1,16
 381 -116 381 -116 396 -119 c 1,17,-1
 396 -133 l 1,18,-1
 165 -154 l 1,19,-1
 165 5 l 1,20,21
 106 19 106 19 69 66.5 c 128,-1,22
 32 114 32 114 32 179 c 0,23,24
 32 214 32 214 42.5 243.5 c 128,-1,25
 53 273 53 273 73 297 c 1,26,-1
 73 414 l 2,27,28
 73 431 73 431 71.5 442.5 c 128,-1,29
 70 454 70 454 64.5 460.5 c 128,-1,30
 59 467 59 467 50 470.5 c 128,-1,31
 41 474 41 474 26 477 c 1,32,-1
 26 492 l 1,33,-1
 257 512 l 1,34,-1
 257 353 l 1,5,6
288 -122 m 1,35,-1
 288 15 l 1,36,37
 260 3 260 3 226 0 c 1,38,-1
 226 -127 l 1,39,-1
 288 -122 l 1,35,-1
211 338 m 256,40,41
 146 338 146 338 119.5 301.5 c 128,-1,42
 93 265 93 265 93 179 c 256,43,44
 93 93 93 93 119.5 56.5 c 128,-1,45
 146 20 146 20 211 20 c 256,46,47
 276 20 276 20 302.5 56.5 c 128,-1,48
 329 93 329 93 329 179 c 256,49,50
 329 265 329 265 302.5 301.5 c 128,-1,51
 276 338 276 338 211 338 c 256,40,41
EndSplineSet
EndChar

StartChar: guilsinglright
Encoding: 8250 8250 103
Width: 256
Flags: W
LayerCount: 2
Fore
SplineSet
63 307 m 1,0,-1
 205 154 l 1,1,-1
 63 0 l 1,2,-1
 51 0 l 1,3,-1
 143 154 l 1,4,-1
 51 307 l 1,5,-1
 63 307 l 1,0,-1
EndSplineSet
EndChar

StartChar: oe
Encoding: 339 339 104
Width: 739
Flags: W
LayerCount: 2
Fore
SplineSet
400 20 m 1,0,-1
 400 102 l 2,1,2
 400 159 400 159 410.5 195.5 c 128,-1,3
 421 232 421 232 445 252 c 128,-1,4
 469 272 469 272 508.5 279.5 c 128,-1,5
 548 287 548 287 605 287 c 2,6,-1
 714 287 l 1,7,-1
 714 272 l 1,8,9
 699 269 699 269 689.5 265.5 c 128,-1,10
 680 262 680 262 675 255.5 c 128,-1,11
 670 249 670 249 668.5 237.5 c 128,-1,12
 667 226 667 226 667 209 c 2,13,-1
 667 78 l 2,14,15
 667 61 667 61 668.5 49.5 c 128,-1,16
 670 38 670 38 675 31.5 c 128,-1,17
 680 25 680 25 689 21 c 128,-1,18
 698 17 698 17 714 14 c 1,19,-1
 714 0 l 1,20,-1
 462 0 l 1,21,-1
 462 -229 l 2,22,23
 462 -246 462 -246 463.5 -257.5 c 128,-1,24
 465 -269 465 -269 470 -276 c 128,-1,25
 475 -283 475 -283 484.5 -286.5 c 128,-1,26
 494 -290 494 -290 509 -293 c 1,27,-1
 509 -307 l 1,28,-1
 230 -307 l 1,29,-1
 230 -293 l 1,30,31
 245 -290 245 -290 254.5 -286.5 c 128,-1,32
 264 -283 264 -283 269 -276 c 128,-1,33
 274 -269 274 -269 276 -258 c 128,-1,34
 278 -247 278 -247 278 -229 c 2,35,-1
 278 0 l 1,36,-1
 26 0 l 1,37,-1
 26 14 l 1,38,39
 41 17 41 17 50 21 c 128,-1,40
 59 25 59 25 64.5 31.5 c 128,-1,41
 70 38 70 38 71.5 49 c 128,-1,42
 73 60 73 60 73 78 c 2,43,-1
 73 209 l 2,44,45
 73 226 73 226 71.5 237.5 c 128,-1,46
 70 249 70 249 64.5 255.5 c 128,-1,47
 59 262 59 262 50 265.5 c 128,-1,48
 41 269 41 269 26 272 c 1,49,-1
 26 287 l 1,50,-1
 134 287 l 2,51,52
 191 287 191 287 230.5 279.5 c 128,-1,53
 270 272 270 272 294 252 c 128,-1,54
 318 232 318 232 328.5 196 c 128,-1,55
 339 160 339 160 339 102 c 2,56,-1
 339 20 l 1,57,-1
 400 20 l 1,0,-1
339 -287 m 1,58,-1
 400 -287 l 1,59,-1
 400 0 l 1,60,-1
 339 0 l 1,61,-1
 339 -287 l 1,58,-1
605 266 m 1,62,-1
 585 266 l 2,63,64
 539 266 539 266 513.5 254.5 c 128,-1,65
 488 243 488 243 477 219 c 128,-1,66
 466 195 466 195 464 158.5 c 128,-1,67
 462 122 462 122 462 72 c 2,68,-1
 462 20 l 1,69,-1
 605 20 l 1,70,-1
 605 266 l 1,62,-1
278 20 m 1,71,-1
 278 72 l 2,72,73
 278 122 278 122 275.5 158.5 c 128,-1,74
 273 195 273 195 261.5 219 c 128,-1,75
 250 243 250 243 225.5 254.5 c 128,-1,76
 201 266 201 266 155 266 c 2,77,-1
 134 266 l 1,78,-1
 134 20 l 1,79,-1
 278 20 l 1,71,-1
EndSplineSet
EndChar

StartChar: exclamdown
Encoding: 161 161 105
Width: 163
Flags: W
LayerCount: 2
Fore
SplineSet
82 410 m 256,0,1
 69 410 69 410 60 418.5 c 128,-1,2
 51 427 51 427 51 440 c 256,3,4
 51 453 51 453 60 462 c 128,-1,5
 69 471 69 471 82 471 c 256,6,7
 95 471 95 471 104 462.5 c 128,-1,8
 113 454 113 454 113 440 c 256,9,10
 113 427 113 427 104 418.5 c 128,-1,11
 95 410 95 410 82 410 c 256,0,1
88 369 m 1,12,13
 93 312 93 312 97.5 257.5 c 128,-1,14
 102 203 102 203 105.5 158 c 128,-1,15
 109 113 109 113 111 79.5 c 128,-1,16
 113 46 113 46 113 31 c 0,17,18
 113 18 113 18 104 9 c 128,-1,19
 95 0 95 0 82 0 c 256,20,21
 69 0 69 0 60 8.5 c 128,-1,22
 51 17 51 17 51 31 c 0,23,24
 51 46 51 46 53 79.5 c 128,-1,25
 55 113 55 113 58 158 c 128,-1,26
 61 203 61 203 66 257 c 128,-1,27
 71 311 71 311 76 369 c 1,28,-1
 88 369 l 1,12,13
EndSplineSet
EndChar

StartChar: cent
Encoding: 162 162 106
Width: 307
Flags: W
LayerCount: 2
Fore
SplineSet
276 61 m 1,0,1
 258 34 258 34 230.5 17 c 128,-1,2
 203 0 203 0 164 0 c 0,3,4
 156 0 156 0 145 2 c 1,5,-1
 121 -123 l 1,6,-1
 92 -123 l 1,7,-1
 118 8 l 1,8,9
 78 22 78 22 54.5 58 c 128,-1,10
 31 94 31 94 31 143 c 0,11,12
 31 174 31 174 41 200.5 c 128,-1,13
 51 227 51 227 68.5 246 c 128,-1,14
 86 265 86 265 110.5 276 c 128,-1,15
 135 287 135 287 164 287 c 2,16,-1
 174 287 l 1,17,-1
 199 410 l 1,18,-1
 227 410 l 1,19,-1
 202 282 l 1,20,21
 237 272 237 272 255 249.5 c 128,-1,22
 273 227 273 227 273 209 c 0,23,24
 273 198 273 198 267 191 c 128,-1,25
 261 184 261 184 248 184 c 0,26,27
 232 184 232 184 227.5 193 c 128,-1,28
 223 202 223 202 221 215 c 0,29,30
 219 227 219 227 215.5 239.5 c 128,-1,31
 212 252 212 252 198 260 c 1,32,-1
 151 27 l 1,33,34
 164 21 164 21 180 20 c 0,35,36
 204 20 204 20 226 33 c 128,-1,37
 248 46 248 46 264 70 c 1,38,-1
 276 61 l 1,0,1
170 266 m 1,39,-1
 164 266 l 2,40,41
 125 266 125 266 108.5 238 c 128,-1,42
 92 210 92 210 92 143 c 0,43,44
 92 107 92 107 101.5 82 c 128,-1,45
 111 57 111 57 125 43 c 1,46,-1
 170 266 l 1,39,-1
EndSplineSet
EndChar

StartChar: sterling
Encoding: 163 163 107
Width: 358
Flags: W
LayerCount: 2
Fore
SplineSet
328 102 m 1,0,1
 324 83 324 83 316.5 64.5 c 128,-1,2
 309 46 309 46 298 31.5 c 128,-1,3
 287 17 287 17 271.5 8.5 c 128,-1,4
 256 0 256 0 236 0 c 0,5,6
 209 0 209 0 186 17 c 128,-1,7
 163 34 163 34 139 49 c 1,8,9
 131 25 131 25 116 12.5 c 128,-1,10
 101 0 101 0 79 0 c 0,11,12
 55 0 55 0 43 14.5 c 128,-1,13
 31 29 31 29 31 46 c 256,14,15
 31 63 31 63 43 77.5 c 128,-1,16
 55 92 55 92 79 92 c 0,17,18
 87 92 87 92 94 92 c 128,-1,19
 101 92 101 92 109 91 c 1,20,21
 107 113 107 113 103.5 141 c 128,-1,22
 100 169 100 169 97 205 c 1,23,-1
 31 205 l 1,24,-1
 31 246 l 1,25,-1
 94 246 l 1,26,27
 91 292 91 292 91 348 c 0,28,29
 91 375 91 375 100.5 397.5 c 128,-1,30
 110 420 110 420 125.5 436.5 c 128,-1,31
 141 453 141 453 163 462 c 128,-1,32
 185 471 185 471 210 471 c 0,33,34
 260 471 260 471 294 448 c 128,-1,35
 328 425 328 425 328 379 c 0,36,37
 328 361 328 361 318.5 348 c 128,-1,38
 309 335 309 335 294 335 c 0,39,40
 283 335 283 335 274.5 342.5 c 128,-1,41
 266 350 266 350 266 364 c 0,42,43
 266 373 266 373 269 378 c 128,-1,44
 272 383 272 383 276 388 c 128,-1,45
 280 393 280 393 283 399.5 c 128,-1,46
 286 406 286 406 286 415 c 0,47,48
 286 430 286 430 266 440.5 c 128,-1,49
 246 451 246 451 219 451 c 0,50,51
 214 451 214 451 203.5 448.5 c 128,-1,52
 193 446 193 446 181.5 438.5 c 128,-1,53
 170 431 170 431 161.5 416.5 c 128,-1,54
 153 402 153 402 153 377 c 256,55,56
 153 351 153 351 154.5 318 c 128,-1,57
 156 285 156 285 158 246 c 1,58,-1
 256 246 l 1,59,-1
 256 205 l 1,60,-1
 159 205 l 1,61,62
 159 172 159 172 157 141 c 128,-1,63
 155 110 155 110 150 83 c 1,64,65
 177 76 177 76 200.5 68.5 c 128,-1,66
 224 61 224 61 253 61 c 0,67,68
 284 61 284 61 297 75.5 c 128,-1,69
 310 90 310 90 313 102 c 1,70,-1
 328 102 l 1,0,1
111 66 m 1,71,72
 103 68 103 68 95 70 c 128,-1,73
 87 72 87 72 79 72 c 0,74,75
 67 72 67 72 59 65 c 128,-1,76
 51 58 51 58 51 46 c 256,77,78
 51 34 51 34 59 27 c 128,-1,79
 67 20 67 20 79 20 c 0,80,81
 97 20 97 20 104 31 c 128,-1,82
 111 42 111 42 111 66 c 1,71,72
EndSplineSet
EndChar

StartChar: currency
Encoding: 164 164 108
Width: 339
Flags: W
LayerCount: 2
Fore
SplineSet
108 318 m 1,0,1
 119 328 119 328 136 334 c 128,-1,2
 153 340 153 340 170 340 c 256,3,4
 187 340 187 340 204 334.5 c 128,-1,5
 221 329 221 329 232 318 c 1,6,-1
 268 354 l 1,7,-1
 289 334 l 1,8,-1
 253 298 l 1,9,10
 263 287 263 287 268.5 270 c 128,-1,11
 274 253 274 253 274 236 c 256,12,13
 274 219 274 219 268.5 201.5 c 128,-1,14
 263 184 263 184 253 173 c 1,15,-1
 289 137 l 1,16,-1
 268 117 l 1,17,-1
 232 153 l 1,18,19
 221 143 221 143 204 137 c 128,-1,20
 187 131 187 131 170 131 c 256,21,22
 153 131 153 131 136 136.5 c 128,-1,23
 119 142 119 142 108 153 c 1,24,-1
 72 117 l 1,25,-1
 51 137 l 1,26,-1
 87 173 l 1,27,28
 77 184 77 184 71.5 201 c 128,-1,29
 66 218 66 218 66 236 c 256,30,31
 66 253 66 253 71.5 270 c 128,-1,32
 77 287 77 287 87 298 c 1,33,-1
 51 334 l 1,34,-1
 72 354 l 1,35,-1
 108 318 l 1,0,1
170 311 m 256,36,37
 138 311 138 311 116 289 c 128,-1,38
 94 267 94 267 94 236 c 256,39,40
 94 204 94 204 116 182 c 128,-1,41
 138 160 138 160 170 160 c 256,42,43
 202 160 202 160 224 182 c 128,-1,44
 246 204 246 204 246 236 c 256,45,46
 246 268 246 268 224 289.5 c 128,-1,47
 202 311 202 311 170 311 c 256,36,37
EndSplineSet
EndChar

StartChar: yen
Encoding: 165 165 109
Width: 368
Flags: W
LayerCount: 2
Fore
SplineSet
154 152 m 1,0,-1
 154 217 l 1,1,-1
 31 217 l 1,2,-1
 31 246 l 1,3,-1
 144 246 l 1,4,-1
 97 393 l 2,5,6
 91 410 91 410 86 421.5 c 128,-1,7
 81 433 81 433 74.5 439.5 c 128,-1,8
 68 446 68 446 57.5 450 c 128,-1,9
 47 454 47 454 31 457 c 1,10,-1
 31 471 l 1,11,-1
 186 471 l 1,12,-1
 186 457 l 1,13,14
 172 454 172 454 164 450 c 128,-1,15
 156 446 156 446 153 439.5 c 128,-1,16
 150 433 150 433 151.5 422 c 128,-1,17
 153 411 153 411 159 393 c 2,18,-1
 206 247 l 1,19,-1
 251 393 l 2,20,21
 256 410 256 410 258 421.5 c 128,-1,22
 260 433 260 433 257 439.5 c 128,-1,23
 254 446 254 446 246 450 c 128,-1,24
 238 454 238 454 223 457 c 1,25,-1
 223 471 l 1,26,-1
 338 471 l 1,27,-1
 338 457 l 1,28,29
 322 454 322 454 311 450 c 128,-1,30
 300 446 300 446 293.5 439.5 c 128,-1,31
 287 433 287 433 281.5 422 c 128,-1,32
 276 411 276 411 271 393 c 2,33,-1
 225 246 l 1,34,-1
 338 246 l 1,35,-1
 338 217 l 1,36,-1
 215 217 l 1,37,-1
 215 152 l 1,38,-1
 338 152 l 1,39,-1
 338 123 l 1,40,-1
 215 123 l 1,41,-1
 215 78 l 2,42,43
 215 61 215 61 216.5 49.5 c 128,-1,44
 218 38 218 38 223 31.5 c 128,-1,45
 228 25 228 25 237.5 21 c 128,-1,46
 247 17 247 17 262 14 c 1,47,-1
 262 0 l 1,48,-1
 106 0 l 1,49,-1
 106 14 l 1,50,51
 121 17 121 17 130.5 21 c 128,-1,52
 140 25 140 25 145.5 31.5 c 128,-1,53
 151 38 151 38 152.5 49 c 128,-1,54
 154 60 154 60 154 78 c 2,55,-1
 154 123 l 1,56,-1
 31 123 l 1,57,-1
 31 152 l 1,58,-1
 154 152 l 1,0,-1
EndSplineSet
EndChar

StartChar: brokenbar
Encoding: 166 166 110
Width: 131
Flags: W
LayerCount: 2
Fore
SplineSet
80 -102 m 1,0,-1
 51 -102 l 1,1,-1
 51 205 l 1,2,-1
 80 205 l 1,3,-1
 80 -102 l 1,0,-1
80 307 m 1,4,-1
 51 307 l 1,5,-1
 51 614 l 1,6,-1
 80 614 l 1,7,-1
 80 307 l 1,4,-1
EndSplineSet
EndChar

StartChar: section
Encoding: 167 167 111
Width: 348
Flags: W
LayerCount: 2
Fore
SplineSet
96 289 m 1,0,1
 78 303 78 303 66.5 321.5 c 128,-1,2
 55 340 55 340 55 369 c 0,3,4
 55 395 55 395 65.5 414 c 128,-1,5
 76 433 76 433 93 446 c 128,-1,6
 110 459 110 459 131 465 c 128,-1,7
 152 471 152 471 174 471 c 256,8,9
 197 471 197 471 218 465 c 128,-1,10
 239 459 239 459 255 447.5 c 128,-1,11
 271 436 271 436 281.5 418.5 c 128,-1,12
 292 401 292 401 292 379 c 0,13,14
 292 361 292 361 282.5 348 c 128,-1,15
 273 335 273 335 258 335 c 0,16,17
 247 335 247 335 238.5 342.5 c 128,-1,18
 230 350 230 350 230 364 c 0,19,20
 230 373 230 373 233.5 378 c 128,-1,21
 237 383 237 383 240.5 388 c 128,-1,22
 244 393 244 393 247 399.5 c 128,-1,23
 250 406 250 406 250 415 c 0,24,25
 250 430 250 430 228 440.5 c 128,-1,26
 206 451 206 451 179 451 c 256,27,28
 152 451 152 451 131 436.5 c 128,-1,29
 110 422 110 422 110 387 c 0,30,31
 110 360 110 360 125 343.5 c 128,-1,32
 140 327 140 327 163 314.5 c 128,-1,33
 186 302 186 302 213.5 291.5 c 128,-1,34
 241 281 241 281 264 266 c 128,-1,35
 287 251 287 251 302 229 c 128,-1,36
 317 207 317 207 317 172 c 0,37,38
 317 136 317 136 300 114 c 128,-1,39
 283 92 283 92 254 81 c 1,40,41
 271 67 271 67 282 47.5 c 128,-1,42
 293 28 293 28 293 0 c 0,43,44
 293 -26 293 -26 282.5 -45.5 c 128,-1,45
 272 -65 272 -65 255.5 -77.5 c 128,-1,46
 239 -90 239 -90 218 -96 c 128,-1,47
 197 -102 197 -102 174 -102 c 256,48,49
 151 -102 151 -102 130.5 -96 c 128,-1,50
 110 -90 110 -90 93.5 -79 c 128,-1,51
 77 -68 77 -68 66.5 -50.5 c 128,-1,52
 56 -33 56 -33 56 -10 c 0,53,54
 56 8 56 8 65.5 21 c 128,-1,55
 75 34 75 34 90 34 c 0,56,57
 101 34 101 34 109.5 26 c 128,-1,58
 118 18 118 18 118 5 c 0,59,60
 118 -4 118 -4 115 -9 c 128,-1,61
 112 -14 112 -14 108 -19.5 c 128,-1,62
 104 -25 104 -25 101 -31 c 128,-1,63
 98 -37 98 -37 98 -46 c 0,64,65
 98 -61 98 -61 120 -71.5 c 128,-1,66
 142 -82 142 -82 169 -82 c 256,67,68
 196 -82 196 -82 217.5 -67.5 c 128,-1,69
 239 -53 239 -53 239 -18 c 0,70,71
 239 9 239 9 223.5 25.5 c 128,-1,72
 208 42 208 42 185 54.5 c 128,-1,73
 162 67 162 67 135 77.5 c 128,-1,74
 108 88 108 88 84.5 103 c 128,-1,75
 61 118 61 118 46 140 c 128,-1,76
 31 162 31 162 31 197 c 0,77,78
 31 233 31 233 49 255.5 c 128,-1,79
 67 278 67 278 96 289 c 1,0,1
234 94 m 1,80,81
 247 104 247 104 255.5 118.5 c 128,-1,82
 264 133 264 133 264 153 c 0,83,84
 264 181 264 181 249 197.5 c 128,-1,85
 234 214 234 214 212 227 c 128,-1,86
 190 240 190 240 163.5 250.5 c 128,-1,87
 137 261 137 261 115 275 c 1,88,89
 101 265 101 265 92.5 250.5 c 128,-1,90
 84 236 84 236 84 216 c 0,91,92
 84 188 84 188 99 171.5 c 128,-1,93
 114 155 114 155 136 142 c 128,-1,94
 158 129 158 129 184 118 c 128,-1,95
 210 107 210 107 234 94 c 1,80,81
EndSplineSet
EndChar

StartChar: copyright
Encoding: 169 169 112
Width: 532
Flags: W
LayerCount: 2
Fore
SplineSet
266 614 m 256,0,1
 314 614 314 614 357 596 c 128,-1,2
 400 578 400 578 432.5 545.5 c 128,-1,3
 465 513 465 513 483.5 470 c 128,-1,4
 502 427 502 427 502 379 c 256,5,6
 502 331 502 331 483.5 288 c 128,-1,7
 465 245 465 245 432.5 212.5 c 128,-1,8
 400 180 400 180 357 161.5 c 128,-1,9
 314 143 314 143 266 143 c 256,10,11
 218 143 218 143 175 161.5 c 128,-1,12
 132 180 132 180 100 212.5 c 128,-1,13
 68 245 68 245 49.5 288 c 128,-1,14
 31 331 31 331 31 379 c 256,15,16
 31 427 31 427 49.5 470 c 128,-1,17
 68 513 68 513 100 545.5 c 128,-1,18
 132 578 132 578 175 596 c 128,-1,19
 218 614 218 614 266 614 c 256,0,1
266 586 m 256,20,21
 223 586 223 586 185 569.5 c 128,-1,22
 147 553 147 553 119.5 525.5 c 128,-1,23
 92 498 92 498 75.5 460 c 128,-1,24
 59 422 59 422 59 379 c 256,25,26
 59 336 59 336 75.5 298 c 128,-1,27
 92 260 92 260 119.5 232.5 c 128,-1,28
 147 205 147 205 185 188.5 c 128,-1,29
 223 172 223 172 266 172 c 256,30,31
 309 172 309 172 347 188.5 c 128,-1,32
 385 205 385 205 412.5 232.5 c 128,-1,33
 440 260 440 260 456.5 298 c 128,-1,34
 473 336 473 336 473 379 c 256,35,36
 473 422 473 422 456.5 460 c 128,-1,37
 440 498 440 498 412.5 525.5 c 128,-1,38
 385 553 385 553 347 569.5 c 128,-1,39
 309 586 309 586 266 586 c 256,20,21
379 287 m 1,40,41
 359 263 359 263 330.5 249.5 c 128,-1,42
 302 236 302 236 266 236 c 0,43,44
 235 236 235 236 208.5 246.5 c 128,-1,45
 182 257 182 257 163 276 c 128,-1,46
 144 295 144 295 133.5 321.5 c 128,-1,47
 123 348 123 348 123 379 c 256,48,49
 123 410 123 410 133.5 436.5 c 128,-1,50
 144 463 144 463 163 482 c 128,-1,51
 182 501 182 501 209 511.5 c 128,-1,52
 236 522 236 522 266 522 c 0,53,54
 293 522 293 522 310 516.5 c 128,-1,55
 327 511 327 511 335 507 c 256,56,57
 343 503 343 503 347.5 503.5 c 128,-1,58
 352 504 352 504 354 522 c 1,59,-1
 369 522 l 1,60,-1
 379 440 l 1,61,-1
 365 440 l 1,62,63
 357 470 357 470 332.5 486 c 128,-1,64
 308 502 308 502 281 502 c 0,65,66
 261 502 261 502 241.5 494.5 c 128,-1,67
 222 487 222 487 207.5 472.5 c 128,-1,68
 193 458 193 458 183.5 434.5 c 128,-1,69
 174 411 174 411 174 379 c 0,70,71
 174 323 174 323 203 289.5 c 128,-1,72
 232 256 232 256 282 256 c 0,73,74
 337 256 337 256 366 297 c 1,75,-1
 379 287 l 1,40,41
EndSplineSet
EndChar

StartChar: ordfeminine
Encoding: 170 170 113
Width: 611
Flags: W
LayerCount: 2
Fore
SplineSet
20 0 m 1,0,-1
 20 14 l 1,1,2
 35 17 35 17 44.5 21 c 128,-1,3
 54 25 54 25 59.5 31.5 c 128,-1,4
 65 38 65 38 66.5 49 c 128,-1,5
 68 60 68 60 68 78 c 2,6,-1
 68 102 l 2,7,8
 68 159 68 159 78 195.5 c 128,-1,9
 88 232 88 232 112 252 c 128,-1,10
 136 272 136 272 175.5 279.5 c 128,-1,11
 215 287 215 287 272 287 c 1,12,-1
 272 537 l 2,13,14
 272 554 272 554 270.5 565.5 c 128,-1,15
 269 577 269 577 264 583.5 c 128,-1,16
 259 590 259 590 250 593.5 c 128,-1,17
 241 597 241 597 225 600 c 1,18,-1
 225 614 l 1,19,-1
 586 614 l 1,20,-1
 586 600 l 1,21,22
 571 597 571 597 561.5 593.5 c 128,-1,23
 552 590 552 590 547 583.5 c 128,-1,24
 542 577 542 577 540.5 565.5 c 128,-1,25
 539 554 539 554 539 537 c 2,26,-1
 539 78 l 2,27,28
 539 61 539 61 540.5 49.5 c 128,-1,29
 542 38 542 38 547 31.5 c 128,-1,30
 552 25 552 25 561 21 c 128,-1,31
 570 17 570 17 586 14 c 1,32,-1
 586 0 l 1,33,-1
 477 0 l 1,34,-1
 477 594 l 1,35,-1
 334 594 l 1,36,-1
 334 0 l 1,37,-1
 20 0 l 1,0,-1
272 266 m 1,38,-1
 252 266 l 2,39,40
 209 266 209 266 184.5 256 c 128,-1,41
 160 246 160 246 147.5 225 c 128,-1,42
 135 204 135 204 132 172 c 128,-1,43
 129 140 129 140 129 96 c 2,44,-1
 129 20 l 1,45,-1
 272 20 l 1,46,-1
 272 266 l 1,38,-1
EndSplineSet
EndChar

StartChar: guillemotleft
Encoding: 171 171 114
Width: 378
Flags: W
LayerCount: 2
Fore
SplineSet
236 154 m 1,0,-1
 328 0 l 1,1,-1
 315 0 l 1,2,-1
 174 154 l 1,3,-1
 315 307 l 1,4,-1
 328 307 l 1,5,-1
 236 154 l 1,0,-1
113 154 m 1,6,-1
 205 0 l 1,7,-1
 193 0 l 1,8,-1
 51 154 l 1,9,-1
 193 307 l 1,10,-1
 205 307 l 1,11,-1
 113 154 l 1,6,-1
EndSplineSet
EndChar

StartChar: logicalnot
Encoding: 172 172 115
Width: 409
Flags: W
LayerCount: 2
Fore
SplineSet
330 164 m 1,0,-1
 330 279 l 1,1,-1
 51 279 l 1,2,-1
 51 307 l 1,3,-1
 358 307 l 1,4,-1
 358 164 l 1,5,-1
 330 164 l 1,0,-1
EndSplineSet
EndChar

StartChar: registered
Encoding: 174 174 116
Width: 532
Flags: W
LayerCount: 2
Fore
SplineSet
266 614 m 256,0,1
 314 614 314 614 357 596 c 128,-1,2
 400 578 400 578 432.5 545.5 c 128,-1,3
 465 513 465 513 483.5 470 c 128,-1,4
 502 427 502 427 502 379 c 256,5,6
 502 331 502 331 483.5 288 c 128,-1,7
 465 245 465 245 432.5 212.5 c 128,-1,8
 400 180 400 180 357 161.5 c 128,-1,9
 314 143 314 143 266 143 c 256,10,11
 218 143 218 143 175 161.5 c 128,-1,12
 132 180 132 180 100 212.5 c 128,-1,13
 68 245 68 245 49.5 288 c 128,-1,14
 31 331 31 331 31 379 c 256,15,16
 31 427 31 427 49.5 470 c 128,-1,17
 68 513 68 513 100 545.5 c 128,-1,18
 132 578 132 578 175 596 c 128,-1,19
 218 614 218 614 266 614 c 256,0,1
266 586 m 256,20,21
 223 586 223 586 185 569.5 c 128,-1,22
 147 553 147 553 119.5 525.5 c 128,-1,23
 92 498 92 498 75.5 460 c 128,-1,24
 59 422 59 422 59 379 c 256,25,26
 59 336 59 336 75.5 298 c 128,-1,27
 92 260 92 260 119.5 232.5 c 128,-1,28
 147 205 147 205 185 188.5 c 128,-1,29
 223 172 223 172 266 172 c 256,30,31
 309 172 309 172 347 188.5 c 128,-1,32
 385 205 385 205 412.5 232.5 c 128,-1,33
 440 260 440 260 456.5 298 c 128,-1,34
 473 336 473 336 473 379 c 256,35,36
 473 422 473 422 456.5 460 c 128,-1,37
 440 498 440 498 412.5 525.5 c 128,-1,38
 385 553 385 553 347 569.5 c 128,-1,39
 309 586 309 586 266 586 c 256,20,21
263 522 m 2,40,41
 321 522 321 522 348.5 498.5 c 128,-1,42
 376 475 376 475 376 445 c 0,43,44
 376 391 376 391 307 369 c 1,45,-1
 332 313 l 2,46,47
 341 293 341 293 347.5 281 c 128,-1,48
 354 269 354 269 361 263 c 128,-1,49
 368 257 368 257 376.5 254.5 c 128,-1,50
 385 252 385 252 399 250 c 1,51,-1
 399 236 l 1,52,-1
 315 236 l 1,53,-1
 256 369 l 1,54,-1
 218 369 l 1,55,-1
 218 313 l 2,56,57
 218 293 218 293 219 281 c 128,-1,58
 220 269 220 269 223.5 263 c 128,-1,59
 227 257 227 257 234 254.5 c 128,-1,60
 241 252 241 252 252 250 c 1,61,-1
 252 236 l 1,62,-1
 133 236 l 1,63,-1
 133 250 l 1,64,65
 144 252 144 252 151 254.5 c 128,-1,66
 158 257 158 257 161.5 263 c 128,-1,67
 165 269 165 269 166 281 c 128,-1,68
 167 293 167 293 167 313 c 2,69,-1
 167 444 l 2,70,71
 167 464 167 464 166 476 c 128,-1,72
 165 488 165 488 161.5 494.5 c 128,-1,73
 158 501 158 501 151 503.5 c 128,-1,74
 144 506 144 506 133 508 c 1,75,-1
 133 522 l 1,76,-1
 263 522 l 2,40,41
218 389 m 1,77,78
 243 389 243 389 262.5 390 c 128,-1,79
 282 391 282 391 295.5 396 c 128,-1,80
 309 401 309 401 317 412.5 c 128,-1,81
 325 424 325 424 325 445 c 256,82,83
 325 467 325 467 317 478 c 128,-1,84
 309 489 309 489 295.5 494.5 c 128,-1,85
 282 500 282 500 262.5 501 c 128,-1,86
 243 502 243 502 218 502 c 1,87,-1
 218 389 l 1,77,78
EndSplineSet
EndChar

StartChar: degree
Encoding: 176 176 117
Width: 307
Flags: W
LayerCount: 2
Fore
SplineSet
154 389 m 256,0,1
 184 389 184 389 204.5 410 c 128,-1,2
 225 431 225 431 225 461 c 256,3,4
 225 491 225 491 204 511.5 c 128,-1,5
 183 532 183 532 154 532 c 256,6,7
 124 532 124 532 103 511 c 128,-1,8
 82 490 82 490 82 461 c 256,9,10
 82 431 82 431 103 410 c 128,-1,11
 124 389 124 389 154 389 c 256,0,1
154 358 m 256,12,13
 111 358 111 358 81 388 c 128,-1,14
 51 418 51 418 51 461 c 256,15,16
 51 504 51 504 81 533.5 c 128,-1,17
 111 563 111 563 154 563 c 256,18,19
 197 563 197 563 226.5 533.5 c 128,-1,20
 256 504 256 504 256 461 c 256,21,22
 256 418 256 418 226.5 388 c 128,-1,23
 197 358 197 358 154 358 c 256,12,13
EndSplineSet
EndChar

StartChar: plusminus
Encoding: 177 177 118
Width: 352
Flags: W
LayerCount: 2
Fore
SplineSet
301 111 m 1,0,-1
 301 82 l 1,1,-1
 51 82 l 1,2,-1
 51 111 l 1,3,-1
 301 111 l 1,0,-1
162 278 m 1,4,-1
 162 389 l 1,5,-1
 190 389 l 1,6,-1
 190 278 l 1,7,-1
 301 278 l 1,8,-1
 301 249 l 1,9,-1
 190 249 l 1,10,-1
 190 139 l 1,11,-1
 162 139 l 1,12,-1
 162 249 l 1,13,-1
 51 249 l 1,14,-1
 51 278 l 1,15,-1
 162 278 l 1,4,-1
EndSplineSet
EndChar

StartChar: twosuperior
Encoding: 178 178 119
Width: 304
Flags: W
LayerCount: 2
Fore
SplineSet
227 307 m 1,0,-1
 51 307 l 1,1,-1
 51 317 l 1,2,3
 83 348 83 348 107.5 370.5 c 128,-1,4
 132 393 132 393 149 412.5 c 128,-1,5
 166 432 166 432 175 450 c 128,-1,6
 184 468 184 468 184 488 c 0,7,8
 184 505 184 505 178 515.5 c 128,-1,9
 172 526 172 526 163.5 532 c 128,-1,10
 155 538 155 538 145.5 540 c 128,-1,11
 136 542 136 542 130 542 c 0,12,13
 104 542 104 542 88 528 c 128,-1,14
 72 514 72 514 63 490 c 1,15,-1
 51 490 l 1,16,17
 53 503 53 503 59 516.5 c 128,-1,18
 65 530 65 530 75.5 540.5 c 128,-1,19
 86 551 86 551 102.5 557 c 128,-1,20
 119 563 119 563 143 563 c 0,21,22
 156 563 156 563 170 559.5 c 128,-1,23
 184 556 184 556 196 548 c 128,-1,24
 208 540 208 540 215.5 527 c 128,-1,25
 223 514 223 514 223 496 c 0,26,27
 223 461 223 461 188 426 c 128,-1,28
 153 391 153 391 90 340 c 1,29,-1
 169 340 l 2,30,31
 188 340 188 340 200.5 341 c 128,-1,32
 213 342 213 342 220.5 344 c 128,-1,33
 228 346 228 346 233.5 350.5 c 128,-1,34
 239 355 239 355 244 362 c 1,35,-1
 253 362 l 1,36,-1
 227 307 l 1,0,-1
EndSplineSet
EndChar

StartChar: threesuperior
Encoding: 179 179 120
Width: 280
Flags: W
LayerCount: 2
Fore
SplineSet
51 490 m 1,0,1
 53 503 53 503 59 516.5 c 128,-1,2
 65 530 65 530 75.5 540.5 c 128,-1,3
 86 551 86 551 102.5 557 c 128,-1,4
 119 563 119 563 143 563 c 0,5,6
 177 563 177 563 194 546.5 c 128,-1,7
 211 530 211 530 211 511 c 0,8,9
 211 497 211 497 203.5 482.5 c 128,-1,10
 196 468 196 468 173 457 c 1,11,12
 193 449 193 449 211 432.5 c 128,-1,13
 229 416 229 416 229 386 c 0,14,15
 229 346 229 346 196.5 326.5 c 128,-1,16
 164 307 164 307 118 307 c 0,17,18
 82 307 82 307 66.5 316.5 c 128,-1,19
 51 326 51 326 51 335 c 256,20,21
 51 344 51 344 62 347 c 128,-1,22
 73 350 73 350 86 339 c 0,23,24
 97 329 97 329 110.5 325.5 c 128,-1,25
 124 322 124 322 136 322 c 0,26,27
 160 322 160 322 178.5 333.5 c 128,-1,28
 197 345 197 345 197 374 c 0,29,30
 197 391 197 391 188.5 402.5 c 128,-1,31
 180 414 180 414 166.5 420 c 128,-1,32
 153 426 153 426 136 427.5 c 128,-1,33
 119 429 119 429 101 427 c 1,34,-1
 101 438 l 1,35,36
 111 440 111 440 125 444.5 c 128,-1,37
 139 449 139 449 150.5 455.5 c 128,-1,38
 162 462 162 462 170 472.5 c 128,-1,39
 178 483 178 483 178 499 c 0,40,41
 178 525 178 525 161.5 533.5 c 128,-1,42
 145 542 145 542 130 542 c 0,43,44
 104 542 104 542 88 528 c 128,-1,45
 72 514 72 514 63 490 c 1,46,-1
 51 490 l 1,0,1
EndSplineSet
EndChar

StartChar: acute
Encoding: 180 180 121
Width: 848
Flags: W
LayerCount: 2
Fore
SplineSet
433 287 m 1,0,1
 433 344 433 344 428 396.5 c 128,-1,2
 423 449 423 449 405 488 c 128,-1,3
 387 527 387 527 352.5 550 c 128,-1,4
 318 573 318 573 260 573 c 0,5,6
 213 573 213 573 180 558 c 128,-1,7
 147 543 147 543 126 509.5 c 128,-1,8
 105 476 105 476 95.5 424 c 128,-1,9
 86 372 86 372 86 297 c 0,10,11
 86 269 86 269 87.5 236.5 c 128,-1,12
 89 204 89 204 95 171.5 c 128,-1,13
 101 139 101 139 113.5 109.5 c 128,-1,14
 126 80 126 80 148.5 58.5 c 128,-1,15
 171 37 171 37 204.5 26.5 c 128,-1,16
 238 16 238 16 287 23 c 1,17,18
 259 45 259 45 244 74 c 128,-1,19
 229 103 229 103 229 143 c 0,20,21
 229 174 229 174 239.5 200.5 c 128,-1,22
 250 227 250 227 267.5 246 c 128,-1,23
 285 265 285 265 309.5 276 c 128,-1,24
 334 287 334 287 362 287 c 2,25,-1
 433 287 l 1,0,1
499 266 m 1,26,27
 499 209 499 209 494.5 160.5 c 128,-1,28
 490 112 490 112 476.5 76.5 c 128,-1,29
 463 41 463 41 436 20.5 c 128,-1,30
 409 0 409 0 362 0 c 0,31,32
 335 0 335 0 316 8 c 1,33,34
 300 3 300 3 284.5 1.5 c 128,-1,35
 269 0 269 0 254 0 c 0,36,37
 209 0 209 0 167.5 20.5 c 128,-1,38
 126 41 126 41 94 79.5 c 128,-1,39
 62 118 62 118 44 172.5 c 128,-1,40
 26 227 26 227 26 297 c 0,41,42
 26 362 26 362 43 416 c 128,-1,43
 60 470 60 470 91.5 510 c 128,-1,44
 123 550 123 550 166 572 c 128,-1,45
 209 594 209 594 260 594 c 0,46,47
 322 594 322 594 368 567.5 c 128,-1,48
 414 541 414 541 443 492 c 1,49,-1
 666 492 l 1,50,-1
 666 477 l 1,51,52
 651 474 651 474 641.5 470.5 c 128,-1,53
 632 467 632 467 627 460.5 c 128,-1,54
 622 454 622 454 620 442.5 c 128,-1,55
 618 431 618 431 618 414 c 2,56,-1
 618 287 l 1,57,-1
 690 287 l 2,58,59
 719 287 719 287 743.5 276 c 128,-1,60
 768 265 768 265 785.5 246 c 128,-1,61
 803 227 803 227 813 200.5 c 128,-1,62
 823 174 823 174 823 143 c 256,63,64
 823 112 823 112 813 85.5 c 128,-1,65
 803 59 803 59 785.5 40.5 c 128,-1,66
 768 22 768 22 743.5 11 c 128,-1,67
 719 0 719 0 690 0 c 256,68,69
 661 0 661 0 636.5 11 c 128,-1,70
 612 22 612 22 595 40.5 c 128,-1,71
 578 59 578 59 567.5 86 c 128,-1,72
 557 113 557 113 557 143 c 2,73,-1
 557 266 l 1,74,-1
 499 266 l 1,26,27
455 471 m 1,75,76
 493 393 493 393 498 287 c 1,77,-1
 557 287 l 1,78,-1
 557 471 l 1,79,-1
 455 471 l 1,75,76
291 143 m 256,80,81
 291 76 291 76 307.5 48 c 128,-1,82
 324 20 324 20 362 20 c 256,83,84
 401 20 401 20 417.5 48.5 c 128,-1,85
 434 77 434 77 434 143 c 256,86,87
 434 210 434 210 417.5 238 c 128,-1,88
 401 266 401 266 362 266 c 256,89,90
 323 266 323 266 307 238 c 128,-1,91
 291 210 291 210 291 143 c 256,80,81
690 266 m 256,92,93
 651 266 651 266 634.5 238 c 128,-1,94
 618 210 618 210 618 143 c 256,95,96
 618 76 618 76 634.5 48 c 128,-1,97
 651 20 651 20 690 20 c 256,98,99
 729 20 729 20 745.5 48.5 c 128,-1,100
 762 77 762 77 762 143 c 256,101,102
 762 210 762 210 745.5 238 c 128,-1,103
 729 266 729 266 690 266 c 256,92,93
EndSplineSet
EndChar

StartChar: mu
Encoding: 181 181 122
AltUni2: 0003bc.ffffffff.0
Width: 430
Flags: W
LayerCount: 2
Fore
SplineSet
336 48 m 2,0,1
 336 20 336 20 350 20 c 0,2,3
 366 20 366 20 387 48 c 1,4,-1
 399 42 l 1,5,6
 382 15 382 15 368.5 7.5 c 128,-1,7
 355 0 355 0 336 0 c 0,8,9
 321 0 321 0 304.5 6.5 c 128,-1,10
 288 13 288 13 280 40 c 1,11,12
 243 0 243 0 182 0 c 0,13,14
 170 0 170 0 152 3 c 128,-1,15
 134 6 134 6 117 17 c 1,16,17
 107 -10 107 -10 101.5 -31 c 128,-1,18
 96 -52 96 -52 94 -72.5 c 128,-1,19
 92 -93 92 -93 92 -112.5 c 128,-1,20
 92 -132 92 -132 92 -154 c 0,21,22
 92 -166 92 -166 84 -175 c 128,-1,23
 76 -184 76 -184 61 -184 c 0,24,25
 50 -184 50 -184 40.5 -177.5 c 128,-1,26
 31 -171 31 -171 31 -154 c 0,27,28
 31 -143 31 -143 37 -132.5 c 128,-1,29
 43 -122 43 -122 50 -102.5 c 128,-1,30
 57 -83 57 -83 63.5 -49.5 c 128,-1,31
 70 -16 70 -16 70 41 c 2,32,-1
 70 287 l 1,33,-1
 131 287 l 1,34,-1
 131 81 l 2,35,36
 131 61 131 61 136.5 49 c 128,-1,37
 142 37 142 37 150.5 31 c 128,-1,38
 159 25 159 25 167.5 22.5 c 128,-1,39
 176 20 176 20 182 20 c 0,40,41
 208 20 208 20 233 30 c 128,-1,42
 258 40 258 40 274 65 c 1,43,-1
 274 287 l 1,44,-1
 336 287 l 1,45,-1
 336 48 l 2,0,1
EndSplineSet
EndChar

StartChar: paragraph
Encoding: 182 182 123
Width: 407
Flags: W
LayerCount: 2
Fore
SplineSet
236 -102 m 1,0,-1
 207 -102 l 1,1,-1
 207 348 l 1,2,-1
 164 348 l 2,3,4
 136 348 136 348 112 358.5 c 128,-1,5
 88 369 88 369 69.5 387.5 c 128,-1,6
 51 406 51 406 41 430 c 128,-1,7
 31 454 31 454 31 481 c 256,8,9
 31 509 31 509 41 533 c 128,-1,10
 51 557 51 557 69.5 575.5 c 128,-1,11
 88 594 88 594 112 604 c 128,-1,12
 136 614 136 614 164 614 c 2,13,-1
 377 614 l 1,14,-1
 377 600 l 1,15,16
 362 597 362 597 352.5 593.5 c 128,-1,17
 343 590 343 590 338 583.5 c 128,-1,18
 333 577 333 577 331.5 565.5 c 128,-1,19
 330 554 330 554 330 537 c 2,20,-1
 330 -102 l 1,21,-1
 301 -102 l 1,22,-1
 301 586 l 1,23,-1
 236 586 l 1,24,-1
 236 -102 l 1,0,-1
EndSplineSet
EndChar

StartChar: onesuperior
Encoding: 185 185 124
Width: 219
Flags: W
LayerCount: 2
Fore
SplineSet
137 349 m 2,0,1
 137 330 137 330 142 323.5 c 128,-1,2
 147 317 147 317 168 314 c 1,3,-1
 168 307 l 1,4,-1
 66 307 l 1,5,-1
 66 314 l 1,6,7
 86 317 86 317 91 323.5 c 128,-1,8
 96 330 96 330 96 349 c 2,9,-1
 96 509 l 2,10,11
 96 525 96 525 88.5 527.5 c 128,-1,12
 81 530 81 530 51 530 c 1,13,-1
 51 538 l 1,14,-1
 137 563 l 1,15,-1
 137 349 l 2,0,1
EndSplineSet
EndChar

StartChar: ordmasculine
Encoding: 186 186 125
Width: 533
Flags: W
LayerCount: 2
Fore
SplineSet
159 0 m 2,0,1
 130 0 130 0 105.5 11 c 128,-1,2
 81 22 81 22 63.5 40.5 c 128,-1,3
 46 59 46 59 36 86 c 128,-1,4
 26 113 26 113 26 143 c 256,5,6
 26 174 26 174 36 200.5 c 128,-1,7
 46 227 46 227 63.5 246 c 128,-1,8
 81 265 81 265 105.5 276 c 128,-1,9
 130 287 130 287 159 287 c 2,10,-1
 230 287 l 1,11,-1
 230 461 l 2,12,13
 230 615 230 615 384 614 c 2,14,-1
 466 614 l 1,15,-1
 466 78 l 2,16,17
 466 61 466 61 467.5 49.5 c 128,-1,18
 469 38 469 38 474 31.5 c 128,-1,19
 479 25 479 25 488.5 21 c 128,-1,20
 498 17 498 17 513 14 c 1,21,-1
 513 0 l 1,22,-1
 404 0 l 1,23,-1
 404 594 l 1,24,-1
 384 594 l 2,25,26
 330 594 330 594 311 565 c 128,-1,27
 292 536 292 536 292 481 c 2,28,-1
 292 0 l 1,29,-1
 159 0 l 2,0,1
230 20 m 1,30,-1
 230 266 l 1,31,-1
 159 266 l 2,32,33
 120 266 120 266 103.5 238 c 128,-1,34
 87 210 87 210 87 143 c 256,35,36
 87 76 87 76 103.5 48 c 128,-1,37
 120 20 120 20 159 20 c 2,38,-1
 230 20 l 1,30,-1
EndSplineSet
EndChar

StartChar: guillemotright
Encoding: 187 187 126
Width: 378
Flags: W
LayerCount: 2
Fore
SplineSet
63 307 m 1,0,-1
 205 154 l 1,1,-1
 63 0 l 1,2,-1
 51 0 l 1,3,-1
 143 154 l 1,4,-1
 51 307 l 1,5,-1
 63 307 l 1,0,-1
186 307 m 1,6,-1
 328 154 l 1,7,-1
 186 0 l 1,8,-1
 174 0 l 1,9,-1
 266 154 l 1,10,-1
 174 307 l 1,11,-1
 186 307 l 1,6,-1
EndSplineSet
EndChar

StartChar: onequarter
Encoding: 188 188 127
Width: 573
Flags: W
LayerCount: 2
Fore
SplineSet
127 349 m 2,0,1
 127 330 127 330 132 323.5 c 128,-1,2
 137 317 137 317 158 314 c 1,3,-1
 158 307 l 1,4,-1
 55 307 l 1,5,-1
 55 314 l 1,6,7
 75 317 75 317 80.5 323.5 c 128,-1,8
 86 330 86 330 86 349 c 2,9,-1
 86 509 l 2,10,11
 86 525 86 525 78.5 527.5 c 128,-1,12
 71 530 71 530 41 530 c 1,13,-1
 41 538 l 1,14,-1
 127 563 l 1,15,-1
 127 349 l 2,0,1
334 66 m 1,16,-1
 334 88 l 1,17,-1
 479 256 l 1,18,-1
 493 256 l 1,19,-1
 493 88 l 1,20,-1
 532 88 l 1,21,-1
 532 66 l 1,22,-1
 493 66 l 1,23,-1
 493 0 l 1,24,-1
 453 0 l 1,25,-1
 453 66 l 1,26,-1
 334 66 l 1,16,-1
453 207 m 1,27,-1
 351 88 l 1,28,-1
 453 88 l 1,29,-1
 453 207 l 1,27,-1
532 563 m 1,30,-1
 70 0 l 1,31,-1
 41 0 l 1,32,-1
 504 563 l 1,33,-1
 532 563 l 1,30,-1
EndSplineSet
EndChar

StartChar: onehalf
Encoding: 189 189 128
Width: 573
Flags: W
LayerCount: 2
Fore
SplineSet
127 349 m 2,0,1
 127 330 127 330 132 323.5 c 128,-1,2
 137 317 137 317 158 314 c 1,3,-1
 158 307 l 1,4,-1
 55 307 l 1,5,-1
 55 314 l 1,6,7
 75 317 75 317 80.5 323.5 c 128,-1,8
 86 330 86 330 86 349 c 2,9,-1
 86 509 l 2,10,11
 86 525 86 525 78.5 527.5 c 128,-1,12
 71 530 71 530 41 530 c 1,13,-1
 41 538 l 1,14,-1
 127 563 l 1,15,-1
 127 349 l 2,0,1
532 563 m 1,16,-1
 70 0 l 1,17,-1
 41 0 l 1,18,-1
 504 563 l 1,19,-1
 532 563 l 1,16,-1
507 0 m 1,20,-1
 331 0 l 1,21,-1
 331 10 l 1,22,23
 363 41 363 41 387.5 63.5 c 128,-1,24
 412 86 412 86 428.5 105.5 c 128,-1,25
 445 125 445 125 454.5 143 c 128,-1,26
 464 161 464 161 464 181 c 0,27,28
 464 198 464 198 458 208.5 c 128,-1,29
 452 219 452 219 443 224.5 c 128,-1,30
 434 230 434 230 425 232 c 128,-1,31
 416 234 416 234 410 234 c 0,32,33
 384 234 384 234 367.5 220.5 c 128,-1,34
 351 207 351 207 343 183 c 1,35,-1
 331 183 l 1,36,37
 333 196 333 196 338.5 209.5 c 128,-1,38
 344 223 344 223 355 233.5 c 128,-1,39
 366 244 366 244 382 250 c 128,-1,40
 398 256 398 256 423 256 c 0,41,42
 436 256 436 256 450 252.5 c 128,-1,43
 464 249 464 249 475.5 240.5 c 128,-1,44
 487 232 487 232 495 219.5 c 128,-1,45
 503 207 503 207 503 188 c 0,46,47
 503 153 503 153 467.5 118.5 c 128,-1,48
 432 84 432 84 370 33 c 1,49,-1
 449 33 l 2,50,51
 468 33 468 33 480.5 34 c 128,-1,52
 493 35 493 35 500.5 37 c 128,-1,53
 508 39 508 39 513 43.5 c 128,-1,54
 518 48 518 48 523 55 c 1,55,-1
 532 55 l 1,56,-1
 507 0 l 1,20,-1
EndSplineSet
EndChar

StartChar: threequarters
Encoding: 190 190 129
Width: 573
Flags: W
LayerCount: 2
Fore
SplineSet
334 66 m 1,0,-1
 334 88 l 1,1,-1
 479 256 l 1,2,-1
 493 256 l 1,3,-1
 493 88 l 1,4,-1
 532 88 l 1,5,-1
 532 66 l 1,6,-1
 493 66 l 1,7,-1
 493 0 l 1,8,-1
 453 0 l 1,9,-1
 453 66 l 1,10,-1
 334 66 l 1,0,-1
453 207 m 1,11,-1
 351 88 l 1,12,-1
 453 88 l 1,13,-1
 453 207 l 1,11,-1
532 563 m 1,14,-1
 70 0 l 1,15,-1
 41 0 l 1,16,-1
 504 563 l 1,17,-1
 532 563 l 1,14,-1
41 490 m 1,18,19
 43 503 43 503 48.5 516.5 c 128,-1,20
 54 530 54 530 65 540.5 c 128,-1,21
 76 551 76 551 92.5 557 c 128,-1,22
 109 563 109 563 133 563 c 0,23,24
 167 563 167 563 184 546.5 c 128,-1,25
 201 530 201 530 201 511 c 0,26,27
 201 497 201 497 193 482.5 c 128,-1,28
 185 468 185 468 163 457 c 1,29,30
 183 449 183 449 201 432.5 c 128,-1,31
 219 416 219 416 219 386 c 0,32,33
 219 346 219 346 186.5 326.5 c 128,-1,34
 154 307 154 307 108 307 c 0,35,36
 72 307 72 307 56.5 316.5 c 128,-1,37
 41 326 41 326 41 335 c 256,38,39
 41 344 41 344 51.5 347 c 128,-1,40
 62 350 62 350 76 339 c 0,41,42
 87 329 87 329 100.5 325.5 c 128,-1,43
 114 322 114 322 126 322 c 0,44,45
 150 322 150 322 168 333.5 c 128,-1,46
 186 345 186 345 186 374 c 0,47,48
 186 391 186 391 178 402.5 c 128,-1,49
 170 414 170 414 156 420 c 128,-1,50
 142 426 142 426 125.5 427.5 c 128,-1,51
 109 429 109 429 91 427 c 1,52,-1
 91 438 l 1,53,54
 101 440 101 440 115 444.5 c 128,-1,55
 129 449 129 449 140.5 455.5 c 128,-1,56
 152 462 152 462 160 472.5 c 128,-1,57
 168 483 168 483 168 499 c 0,58,59
 168 525 168 525 151.5 533.5 c 128,-1,60
 135 542 135 542 120 542 c 0,61,62
 94 542 94 542 77.5 528 c 128,-1,63
 61 514 61 514 53 490 c 1,64,-1
 41 490 l 1,18,19
EndSplineSet
EndChar

StartChar: questiondown
Encoding: 191 191 130
Width: 307
Flags: W
LayerCount: 2
Fore
SplineSet
154 410 m 256,0,1
 141 410 141 410 132 418.5 c 128,-1,2
 123 427 123 427 123 440 c 256,3,4
 123 453 123 453 131.5 462 c 128,-1,5
 140 471 140 471 154 471 c 256,6,7
 167 471 167 471 175.5 462.5 c 128,-1,8
 184 454 184 454 184 440 c 256,9,10
 184 427 184 427 175.5 418.5 c 128,-1,11
 167 410 167 410 154 410 c 256,0,1
160 369 m 1,12,13
 160 312 160 312 149 278.5 c 128,-1,14
 138 245 138 245 126 220.5 c 128,-1,15
 114 196 114 196 103 170 c 128,-1,16
 92 144 92 144 92 102 c 0,17,18
 92 59 92 59 116.5 39.5 c 128,-1,19
 141 20 141 20 170 20 c 0,20,21
 196 20 196 20 217 32.5 c 128,-1,22
 238 45 238 45 238 69 c 0,23,24
 238 80 238 80 234 86.5 c 128,-1,25
 230 93 230 93 226 98 c 128,-1,26
 222 103 222 103 218.5 108 c 128,-1,27
 215 113 215 113 215 120 c 0,28,29
 215 131 215 131 221.5 137 c 128,-1,30
 228 143 228 143 240 143 c 0,31,32
 252 143 252 143 264 131 c 128,-1,33
 276 119 276 119 276 92 c 0,34,35
 276 69 276 69 266 52 c 128,-1,36
 256 35 256 35 239 23.5 c 128,-1,37
 222 12 222 12 199.5 6 c 128,-1,38
 177 0 177 0 154 0 c 0,39,40
 121 0 121 0 97.5 8.5 c 128,-1,41
 74 17 74 17 59 31.5 c 128,-1,42
 44 46 44 46 37.5 64.5 c 128,-1,43
 31 83 31 83 31 102 c 0,44,45
 31 140 31 140 49.5 168.5 c 128,-1,46
 68 197 68 197 89.5 224.5 c 128,-1,47
 111 252 111 252 129 285.5 c 128,-1,48
 147 319 147 319 147 369 c 1,49,-1
 160 369 l 1,12,13
EndSplineSet
EndChar

StartChar: Agrave
Encoding: 192 192 131
Width: 655
Flags: W
LayerCount: 2
Fore
SplineSet
415 287 m 1,0,-1
 630 287 l 1,1,-1
 630 184 l 2,2,3
 630 144 630 144 617.5 110.5 c 128,-1,4
 605 77 605 77 581.5 52.5 c 128,-1,5
 558 28 558 28 523.5 14 c 128,-1,6
 489 0 489 0 445 0 c 2,7,-1
 415 0 l 1,8,9
 451 -15 451 -15 488 -69 c 128,-1,10
 525 -123 525 -123 575 -215 c 0,11,12
 587 -239 587 -239 600.5 -252.5 c 128,-1,13
 614 -266 614 -266 627 -274 c 128,-1,14
 640 -282 640 -282 651.5 -284.5 c 128,-1,15
 663 -287 663 -287 672 -287 c 0,16,17
 715 -287 715 -287 730.5 -268 c 128,-1,18
 746 -249 746 -249 740 -228 c 1,19,20
 729 -245 729 -245 710 -246 c 0,21,22
 696 -246 696 -246 686.5 -237 c 128,-1,23
 677 -228 677 -228 677 -215 c 256,24,25
 677 -202 677 -202 686 -193 c 128,-1,26
 695 -184 695 -184 712 -184 c 0,27,28
 735 -184 735 -184 749 -197 c 128,-1,29
 763 -210 763 -210 763 -237 c 0,30,31
 763 -256 763 -256 754.5 -269.5 c 128,-1,32
 746 -283 746 -283 733 -291.5 c 128,-1,33
 720 -300 720 -300 703.5 -303.5 c 128,-1,34
 687 -307 687 -307 671 -307 c 0,35,36
 633 -307 633 -307 603.5 -290.5 c 128,-1,37
 574 -274 574 -274 549.5 -248 c 128,-1,38
 525 -222 525 -222 503.5 -190 c 128,-1,39
 482 -158 482 -158 459.5 -126 c 128,-1,40
 437 -94 437 -94 411 -66 c 128,-1,41
 385 -38 385 -38 353 -20 c 1,42,-1
 353 580 l 1,43,44
 322 580 322 580 307 567.5 c 128,-1,45
 292 555 292 555 292 516 c 2,46,-1
 292 143 l 2,47,48
 292 112 292 112 281.5 85.5 c 128,-1,49
 271 59 271 59 254 40.5 c 128,-1,50
 237 22 237 22 212 11 c 128,-1,51
 187 0 187 0 159 0 c 256,52,53
 130 0 130 0 105.5 11 c 128,-1,54
 81 22 81 22 63.5 40.5 c 128,-1,55
 46 59 46 59 36 86 c 128,-1,56
 26 113 26 113 26 143 c 0,57,58
 26 173 26 173 34 196.5 c 128,-1,59
 42 220 42 220 56 238 c 0,60,61
 63 246 63 246 63 253 c 256,62,63
 63 260 63 260 52.5 264.5 c 128,-1,64
 42 269 42 269 26 272 c 1,65,-1
 26 287 l 1,66,-1
 230 287 l 1,67,-1
 230 502 l 2,68,69
 230 519 230 519 228.5 530.5 c 128,-1,70
 227 542 227 542 222 548.5 c 128,-1,71
 217 555 217 555 208 558.5 c 128,-1,72
 199 562 199 562 183 565 c 1,73,-1
 183 580 l 1,74,-1
 415 614 l 1,75,-1
 415 287 l 1,0,-1
415 266 m 1,76,-1
 415 20 l 1,77,-1
 445 20 l 2,78,79
 485 20 485 20 509.5 37 c 128,-1,80
 534 54 534 54 546.5 79 c 128,-1,81
 559 104 559 104 563.5 132.5 c 128,-1,82
 568 161 568 161 568 184 c 2,83,-1
 568 266 l 1,84,-1
 415 266 l 1,76,-1
159 266 m 256,85,86
 120 266 120 266 103.5 238 c 128,-1,87
 87 210 87 210 87 143 c 256,88,89
 87 76 87 76 103.5 48 c 128,-1,90
 120 20 120 20 159 20 c 256,91,92
 198 20 198 20 214 48.5 c 128,-1,93
 230 77 230 77 230 143 c 256,94,95
 230 210 230 210 214 238 c 128,-1,96
 198 266 198 266 159 266 c 256,85,86
EndSplineSet
EndChar

StartChar: Aacute
Encoding: 193 193 132
Width: 536
Flags: W
LayerCount: 2
Fore
SplineSet
276 573 m 256,0,1
 229 573 229 573 196.5 558 c 128,-1,2
 164 543 164 543 143 509.5 c 128,-1,3
 122 476 122 476 113 424 c 128,-1,4
 104 372 104 372 104 297 c 2,5,-1
 104 257 l 1,6,7
 89 242 89 242 80 227.5 c 128,-1,8
 71 213 71 213 65 198 c 128,-1,9
 59 183 59 183 56 166.5 c 128,-1,10
 53 150 53 150 51 129 c 1,11,-1
 41 129 l 1,12,-1
 41 274 l 2,13,14
 41 345 41 345 56.5 404 c 128,-1,15
 72 463 72 463 101.5 505 c 128,-1,16
 131 547 131 547 175 570.5 c 128,-1,17
 219 594 219 594 276 594 c 0,18,19
 327 594 327 594 370.5 572 c 128,-1,20
 414 550 414 550 445 510 c 128,-1,21
 476 470 476 470 493.5 415.5 c 128,-1,22
 511 361 511 361 511 297 c 256,23,24
 511 232 511 232 493.5 178 c 128,-1,25
 476 124 476 124 445 84 c 128,-1,26
 414 44 414 44 371 22 c 128,-1,27
 328 0 328 0 276 0 c 0,28,29
 262 0 262 0 245.5 3 c 128,-1,30
 229 6 229 6 215 10 c 1,31,-1
 242 25 l 1,32,33
 250 23 250 23 259 21.5 c 128,-1,34
 268 20 268 20 276 20 c 0,35,36
 323 20 323 20 356 35.5 c 128,-1,37
 389 51 389 51 410 84.5 c 128,-1,38
 431 118 431 118 441 170 c 128,-1,39
 451 222 451 222 451 297 c 256,40,41
 451 372 451 372 441 424 c 128,-1,42
 431 476 431 476 410 509.5 c 128,-1,43
 389 543 389 543 356 558 c 128,-1,44
 323 573 323 573 276 573 c 256,0,1
EndSplineSet
EndChar

StartChar: Adieresis
Encoding: 196 196 133
Width: 616
Flags: W
LayerCount: 2
Fore
SplineSet
482 614 m 1,0,-1
 591 614 l 1,1,-1
 591 600 l 1,2,3
 576 597 576 597 566.5 593.5 c 128,-1,4
 557 590 557 590 552 583.5 c 128,-1,5
 547 577 547 577 545.5 565.5 c 128,-1,6
 544 554 544 554 544 537 c 2,7,-1
 544 78 l 2,8,9
 544 61 544 61 545.5 49.5 c 128,-1,10
 547 38 547 38 552 31.5 c 128,-1,11
 557 25 557 25 566 21 c 128,-1,12
 575 17 575 17 591 14 c 1,13,-1
 591 0 l 1,14,-1
 230 0 l 1,15,-1
 230 14 l 1,16,17
 245 17 245 17 254.5 21 c 128,-1,18
 264 25 264 25 269 31.5 c 128,-1,19
 274 38 274 38 276 49 c 128,-1,20
 278 60 278 60 278 78 c 0,21,22
 278 106 278 106 280.5 134 c 128,-1,23
 283 162 283 162 291.5 187 c 128,-1,24
 300 212 300 212 316 233 c 128,-1,25
 332 254 332 254 359 266 c 1,26,-1
 26 266 l 1,27,-1
 26 281 l 1,28,29
 41 284 41 284 50 287.5 c 128,-1,30
 59 291 59 291 64.5 297.5 c 128,-1,31
 70 304 70 304 71.5 315.5 c 128,-1,32
 73 327 73 327 73 344 c 2,33,-1
 73 537 l 2,34,35
 73 554 73 554 71.5 565.5 c 128,-1,36
 70 577 70 577 64.5 583.5 c 128,-1,37
 59 590 59 590 50 593.5 c 128,-1,38
 41 597 41 597 26 600 c 1,39,-1
 26 614 l 1,40,-1
 181 614 l 1,41,-1
 181 600 l 1,42,43
 166 597 166 597 156.5 593.5 c 128,-1,44
 147 590 147 590 142 583.5 c 128,-1,45
 137 577 137 577 135.5 565.5 c 128,-1,46
 134 554 134 554 134 537 c 2,47,-1
 134 287 l 1,48,-1
 278 287 l 1,49,-1
 278 614 l 1,50,-1
 386 614 l 1,51,-1
 386 600 l 1,52,53
 371 597 371 597 361.5 593.5 c 128,-1,54
 352 590 352 590 347 583.5 c 128,-1,55
 342 577 342 577 340.5 565.5 c 128,-1,56
 339 554 339 554 339 537 c 2,57,-1
 339 287 l 1,58,-1
 482 287 l 1,59,-1
 482 614 l 1,0,-1
462 266 m 2,60,61
 417 266 417 266 392.5 255 c 128,-1,62
 368 244 368 244 356 221 c 128,-1,63
 344 198 344 198 341.5 163 c 128,-1,64
 339 128 339 128 339 81 c 2,65,-1
 339 20 l 1,66,-1
 482 20 l 1,67,-1
 482 266 l 1,68,-1
 462 266 l 2,60,61
EndSplineSet
EndChar

StartChar: Ccedilla
Encoding: 199 199 134
Width: 614
Flags: W
LayerCount: 2
Fore
SplineSet
127 14 m 1,0,1
 142 17 142 17 151.5 21 c 128,-1,2
 161 25 161 25 166 31.5 c 128,-1,3
 171 38 171 38 172.5 49 c 128,-1,4
 174 60 174 60 174 78 c 2,5,-1
 174 154 l 2,6,7
 174 190 174 190 191.5 219.5 c 128,-1,8
 209 249 209 249 237 266 c 1,9,-1
 26 266 l 1,10,-1
 26 281 l 1,11,12
 54 286 54 286 74.5 315 c 128,-1,13
 95 344 95 344 109.5 381.5 c 128,-1,14
 124 419 124 419 131.5 457.5 c 128,-1,15
 139 496 139 496 141 541 c 0,16,17
 142 559 142 559 142 569.5 c 128,-1,18
 142 580 142 580 138.5 586 c 128,-1,19
 135 592 135 592 128 594.5 c 128,-1,20
 121 597 121 597 108 600 c 1,21,-1
 108 614 l 1,22,-1
 206 614 l 1,23,24
 206 570 206 570 202 521.5 c 128,-1,25
 198 473 198 473 190 440 c 1,26,-1
 424 440 l 1,27,28
 417 473 417 473 413 521.5 c 128,-1,29
 409 570 409 570 409 614 c 1,30,-1
 507 614 l 1,31,-1
 507 600 l 1,32,33
 494 597 494 597 486.5 594.5 c 128,-1,34
 479 592 479 592 475.5 586 c 128,-1,35
 472 580 472 580 471.5 569.5 c 128,-1,36
 471 559 471 559 472 541 c 0,37,38
 475 496 475 496 482.5 457.5 c 128,-1,39
 490 419 490 419 504.5 381.5 c 128,-1,40
 519 344 519 344 540 315 c 128,-1,41
 561 286 561 286 589 281 c 1,42,-1
 589 266 l 1,43,-1
 378 266 l 1,44,45
 407 249 407 249 423.5 219 c 128,-1,46
 440 189 440 189 440 154 c 2,47,-1
 440 78 l 2,48,49
 440 61 440 61 441.5 49.5 c 128,-1,50
 443 38 443 38 448.5 31.5 c 128,-1,51
 454 25 454 25 463 21 c 128,-1,52
 472 17 472 17 487 14 c 1,53,-1
 487 0 l 1,54,-1
 127 0 l 1,55,-1
 127 14 l 1,0,1
276 420 m 1,56,-1
 185 420 l 1,57,58
 173 375 173 375 157 341.5 c 128,-1,59
 141 308 141 308 124 287 c 1,60,-1
 276 287 l 1,61,-1
 276 420 l 1,56,-1
490 287 m 1,62,63
 473 309 473 309 457 342 c 128,-1,64
 441 375 441 375 429 420 c 1,65,-1
 338 420 l 1,66,-1
 338 287 l 1,67,-1
 490 287 l 1,62,63
379 20 m 1,68,-1
 379 154 l 2,69,70
 379 215 379 215 362.5 240.5 c 128,-1,71
 346 266 346 266 307 266 c 256,72,73
 268 266 268 266 252 240.5 c 128,-1,74
 236 215 236 215 236 154 c 2,75,-1
 236 20 l 1,76,-1
 379 20 l 1,68,-1
EndSplineSet
EndChar

StartChar: Egrave
Encoding: 200 200 135
Width: 512
Flags: W
LayerCount: 2
Fore
SplineSet
472 614 m 1,0,1
 436 614 436 614 410 624 c 128,-1,2
 384 634 384 634 366 651 c 128,-1,3
 348 668 348 668 337.5 690 c 128,-1,4
 327 712 327 712 323 737 c 1,5,-1
 384 758 l 1,6,7
 384 724 384 724 388.5 700.5 c 128,-1,8
 393 677 393 677 404.5 662 c 128,-1,9
 416 647 416 647 436 641 c 128,-1,10
 456 635 456 635 486 635 c 1,11,-1
 472 614 l 1,0,1
200 307 m 1,12,-1
 425 307 l 1,13,14
 425 370 425 370 408.5 423 c 128,-1,15
 392 476 392 476 363.5 514 c 128,-1,16
 335 552 335 552 295.5 573 c 128,-1,17
 256 594 256 594 210 594 c 0,18,19
 178 594 178 594 151.5 582 c 128,-1,20
 125 570 125 570 104.5 552 c 128,-1,21
 84 534 84 534 70 509.5 c 128,-1,22
 56 485 56 485 50 461 c 1,23,-1
 36 461 l 1,24,-1
 36 614 l 1,25,-1
 50 614 l 1,26,27
 59 592 59 592 67 583.5 c 128,-1,28
 75 575 75 575 83 575 c 0,29,30
 92 575 92 575 103.5 581.5 c 128,-1,31
 115 588 115 588 131.5 595 c 128,-1,32
 148 602 148 602 172.5 608 c 128,-1,33
 197 614 197 614 230 614 c 0,34,35
 285 614 285 614 332.5 591 c 128,-1,36
 380 568 380 568 414.5 527 c 128,-1,37
 449 486 449 486 467.5 430 c 128,-1,38
 486 374 486 374 486 307 c 256,39,40
 486 240 486 240 467.5 184 c 128,-1,41
 449 128 449 128 414.5 87 c 128,-1,42
 380 46 380 46 333 23 c 128,-1,43
 286 0 286 0 230 0 c 0,44,45
 188 0 188 0 156.5 11.5 c 128,-1,46
 125 23 125 23 103 36.5 c 128,-1,47
 81 50 81 50 69 62 c 128,-1,48
 57 74 57 74 56 76 c 2,49,-1
 71 88 l 1,50,51
 110 51 110 51 145.5 35.5 c 128,-1,52
 181 20 181 20 218 20 c 0,53,54
 270 20 270 20 309 48.5 c 128,-1,55
 348 77 348 77 373.5 118.5 c 128,-1,56
 399 160 399 160 412 205.5 c 128,-1,57
 425 251 425 251 425 287 c 1,58,-1
 200 287 l 1,59,-1
 200 307 l 1,12,-1
EndSplineSet
EndChar

StartChar: Eacute
Encoding: 201 201 136
Width: 317
Flags: W
LayerCount: 2
Fore
SplineSet
292 463 m 2,0,1
 292 430 292 430 287 411 c 128,-1,2
 282 392 282 392 274 383 c 128,-1,3
 266 374 266 374 257 371.5 c 128,-1,4
 248 369 248 369 241 369 c 0,5,6
 217 369 217 369 207.5 384.5 c 128,-1,7
 198 400 198 400 190.5 419.5 c 128,-1,8
 183 439 183 439 173 455 c 128,-1,9
 163 471 163 471 138 471 c 0,10,11
 114 471 114 471 100.5 452 c 128,-1,12
 87 433 87 433 87 408 c 0,13,14
 87 394 87 394 92 379.5 c 128,-1,15
 97 365 97 365 108.5 353.5 c 128,-1,16
 120 342 120 342 137.5 335 c 128,-1,17
 155 328 155 328 179 328 c 2,18,-1
 230 328 l 1,19,-1
 230 307 l 1,20,-1
 118 307 l 2,21,22
 76 307 76 307 51 332 c 128,-1,23
 26 357 26 357 26 399 c 256,24,25
 26 441 26 441 51 466.5 c 128,-1,26
 76 492 76 492 118 492 c 0,27,28
 153 492 153 492 169.5 482 c 128,-1,29
 186 472 186 472 196 461 c 128,-1,30
 206 450 206 450 213.5 440 c 128,-1,31
 221 430 221 430 237 430 c 0,32,33
 244 430 244 430 250 432 c 128,-1,34
 256 434 256 434 260.5 442.5 c 128,-1,35
 265 451 265 451 268 467 c 128,-1,36
 271 483 271 483 271 512 c 1,37,-1
 292 512 l 1,38,-1
 292 463 l 2,0,1
EndSplineSet
EndChar

